<svg width="329" height="86" viewBox="0 0 329 86" preserveAspectRatio="none"  fill="none" xmlns="http://www.w3.org/2000/svg">
<path fill-rule="evenodd" clip-rule="evenodd" d="M84.0364 0.263343C82.8616 0.387513 81.2696 0.525861 80.4982 0.570731C79.7272 0.615445 79.1636 0.715778 79.2458 0.793521C79.3283 0.871263 78.7807 0.934829 78.0291 0.934829C77.2775 0.934829 76.7283 0.996992 76.809 1.07286C76.8893 1.14889 76.2956 1.25904 75.4898 1.31778C74.6837 1.37651 74.0243 1.48978 74.0243 1.56923C74.0243 1.64869 73.5365 1.71381 72.9406 1.71381C72.2862 1.71381 71.9223 1.77551 72.0218 1.86961C72.1228 1.96496 71.7079 2.02541 70.9539 2.02541C70.1999 2.02541 69.785 2.08586 69.8859 2.18121C69.9778 2.26783 69.7773 2.33747 69.4344 2.33794C69.0954 2.33856 68.4738 2.44372 68.0533 2.57163C67.6325 2.6997 66.9947 2.80439 66.6358 2.80439C66.2687 2.80439 66.0551 2.87248 66.1481 2.96019C66.2482 3.05476 65.8608 3.11692 65.1626 3.11832C64.3213 3.12019 64.1197 3.16132 64.4126 3.27179C64.7194 3.38739 64.6219 3.42338 63.9964 3.42525C63.5473 3.42649 62.9466 3.53056 62.6614 3.65629C62.3766 3.78218 61.7227 3.88843 61.2087 3.89248C60.5055 3.89793 60.3733 3.93704 60.6748 4.05077C60.9786 4.16544 60.8659 4.20236 60.2075 4.20423C59.7304 4.20548 59.3398 4.27356 59.3398 4.35535C59.3398 4.43715 58.9204 4.54994 58.4077 4.60603C57.8951 4.66227 57.5416 4.77055 57.6225 4.84689C57.7032 4.92308 57.3948 4.98555 56.9369 4.98555C56.4499 4.98555 56.1728 5.05021 56.2694 5.14135C56.3634 5.23 56.1335 5.29715 55.7354 5.29715C55.3374 5.29715 55.1075 5.3643 55.2015 5.45294C55.2946 5.54081 55.077 5.60874 54.7022 5.60874C54.3369 5.60874 53.858 5.7139 53.6377 5.84244C53.4174 5.97097 52.9884 6.07613 52.684 6.07613C52.3799 6.07613 52.1311 6.14624 52.1311 6.23193C52.1311 6.31762 51.8908 6.38773 51.5971 6.38773C51.3034 6.38773 51.0631 6.44241 51.0631 6.50925C51.0631 6.57609 50.4624 6.76678 49.7282 6.93302C48.9939 7.09925 48.3932 7.28995 48.3932 7.35679C48.3932 7.42362 48.1529 7.47831 47.8592 7.47831C47.5655 7.47831 47.3252 7.53174 47.3252 7.59718C47.3252 7.71621 46.5342 7.99758 45.6566 8.19077C45.3994 8.24732 45.1893 8.3556 45.1893 8.43132C45.1893 8.50688 44.8817 8.56889 44.5061 8.56889C44.1304 8.56889 43.8891 8.63152 43.9702 8.70801C44.0514 8.78467 43.8181 8.89107 43.452 8.94467C43.086 8.99842 42.7864 9.11106 42.7864 9.19503C42.7864 9.27917 42.5389 9.34787 42.2367 9.34787C41.9344 9.34787 41.7612 9.41798 41.8519 9.50367C41.9427 9.58936 41.7694 9.65947 41.4672 9.65947C41.165 9.65947 40.9175 9.72957 40.9175 9.81526C40.9175 9.90095 40.6734 9.97106 40.3752 9.97106C40.0767 9.97106 39.7635 10.0762 39.6792 10.2048C39.5945 10.3333 39.2979 10.4385 39.02 10.4385C38.742 10.4385 38.5146 10.5086 38.5146 10.5942C38.5146 10.6799 38.3271 10.75 38.0983 10.75C37.8695 10.75 37.7483 10.8127 37.8295 10.8892C37.9106 10.9658 37.6773 11.0722 37.3112 11.1258C36.9452 11.1796 36.6456 11.2922 36.6456 11.3762C36.6456 11.4603 36.4654 11.529 36.2451 11.529C36.0249 11.529 35.8447 11.5991 35.8447 11.6848C35.8447 11.7705 35.5972 11.8406 35.2949 11.8406C34.9927 11.8406 34.8194 11.9107 34.9102 11.9964C35.001 12.0821 34.884 12.1522 34.6507 12.1522C34.4171 12.1522 34.1567 12.2574 34.0724 12.3859C33.9877 12.5144 33.6842 12.6196 33.3974 12.6196C33.1107 12.6196 32.9505 12.6897 33.0413 12.7754C33.1323 12.8614 32.9401 12.9312 32.6119 12.9312C32.2851 12.9312 32.0937 12.9756 32.1866 13.0298C32.3834 13.1445 31.2273 13.7102 30.7964 13.7102C30.6362 13.7102 30.5049 13.7803 30.5049 13.866C30.5049 13.9517 30.3746 14.0218 30.2157 14.0218C30.0566 14.0218 29.5181 14.2672 29.0188 14.5671C28.5198 14.867 27.9839 15.1124 27.828 15.1124C27.6724 15.1124 26.8786 15.498 26.0645 15.9692C25.2505 16.4405 24.485 16.8261 24.3635 16.8261C24.0498 16.8261 19.8792 19.2824 19.0155 19.9757C18.619 20.2942 18.2182 20.5104 18.1253 20.4562C18.0324 20.402 17.9563 20.4486 17.9563 20.5598C17.9563 20.671 17.5358 20.9935 17.0218 21.2765C16.5079 21.5592 16.0874 21.8335 16.0874 21.8856C16.0874 21.9908 15.7229 22.2606 14.8192 22.8248C14.4886 23.0309 14.2184 23.273 14.2184 23.3626C14.2184 23.4522 14.0983 23.5254 13.9515 23.5254C13.8046 23.5254 13.6845 23.6656 13.6845 23.837C13.6845 24.0101 13.5064 24.1486 13.284 24.1486C13.0576 24.1486 12.8835 24.288 12.8835 24.4694C12.8835 24.6457 12.7634 24.7469 12.6165 24.6939C12.4697 24.6409 12.3495 24.742 12.3495 24.9184C12.3495 25.0947 12.2579 25.2392 12.1458 25.2392C11.9418 25.2392 11.4596 25.7008 11.1286 26.2129C11.0317 26.3628 10.8461 26.4856 10.7163 26.4856C10.5868 26.4856 10.4806 26.6258 10.4806 26.7971C10.4806 26.9685 10.3604 27.1087 10.2136 27.1087C10.0668 27.1087 9.9466 27.1971 9.9466 27.305C9.9466 27.413 9.64624 27.6905 9.27913 27.9215C8.91202 28.1524 8.61165 28.4847 8.61165 28.6599C8.61165 28.835 8.49151 28.9783 8.34466 28.9783C8.19782 28.9783 8.07767 29.11 8.07767 29.2709C8.07767 29.4317 7.89745 29.6506 7.67719 29.7573C7.45692 29.864 7.27483 30.1354 7.2727 30.3605C7.26949 30.6821 7.21289 30.7198 7.00971 30.5363C6.80813 30.3541 6.74993 30.3972 6.74673 30.731C6.74459 30.9666 6.62258 31.1595 6.47573 31.1595C6.32889 31.1595 6.20447 31.3171 6.1994 31.51C6.19406 31.7029 6.01811 32.0358 5.80826 32.25C5.5984 32.4643 5.42059 32.8148 5.41311 33.029C5.40243 33.3384 5.34636 33.3705 5.14078 33.1848C4.94828 33.011 4.881 33.1009 4.87779 33.5354C4.87566 33.8568 4.75364 34.1196 4.6068 34.1196C4.45996 34.1196 4.33981 34.3165 4.33981 34.5572C4.33981 34.798 4.16333 35.1309 3.94787 35.2973C3.73214 35.4635 3.54364 35.8801 3.52869 36.2229C3.50707 36.716 3.4534 36.7809 3.27185 36.5345C3.10364 36.3062 3.03743 36.4441 3.02355 37.05C3.01207 37.5593 2.90233 37.8402 2.73787 37.7808C2.57661 37.7226 2.47088 37.9366 2.47088 38.3219C2.47088 38.6725 2.29066 39.2111 2.07039 39.5186C1.85013 39.8263 1.66804 40.4375 1.6659 40.8768C1.66296 41.4502 1.58874 41.6097 1.40292 41.4421C1.2243 41.281 1.14153 41.6194 1.13593 42.5327C1.13085 43.3504 1.03847 43.7747 0.8943 43.6419C0.511703 43.2895 0.244446 47.7442 0.41879 51.5665C0.519713 53.78 0.681242 55.0897 0.857188 55.124C1.01044 55.1538 1.13593 55.593 1.13593 56.0999C1.13593 56.6106 1.255 57.0218 1.40292 57.0218C1.54976 57.0218 1.67418 57.3198 1.67925 57.6839C1.68459 58.048 1.86054 58.5213 2.07039 58.7356C2.28025 58.9498 2.45619 59.3179 2.46153 59.5535C2.46661 59.7891 2.59102 59.9819 2.73787 59.9819C2.88471 59.9819 3.00486 60.2315 3.00486 60.5364C3.00486 60.8664 3.11299 61.0519 3.27185 60.9946C3.42216 60.9404 3.53884 61.065 3.53884 61.2793C3.53884 61.4886 3.71826 61.8608 3.93772 62.1064C4.15692 62.3518 4.33714 62.6754 4.33821 62.8252C4.33901 62.9751 4.45996 63.0979 4.6068 63.0979C4.75364 63.0979 4.87379 63.2773 4.87379 63.4966C4.87379 63.7226 4.9894 63.8536 5.14078 63.799C5.28762 63.746 5.40777 63.8337 5.40777 63.9937C5.40777 64.1537 5.58425 64.4207 5.79971 64.5871C6.01544 64.7534 6.19566 65.0123 6.2002 65.1622C6.205 65.3121 6.32889 65.4348 6.47573 65.4348C6.62258 65.4348 6.74272 65.6143 6.74272 65.8335C6.74272 66.0596 6.85833 66.1906 7.00971 66.1359C7.1611 66.0812 7.2767 66.2123 7.2767 66.4383C7.2767 66.6575 7.39445 66.837 7.53862 66.837C7.68253 66.837 7.87583 67.0123 7.96794 67.2265C8.06005 67.4407 8.24267 67.616 8.3735 67.616C8.50459 67.616 8.61165 67.7604 8.61165 67.9368C8.61165 68.1131 8.7318 68.2142 8.87864 68.1613C9.02549 68.1083 9.14563 68.2007 9.14563 68.3668C9.14563 68.5327 9.32585 68.7556 9.54612 68.8624C9.76639 68.9691 9.9466 69.1529 9.9466 69.2709C9.9466 69.389 10.0668 69.4855 10.2136 69.4855C10.3604 69.4855 10.4806 69.6375 10.4806 69.8232C10.4806 70.0087 10.5575 70.1159 10.6512 70.0611C10.7452 70.0064 11.0581 70.2401 11.3467 70.5805C11.6353 70.9208 11.9789 71.1993 12.1106 71.1993C12.2419 71.1993 12.3495 71.3395 12.3495 71.5109C12.3495 71.6823 12.4411 71.8225 12.5532 71.8225C12.7572 71.8225 13.2394 72.2841 13.5705 72.7962C13.6674 72.9461 13.8529 73.0689 13.9827 73.0689C14.1122 73.0689 14.2184 73.2484 14.2184 73.4676C14.2184 73.6868 14.3258 73.8276 14.4569 73.7803C14.5882 73.7329 14.7706 73.8691 14.8624 74.0827C14.9545 74.2962 15.1476 74.4711 15.2915 74.4711C15.4357 74.4711 15.5534 74.6113 15.5534 74.7827C15.5534 74.954 15.6735 75.0942 15.8204 75.0942C15.9672 75.0942 16.0874 75.1994 16.0874 75.3279C16.0874 75.4565 16.2075 75.5616 16.3544 75.5616C16.5012 75.5616 16.6214 75.6933 16.6214 75.8542C16.6214 76.015 16.8016 76.2339 17.0218 76.3406C17.2421 76.4473 17.4223 76.6703 17.4223 76.8362C17.4223 77.0023 17.5425 77.0947 17.6893 77.0417C17.8423 76.9866 17.9563 77.1266 17.9563 77.3701C17.9563 77.6037 18.0316 77.7507 18.124 77.697C18.3122 77.587 19.2913 78.633 19.2913 78.9441C19.2913 79.0546 19.4114 79.145 19.5583 79.145C19.7051 79.145 19.8252 79.3319 19.8252 79.5605C19.8252 79.7889 19.9005 79.9319 19.9929 79.8781C20.1811 79.7682 21.1602 80.8142 21.1602 81.1253C21.1602 81.2358 21.2803 81.3261 21.4272 81.3261C21.574 81.3261 21.696 81.5891 21.6982 81.9104C21.7014 82.3449 21.7687 82.4348 21.9612 82.2609C22.1667 82.0752 22.2228 82.1073 22.2335 82.4167C22.241 82.6309 22.4188 82.9815 22.6286 83.1957C22.8385 83.4099 23.0144 83.743 23.0198 83.9357C23.0249 84.1284 23.1493 84.2863 23.2961 84.2863C23.443 84.2863 23.565 84.5493 23.5671 84.8705C23.5703 85.305 23.6376 85.3949 23.8301 85.2211C24.0266 85.0438 24.0899 85.1095 24.0931 85.4937L24.0971 86H176.549H329V46.0381C329 9.94785 328.96 6.07613 328.584 6.07613C328.355 6.07613 328.242 6.14624 328.333 6.23193C328.434 6.32806 327.974 6.38773 327.131 6.38773C326.38 6.38773 325.832 6.45129 325.914 6.52888C325.996 6.60647 325.463 6.71833 324.728 6.77722C323.994 6.83611 323.393 6.94782 323.393 7.02556C323.393 7.10315 322.763 7.1678 321.992 7.16905C320.988 7.17076 320.704 7.21439 320.99 7.32251C321.28 7.43172 321.04 7.47426 320.123 7.47597C319.425 7.47722 318.854 7.54842 318.854 7.6341C318.854 7.71979 318.464 7.79037 317.987 7.79084C317.51 7.79146 316.775 7.89662 316.354 8.02453C315.933 8.1526 315.032 8.25838 314.352 8.25963C313.454 8.26134 313.224 8.30356 313.515 8.41309C313.799 8.52012 313.464 8.56484 312.364 8.56655C311.511 8.5678 310.877 8.62949 310.956 8.7035C311.034 8.7775 310.471 8.88142 309.705 8.93423C308.939 8.9872 308.271 9.10202 308.221 9.18927C308.171 9.27652 307.6 9.34787 306.951 9.34787C306.302 9.34787 305.772 9.41798 305.772 9.50367C305.772 9.5906 305.035 9.66056 304.103 9.6618C302.927 9.66352 302.553 9.70885 302.835 9.81526C303.133 9.92744 302.976 9.96685 302.226 9.96872C301.67 9.96997 300.784 10.0762 300.257 10.2048C299.73 10.3333 298.826 10.4385 298.248 10.4385C297.615 10.4385 297.262 10.5005 297.362 10.5942C297.464 10.691 296.959 10.75 296.027 10.75C295.202 10.75 294.592 10.8113 294.671 10.8861C294.75 10.9608 294.1 11.0693 293.226 11.1269C292.352 11.1846 291.567 11.2988 291.48 11.3804C291.394 11.4622 290.789 11.529 290.137 11.529C289.485 11.529 288.951 11.5991 288.951 11.6848C288.951 11.7718 288.215 11.8417 287.283 11.843C286.107 11.8447 285.732 11.89 286.015 11.9964C286.316 12.1102 286.185 12.1497 285.481 12.1567C284.967 12.1617 284.066 12.2669 283.478 12.3904C282.891 12.5138 282.013 12.616 281.527 12.6173C281.007 12.6187 280.711 12.6836 280.808 12.7754C280.911 12.8728 280.361 12.9312 279.34 12.9312C278.441 12.9312 277.772 12.9934 277.853 13.0692C277.933 13.1453 277.341 13.2553 276.537 13.3138C275.734 13.3724 275.007 13.4855 274.923 13.5653C274.839 13.6449 274.169 13.7102 273.434 13.7102C272.612 13.7102 272.163 13.77 272.265 13.866C272.368 13.964 271.763 14.0218 270.634 14.0218C269.646 14.0218 268.929 14.0744 269.039 14.1386C269.274 14.2759 265.624 14.635 262.853 14.747C261.788 14.7902 260.917 14.8899 260.917 14.9689C260.917 15.0486 259.43 15.1124 257.564 15.1124C255.397 15.1124 254.27 15.1675 254.376 15.2682C254.485 15.371 251.086 15.424 244.38 15.424C237.784 15.424 234.218 15.3693 234.218 15.2682C234.218 15.1742 233.106 15.1124 231.415 15.1124C229.724 15.1124 228.612 15.0505 228.612 14.9566C228.612 14.8709 228.017 14.8008 227.29 14.8008C226.563 14.8008 225.276 14.6956 224.43 14.5671C223.584 14.4385 222.437 14.3334 221.881 14.3334C221.324 14.3334 220.869 14.2633 220.869 14.1776C220.869 14.0919 220.208 14.0218 219.4 14.0218C218.593 14.0218 217.932 13.9584 217.932 13.8811C217.932 13.8037 217.361 13.7055 216.664 13.6631C214.992 13.5616 212.859 13.2238 212.859 13.0608C212.859 12.9895 212.191 12.9312 211.375 12.9312C210.454 12.9312 209.953 12.8722 210.056 12.7754C210.155 12.6815 209.799 12.6196 209.159 12.6196C208.576 12.6196 208.055 12.545 208.003 12.4537C207.951 12.3625 207.403 12.2483 206.785 12.2C206.167 12.1516 205.726 12.051 205.805 11.9763C205.884 11.9017 205.401 11.8406 204.732 11.8406C204.062 11.8406 203.515 11.7705 203.515 11.6848C203.515 11.5991 203.32 11.529 203.083 11.529C202.487 11.529 199.93 11.0101 199.821 10.8669C199.772 10.8027 199.322 10.75 198.82 10.75C198.318 10.75 197.908 10.6799 197.908 10.5942C197.908 10.5086 197.555 10.4385 197.123 10.4385C196.691 10.4385 196.271 10.3763 196.191 10.3003C196.111 10.2244 195.623 10.116 195.107 10.0596C194.592 10.0032 194.17 9.89005 194.17 9.80825C194.17 9.72646 193.749 9.65947 193.235 9.65947C192.721 9.65947 192.301 9.58936 192.301 9.50367C192.301 9.41798 192.107 9.34787 191.869 9.34787C191.273 9.34787 188.717 8.82891 188.608 8.68573C188.559 8.62155 188.108 8.56889 187.606 8.56889C187.105 8.56889 186.694 8.49878 186.694 8.41309C186.694 8.3274 186.407 8.25729 186.057 8.25729C185.707 8.25729 185.076 8.1526 184.655 8.02453C184.235 7.89662 183.613 7.79146 183.274 7.79084C182.931 7.79037 182.731 7.72073 182.823 7.6341C182.924 7.5386 182.491 7.47737 181.704 7.47597C180.776 7.47426 180.531 7.43157 180.82 7.32251C181.114 7.21174 180.923 7.17092 180.102 7.16905C179.486 7.1678 178.915 7.10268 178.832 7.02447C178.749 6.94626 178.201 6.83486 177.614 6.77691C177.027 6.71911 176.614 6.60787 176.697 6.52966C176.779 6.4516 176.292 6.38773 175.614 6.38773C174.86 6.38773 174.445 6.32728 174.546 6.23193C174.644 6.13954 174.337 6.07613 173.791 6.07613C173.286 6.07613 172.528 5.97144 172.107 5.84337C171.686 5.71546 171.012 5.6103 170.608 5.60968C170.204 5.60921 169.874 5.53863 169.874 5.45294C169.874 5.36726 169.303 5.29606 168.606 5.29481C167.688 5.2931 167.448 5.25056 167.738 5.14135C168.028 5.03214 167.787 4.9896 166.87 4.98789C166.173 4.98664 165.602 4.92448 165.602 4.84985C165.602 4.77523 165.001 4.66757 164.267 4.61071C163.533 4.554 162.932 4.4398 162.932 4.35707C162.932 4.27434 162.271 4.20657 161.464 4.20657C160.656 4.20657 159.995 4.14378 159.995 4.06713C159.995 3.99048 159.545 3.88968 158.994 3.84325C156.824 3.66034 154.63 3.33831 154.816 3.23003C154.923 3.1674 154.27 3.11599 153.365 3.11599C152.459 3.11599 151.718 3.05258 151.718 2.9753C151.718 2.89787 151.148 2.79614 150.45 2.74924C147.574 2.55574 145.044 2.27796 145.044 2.15581C145.044 2.08414 144.323 2.02541 143.442 2.02541C142.561 2.02541 141.84 1.96153 141.84 1.88348C141.84 1.80542 141.149 1.70447 140.305 1.65913C137.393 1.50286 134.364 1.20171 134.364 1.0685C134.364 0.994966 133.403 0.934829 132.228 0.934829C131.053 0.934829 130.092 0.870329 130.092 0.79134C130.092 0.71235 129.221 0.611861 128.157 0.567927C127.092 0.523992 124.719 0.382216 122.883 0.253061C118.126 -0.0815916 87.2205 -0.0734901 84.0364 0.263343Z" fill="#FFD9D9"/>
</svg>
