<svg width="123" height="40" viewBox="0 0 123 40" fill="none" xmlns="http://www.w3.org/2000/svg">
<path fill-rule="evenodd" clip-rule="evenodd" d="M19.0606 0.0841275C14.6394 0.706868 8.89035 3.30542 5.94944 6.01044C3.3092 8.43873 1.45789 12.4689 0.525851 17.8174C-0.151396 21.7046 -0.173283 24.7855 0.453314 28.0363C0.983803 30.7884 1.05957 31.0448 1.67073 32.156C3.24382 35.0164 4.94781 36.3232 8.86832 37.676C13.2308 39.1811 17.2972 39.7626 22.4161 39.6131C25.5462 39.5217 27.653 39.2485 33.0411 38.2352C38.7535 37.161 39.6502 37.1624 45.4259 38.2537C53.913 39.8574 55.2303 39.9934 62.3325 39.9999C71.1449 40.0078 74.7963 39.4842 80.9949 37.3236C84.9718 35.9375 86.2337 35.6517 88.3589 35.6565C90.262 35.6606 91.5834 35.9196 94.7481 36.9085C96.7047 37.5199 98.8992 38.0437 100.393 38.2556C101.941 38.4755 106.551 38.3539 108.212 38.0496C112.324 37.2959 115.484 35.8858 117.852 33.7472C120.198 31.6283 122.225 27.6806 122.812 24.0871C123.146 22.0473 123.022 18.3395 122.546 16.1364C121.619 11.8389 119.858 8.07314 117.996 6.4087C116.491 5.06309 113.07 3.13502 110.943 2.43356C109.644 2.00502 106.587 1.29708 104.704 0.988805C103.744 0.831641 102.016 0.736442 99.2324 0.687715C95.1997 0.616879 95.1225 0.620963 90.5336 1.15287C86.4611 1.62478 85.5065 1.68985 82.6064 1.69308C78.5989 1.69773 77.0597 1.55197 70.1334 0.511962C67.2395 0.0773677 63.8401 -0.0962728 61.7317 0.0827192C60.6106 0.177919 58.0439 0.620259 54.8263 1.27271C47.5606 2.74619 47.0397 2.81675 43.3915 2.81985C39.7955 2.82295 36.9987 2.48609 31.7463 1.41734C26.0553 0.259458 24.7695 0.0684957 22.2758 0.0107563C21.0025 -0.0186767 19.5557 0.0144178 19.0606 0.0841275Z" fill="#FAF4ED"/>
</svg>
