<svg width="331" height="86" viewBox="0 0 331 86" fill="none" xmlns="http://www.w3.org/2000/svg">
<g clip-path="url(#clip0_48_226)">
<path fill-rule="evenodd" clip-rule="evenodd" d="M0.00118534 43.8569L-0.00177002 86H165.499H331V45.259C331 5.03487 330.993 4.51809 330.479 4.51809C330.192 4.51809 329.882 4.44798 329.791 4.3623C329.7 4.27661 329.088 4.2065 328.432 4.2065C327.776 4.2065 327.239 4.13639 327.239 4.0507C327.239 3.96501 326.695 3.8949 326.03 3.8949C325.365 3.8949 324.821 3.83196 324.821 3.75484C324.821 3.67788 323.974 3.56571 322.94 3.50541C321.906 3.44512 321.059 3.33294 321.059 3.25598C321.059 3.17886 320.213 3.11592 319.179 3.11592C318.144 3.11592 317.298 3.055 317.298 2.98069C317.298 2.90622 316.421 2.80277 315.35 2.75073C314.279 2.69869 312.798 2.58839 312.059 2.50582C311.32 2.42309 309.846 2.35127 308.784 2.34628C307.721 2.34114 306.777 2.26682 306.686 2.18114C306.588 2.08922 304.976 2.02534 302.758 2.02534C300.319 2.02534 299.055 1.9705 299.163 1.86954C299.272 1.76656 295.428 1.71452 287.827 1.71608C280.303 1.71764 276.465 1.77077 276.729 1.86954C276.999 1.97065 275.78 2.02129 273.035 2.023C270.781 2.02425 268.938 2.0847 268.938 2.15746C268.938 2.23006 267.43 2.33615 265.587 2.39333C263.743 2.45051 261.922 2.56627 261.539 2.65071C261.156 2.73515 260.004 2.80432 258.979 2.80432C257.916 2.80432 257.116 2.87116 257.116 2.96012C257.116 3.05095 256.221 3.11592 254.967 3.11592C253.785 3.11592 252.817 3.17575 252.817 3.24881C252.817 3.32204 251.926 3.42549 250.837 3.47893C249.747 3.53236 248.53 3.64781 248.132 3.73552C247.735 3.82308 246.866 3.8949 246.202 3.8949C245.465 3.8949 245.059 3.95567 245.16 4.0507C245.264 4.14807 244.716 4.2065 243.699 4.2065C242.803 4.2065 242.071 4.26757 242.071 4.3422C242.071 4.41683 241.349 4.52526 240.467 4.58306C239.585 4.64102 238.792 4.75522 238.705 4.83685C238.618 4.91865 237.919 4.98657 237.152 4.98782C236.152 4.98954 235.871 5.033 236.16 5.14128C236.446 5.24831 236.109 5.29303 235.002 5.29474C234.031 5.29614 233.504 5.35597 233.608 5.45288C233.707 5.54573 233.384 5.60867 232.809 5.60867C232.278 5.60867 231.41 5.71384 230.88 5.84237C230.349 5.9709 229.416 6.07715 228.806 6.0784C227.991 6.08027 227.804 6.12093 228.1 6.23186C228.391 6.34092 228.144 6.38361 227.211 6.38532C226.5 6.38657 225.983 6.44826 226.062 6.52227C226.141 6.59627 225.575 6.70019 224.804 6.753C224.033 6.80597 223.36 6.9208 223.31 7.00804C223.26 7.09529 222.738 7.16664 222.151 7.16664C221.507 7.16664 221.149 7.2285 221.249 7.32244C221.35 7.41779 220.933 7.47824 220.174 7.47824C219.415 7.47824 218.998 7.53869 219.1 7.63404C219.192 7.72066 218.99 7.7903 218.645 7.79077C218.304 7.79139 217.679 7.89655 217.255 8.02446C216.832 8.15253 216.046 8.25831 215.509 8.25956C214.779 8.26143 214.634 8.30022 214.935 8.41302C215.226 8.52208 214.98 8.56477 214.046 8.56648C213.254 8.56788 212.818 8.62911 212.92 8.72462C213.016 8.81498 212.755 8.88041 212.297 8.88041C211.863 8.88041 211.358 8.98558 211.174 9.11411C210.99 9.24264 210.424 9.3478 209.916 9.3478C209.369 9.3478 209.06 9.41121 209.159 9.5036C209.26 9.59817 208.87 9.66033 208.167 9.66173C207.321 9.6636 207.118 9.70473 207.412 9.8152C207.747 9.94046 207.724 9.96679 207.278 9.96959C206.983 9.97146 206.394 10.0777 205.971 10.2056C205.548 10.3337 204.913 10.4384 204.561 10.4384C204.208 10.4384 203.92 10.5085 203.92 10.5942C203.92 10.6799 203.489 10.75 202.964 10.75C202.395 10.75 202.075 10.8131 202.173 10.9058C202.265 10.9915 202.121 11.062 201.853 11.0625C201.586 11.0631 201.021 11.1683 200.598 11.2962C200.175 11.4243 199.533 11.529 199.172 11.529C198.802 11.529 198.587 11.597 198.681 11.6848C198.78 11.7776 198.454 11.8406 197.875 11.8406C197.34 11.8406 196.968 11.9019 197.048 11.9769C197.128 12.0518 196.712 12.1579 196.124 12.2124C195.535 12.267 195.054 12.3809 195.054 12.4656C195.054 12.5502 194.684 12.6195 194.232 12.6195C193.752 12.6195 193.479 12.6845 193.576 12.7753C193.675 12.8682 193.35 12.9311 192.77 12.9311C192.19 12.9311 191.865 12.9941 191.964 13.0869C192.055 13.1726 191.911 13.2432 191.644 13.2437C191.377 13.2443 190.812 13.3495 190.389 13.4774C189.965 13.6054 189.323 13.7101 188.962 13.7101C188.593 13.7101 188.378 13.7782 188.471 13.8659C188.572 13.9602 188.2 14.0217 187.531 14.0217C186.862 14.0217 186.49 14.0833 186.591 14.1775C186.682 14.2632 186.531 14.3333 186.255 14.3333C185.979 14.3333 185.518 14.4363 185.231 14.562C184.945 14.6879 184.378 14.7931 183.971 14.7957C183.565 14.7985 183.232 14.8708 183.232 14.9565C183.232 15.0422 182.802 15.1123 182.276 15.1123C181.707 15.1123 181.387 15.1754 181.486 15.2681C181.577 15.3538 181.433 15.4244 181.166 15.4248C180.899 15.4254 180.334 15.5306 179.91 15.6585C179.487 15.7866 178.845 15.8913 178.484 15.8913C178.115 15.8913 177.9 15.9594 177.993 16.0471C178.095 16.1426 177.659 16.2038 176.867 16.2052C175.934 16.2069 175.687 16.2496 175.978 16.3587C176.299 16.4789 176.245 16.5126 175.71 16.524C174.65 16.5466 174.051 16.6352 173.74 16.8153C173.582 16.9069 173.107 16.9819 172.685 16.9819C172.241 16.9819 171.987 17.0476 172.083 17.1377C172.185 17.2338 171.722 17.2935 170.873 17.2935C170.114 17.2935 169.566 17.357 169.65 17.4354C169.733 17.5136 169.318 17.6248 168.727 17.6826C168.136 17.7406 167.584 17.852 167.501 17.9302C167.417 18.0084 166.865 18.0724 166.274 18.0724C165.626 18.0724 165.266 18.1343 165.366 18.2282C165.469 18.3251 164.942 18.385 163.971 18.3864C162.98 18.3879 162.545 18.4383 162.78 18.5244C163.021 18.6131 162.484 18.6989 161.234 18.7717C160.18 18.833 159.251 18.9462 159.169 19.0231C159.088 19.1001 158.363 19.163 157.559 19.163C156.754 19.163 156.097 19.2331 156.097 19.3188C156.097 19.4118 155.062 19.4746 153.528 19.4746C151.885 19.4746 151.02 19.5307 151.126 19.6304C151.235 19.7326 149.231 19.7825 145.299 19.7753C141.701 19.7688 139.52 19.7108 139.842 19.6304C140.182 19.5458 139.118 19.4925 136.954 19.4855C135.07 19.4796 133.529 19.4104 133.529 19.3321C133.529 19.2537 132.773 19.1566 131.849 19.1163C129.43 19.0107 126.006 18.6547 126.006 18.5088C126.006 18.4401 125.341 18.384 124.528 18.384C123.715 18.384 123.05 18.3139 123.05 18.2282C123.05 18.1425 122.514 18.0724 121.857 18.0724C121.201 18.0724 120.596 18.0089 120.514 17.9313C120.431 17.8535 119.759 17.7418 119.02 17.6829C118.281 17.6241 117.744 17.5122 117.827 17.4346C117.91 17.357 117.359 17.2935 116.602 17.2935C115.754 17.2935 115.291 17.2338 115.393 17.1377C115.492 17.0453 115.182 16.9819 114.634 16.9819C114.125 16.9819 113.362 16.8772 112.939 16.7491C112.516 16.6212 111.83 16.516 111.415 16.5154C110.98 16.5149 110.73 16.4484 110.826 16.3587C110.926 16.2644 110.555 16.2029 109.886 16.2029C109.216 16.2029 108.845 16.1413 108.945 16.0471C109.04 15.9581 108.803 15.8913 108.393 15.8913C107.575 15.8913 104.961 15.406 104.826 15.2291C104.776 15.165 104.255 15.1123 103.668 15.1123C103.024 15.1123 102.666 15.0504 102.766 14.9565C102.865 14.8641 102.552 14.8007 101.998 14.8007C101.485 14.8007 101.022 14.7267 100.97 14.6365C100.877 14.4746 100.278 14.3687 99.3246 14.3453C99.0572 14.3386 98.9132 14.2632 99.0046 14.1775C99.1064 14.082 98.6706 14.0208 97.8786 14.0194C96.9452 14.0177 96.6986 13.975 96.9896 13.8659C97.3015 13.7491 97.2185 13.7143 96.6226 13.7125C95.7612 13.7098 93.143 13.229 93.0044 13.048C92.955 12.9838 92.5017 12.9311 91.9969 12.9311C91.4921 12.9311 91.0788 12.861 91.0788 12.7753C91.0788 12.6897 90.6557 12.6195 90.1385 12.6195C89.6213 12.6195 89.1982 12.5502 89.1982 12.4656C89.1982 12.3809 88.7167 12.267 88.1283 12.2124C87.5399 12.1579 87.124 12.0518 87.2038 11.9769C87.2839 11.9019 86.8513 11.8406 86.2428 11.8406C85.5735 11.8406 85.202 11.779 85.3025 11.6848C85.4013 11.5921 85.0813 11.529 84.5123 11.529C83.9865 11.529 83.5561 11.4596 83.5561 11.375C83.5561 11.2903 83.0747 11.1764 82.4863 11.1219C81.8979 11.0673 81.482 10.9612 81.5618 10.8863C81.6418 10.8114 81.1488 10.75 80.4664 10.75C79.7077 10.75 79.2902 10.6895 79.3917 10.5942C79.4887 10.5034 79.2155 10.4384 78.7359 10.4384C78.284 10.4384 77.9141 10.3726 77.9141 10.2921C77.9141 10.2117 77.3714 10.0987 76.7077 10.0409C76.0444 9.9833 75.5678 9.87377 75.6489 9.79775C75.7301 9.72172 75.2381 9.6594 74.5557 9.6594C73.797 9.6594 73.3795 9.59895 73.481 9.5036C73.5799 9.4109 73.2599 9.3478 72.6909 9.3478C72.1651 9.3478 71.7347 9.27847 71.7347 9.19388C71.7347 9.10912 71.2511 8.99508 70.66 8.94024C70.0689 8.8854 69.5853 8.77946 69.5853 8.70467C69.5853 8.62989 69.0945 8.56882 68.4948 8.56882C67.8363 8.56882 67.4701 8.50712 67.5703 8.41302C67.6687 8.32063 67.3594 8.25722 66.8108 8.25722C66.3019 8.25722 65.5392 8.15253 65.1158 8.02446C64.6926 7.89655 64.1349 7.79139 63.8761 7.79077C63.6174 7.7903 63.406 7.71972 63.406 7.63404C63.406 7.54835 62.8619 7.47824 62.1969 7.47824C61.532 7.47824 60.9879 7.40813 60.9879 7.32244C60.9879 7.23675 60.6994 7.16664 60.3469 7.16664C59.9944 7.16664 59.3598 7.06195 58.9364 6.93388C58.5132 6.80597 57.7738 6.70081 57.2937 6.70019C56.8136 6.69972 56.4206 6.62914 56.4206 6.54346C56.4206 6.45777 55.8765 6.38766 55.2116 6.38766C54.5466 6.38766 54.0025 6.31755 54.0025 6.23186C54.0025 6.14617 53.5794 6.07606 53.0622 6.07606C52.545 6.07606 52.1219 6.01406 52.1219 5.93818C52.1219 5.86247 51.4569 5.75216 50.6442 5.69327C49.8315 5.63438 49.1665 5.52112 49.1665 5.44166C49.1665 5.3622 48.5547 5.29708 47.8073 5.29708C46.9696 5.29708 46.5118 5.23725 46.6142 5.14128C46.7162 5.04547 46.2662 4.98548 45.4433 4.98548C44.6741 4.98548 44.0629 4.9093 44.0035 4.80616C43.9468 4.70754 43.2112 4.59365 42.3692 4.55315C41.5269 4.51264 40.8378 4.41807 40.8378 4.34298C40.8378 4.26788 40.1728 4.2065 39.3601 4.2065C38.5474 4.2065 37.8824 4.13639 37.8824 4.0507C37.8824 3.96501 37.4894 3.89413 37.0092 3.89319C36.5291 3.89226 35.5426 3.78709 34.8172 3.6595C34.0918 3.5319 32.9131 3.42751 32.1977 3.42751C31.4822 3.42751 30.897 3.3574 30.897 3.27172C30.897 3.18276 30.091 3.11592 29.0163 3.11592C27.9417 3.11592 27.1357 3.04908 27.1357 2.96012C27.1357 2.87443 26.4723 2.80432 25.6617 2.80432C24.8512 2.80432 23.6725 2.73484 23.0422 2.64993C22.4122 2.56486 21.3201 2.45534 20.6153 2.40611C19.9106 2.35703 19.4039 2.2514 19.4893 2.17117C19.5794 2.08672 18.9531 2.02534 18.0009 2.02534C16.9735 2.02534 16.4195 1.96692 16.5232 1.86954C16.6326 1.76703 13.84 1.71375 8.34658 1.71375H0.00387203L0.00118534 43.8569Z" fill="#493129"/>
</g>
<defs>
<clipPath id="clip0_48_226">
<rect width="331" height="86" fill="white"/>
</clipPath>
</defs>
</svg>
