<svg width="301" height="53" viewBox="0 0 301 53" fill="none" xmlns="http://www.w3.org/2000/svg">
<path fill-rule="evenodd" clip-rule="evenodd" d="M240.483 52.1135C242.112 51.6856 243.617 51.1614 250.25 48.7105C253.089 47.6617 259.182 47.8166 265.274 49.0926C269.326 49.9412 270.76 50.0964 274.707 50.1137C278.853 50.132 279.642 50.0445 281.942 49.3099C290.575 46.5538 297.364 38.4292 299.659 28.1058C300.351 24.997 300.446 19.6706 299.861 16.859C299.169 13.5311 297.737 10.3023 295.967 8.0783C293.358 4.79848 290.844 3.38232 287.011 3.03264C284.082 2.76547 282.464 3.12974 276.935 5.3002C270.795 7.71051 268.519 8.15654 262.817 8.06601C257.376 7.97957 253.487 7.37028 246.772 5.55102C238.898 3.4176 236.601 3.02682 231.741 2.99358C226.259 2.95655 224.642 3.2893 218.119 5.80052C207.938 9.71905 205.994 9.71388 196.879 5.74517C186.096 1.0507 183.097 0.260094 176.975 0.49682C172.118 0.685039 169.154 1.47729 160.65 4.86066C151.249 8.60055 148.986 9.28505 145.386 9.47704C141.573 9.6803 139.304 9.13206 132.441 6.3491C120.965 1.69481 117.086 1.30475 105.557 3.64432C100.505 4.66954 99.4562 4.77998 95.0261 4.7548C90.9825 4.73214 89.2785 4.56472 85.4595 3.8152C82.9037 3.31371 79.7364 2.80428 78.4209 2.68264C75.1766 2.3833 70.1052 2.92582 64.1418 4.21022C57.2414 5.69637 53.4616 6.22701 49.981 6.19854C46.1547 6.16725 43.8554 5.78719 36.5225 3.97491C29.2487 2.17709 26.8857 1.78253 23.2128 1.75249C16.1168 1.69445 10.2094 4.49978 5.83409 10.0058C2.12817 14.6689 0.506412 18.9224 0.246763 24.6575C0.0623476 28.7352 0.366115 30.9088 1.54771 33.9682C3.97008 40.2393 9.25022 44.9378 16.7323 47.481C18.9763 48.2436 19.7661 48.3467 23.5265 48.3693C28.2895 48.3975 30.029 47.9952 34.2766 45.8839C40.3114 42.8835 44.1588 41.9938 49.3501 42.3981C53.1492 42.6942 55.8068 43.4274 62.6407 46.0651C70.8785 49.2446 72.6732 49.7266 76.4401 49.7701C81.6818 49.8305 85.0617 48.8696 93.5176 44.9159C99.7016 42.0243 102.458 41.1107 105.629 40.9003C108.661 40.6991 110.867 41.3291 115.24 43.6442C121.92 47.182 124.3 47.9029 129.38 47.9272C133.369 47.9462 135.477 47.5361 142.699 45.336C149.308 43.3226 151.248 42.986 154.756 43.2423C158.225 43.496 160.079 44.1375 165.425 46.9324C172.324 50.539 173.511 50.895 178.823 50.9488C183.846 50.9996 183.886 50.9912 192.677 48.0166C198.845 45.9294 202.646 45.1662 206.704 45.1993C211.776 45.2408 214.774 45.9823 222.322 49.0629C229.752 52.0953 230.501 52.2988 234.794 52.4549C237.562 52.5556 239.167 52.4594 240.483 52.1135Z" fill="#FAF4ED"/>
</svg>
