<svg width="620" height="134" viewBox="0 0 620 134" fill="none" xmlns="http://www.w3.org/2000/svg">
<g filter="url(#filter0_d_15_40)">
<path fill-rule="evenodd" clip-rule="evenodd" d="M41.6936 0.353232C35.8952 1.03162 26.9011 4.03036 22.761 6.66676C18.9138 9.1155 15.3465 12.9741 15.6208 14.3901C15.9696 16.1907 17.9115 15.8833 24.4087 12.9994C27.9134 11.4433 31.1114 10.1704 31.5148 10.1704C32.4414 10.1704 32.4352 10.4266 31.3771 15.5315C30.8979 17.8451 30.1817 23.2104 29.7858 27.4542C29.3898 31.698 28.3838 39.3449 27.5509 44.4473C26.7174 49.5491 25.802 56.7046 25.5159 60.3478C25.2304 63.9916 24.8699 67.0983 24.7147 67.252C24.0767 67.8866 17.2729 65.6014 11.6116 62.8502C5.89504 60.0725 5.49971 59.9675 4.49492 60.9669C3.49014 61.9669 3.69432 62.2829 8.18016 66.6582C12.7821 71.147 20.1842 75.6019 23.0409 75.6019C23.6274 75.6019 24.23 75.8106 24.3802 76.0649C24.5298 76.3192 24.2635 83.0556 23.7875 91.0339C23.3121 99.0122 22.7169 109.012 22.4656 113.256C21.9095 122.646 22.0175 123.524 23.8744 124.735C25.5283 125.813 27.4169 125.192 28.4769 123.222C28.8077 122.608 29.3756 117.406 29.7386 111.662C30.5678 98.5635 32.2006 80.821 32.8026 78.3797C33.0533 77.3612 33.5436 76.5279 33.8918 76.5279C34.24 76.5279 37.4746 82.2593 41.0792 89.2642C50.9266 108.399 53.7622 112.226 60.4208 115.358C70.8708 120.276 81.8824 118.05 90.7505 109.23L94.8006 105.202L95.5646 108.37C96.8816 113.829 102.099 118.169 107.344 118.166C109.789 118.165 115.527 115.99 118.339 113.998L120.203 112.678L120.609 117.027C120.833 119.419 121.42 122.154 121.914 123.105C123.437 126.035 126.399 126.458 128.783 124.086C130.278 122.6 130.307 122.379 130.307 112.358C130.307 106.741 130.526 102.145 130.793 102.145C131.062 102.145 131.743 102.924 132.308 103.876C133.883 106.526 139.351 111.815 142.274 113.515C149.145 117.51 160.774 116.336 165.635 111.155C166.463 110.274 167.337 109.552 167.579 109.552C167.82 109.552 168.215 111.903 168.456 114.777C168.996 121.227 170.761 125.198 173.213 125.481C174.601 125.642 175.044 125.265 176.155 122.984C177.365 120.496 177.433 119.638 177.07 111.376L176.678 102.454L179.221 105.296C182.355 108.797 188.644 112.913 192.342 113.882C197.269 115.173 204.071 113.689 213.789 109.205C214.135 109.045 214.961 109.918 215.625 111.144C217.576 114.747 222.452 118.682 226.369 119.815C237.768 123.111 250.072 116.723 256.268 104.293C259.496 97.8184 259.663 89.1821 256.56 89.1821C256.048 89.1821 254.266 91.3351 252.6 93.966C247.683 101.731 244.985 105.136 241.972 107.383C235.897 111.911 227.75 111.394 224.616 106.281C223.95 105.195 223.404 104.12 223.402 103.894C223.401 103.668 225.564 101.96 228.21 100.099C237.987 93.2191 243.88 85.3654 243.88 79.2124C243.88 66.2107 227.802 68.789 219.167 83.1753C216.682 87.3148 214.156 94.3191 213.667 98.4227L213.31 101.423L207.651 104.037C200.957 107.131 195.201 107.933 191.897 106.234C189.032 104.76 183.059 99.6579 180.14 96.19L177.585 93.1549L184.128 87.9278C191.622 81.9408 199.022 74.3446 199.603 72.0433C200.146 69.889 199.134 68.5403 196.801 68.3094C195.01 68.1323 194.028 68.9279 185.382 77.5569L175.922 86.9981L175.526 81.1457C175.309 77.9266 175.095 67.7934 175.052 58.6268C174.995 46.5997 174.756 41.5306 174.192 40.4171C173.315 38.685 170.611 38.0325 169.582 39.3054C169.196 39.7831 168.52 50.1225 167.916 64.7996C166.81 91.6407 166.402 95.8437 164.394 101.062C161.939 107.442 157.707 110.045 150.913 109.353C145.582 108.81 140.735 105.17 133.802 96.5024L131.51 93.6382L138.624 88.0488C148.225 80.505 155.824 71.3248 154.757 68.5594C154.536 67.9853 153.657 67.5773 152.644 67.5773C151.236 67.5773 149.149 69.3242 141.58 76.8365C136.449 81.929 131.994 86.0957 131.68 86.0957C130.881 86.0957 130.339 78.7797 129.963 62.9477C129.635 49.1293 128.824 40.7257 127.685 39.3368C126.837 38.3029 124.427 38.3566 123.532 39.4294C123.043 40.0158 122.701 45.7213 122.471 57.1762C122.126 74.3458 120.683 90.0037 118.762 97.4271C116.81 104.969 111.092 110.623 106.79 109.265C104.891 108.665 104.627 105.869 105.094 91.3185C105.5 78.684 105.472 78.2254 104.211 76.631C101.466 73.1594 97.6635 75.1538 96.1685 80.8488C92.7675 93.8036 84.4692 105.679 76.7754 108.602C70.9968 110.796 63.4395 109.042 59.1616 104.514C58.0916 103.381 53.5834 96.4147 49.1435 89.0333L41.0717 75.6137L43.6424 74.9735C48.7774 73.6939 56.7306 70.6483 60.095 68.673C65.1052 65.731 71.2605 59.3367 73.9447 54.2867C80.6834 41.606 81.7819 25.2314 76.5997 14.6975C74.6317 10.6957 69.0635 5.53035 64.5969 3.56185C58.0513 0.677921 49.3458 -0.541822 41.6936 0.353232ZM331.698 1.81186C328.626 2.58531 318.292 5.08158 308.735 7.35934C299.177 9.6371 290.472 11.7716 289.39 12.1019C286.916 12.8574 285.969 13.9303 286.718 15.1296C287.514 16.4031 293.618 16.1111 305.07 14.2519C310.157 13.426 315.926 12.5544 317.889 12.3155L321.458 11.8803L321.445 17.0438C321.41 30.5783 319.596 61.0459 318.012 74.676C317.365 80.2433 315.191 91.8407 313.606 98.1777C311.042 108.425 308.734 111.143 302.007 111.834C297.819 112.263 293.267 110.376 289.377 106.595C286.066 103.379 284.132 97.7548 284.628 92.7907C284.985 89.2105 284.055 85.8438 282.82 86.2475C282.396 86.3858 281.394 87.45 280.593 88.6123C279.295 90.4969 279.166 91.2586 279.395 95.6635C279.751 102.528 281.879 107.071 287.051 112.011C292.348 117.07 296.669 118.982 302.873 119.015C313.273 119.068 318.251 113.574 323.189 96.5894C326.851 83.9877 328.299 75.4229 329.552 58.9354C330.559 45.6923 330.064 22.4722 328.64 16.1414C328.042 13.4834 327.671 11.192 327.816 11.0482C327.96 10.9044 331.075 10.2494 334.738 9.59266C342.452 8.20872 345.715 6.76058 346.58 4.33776C347.098 2.88778 346.972 2.46 345.736 1.46372C343.772 -0.117751 338.884 0.00385206 331.698 1.81186ZM53.0255 9.26673C58.513 10.6883 61.6385 12.2476 64.7844 15.1315C68.1941 18.2574 69.4905 21.9055 69.4769 28.3382C69.4477 42.3788 60.6088 56.1725 47.6044 62.4724C43.9986 64.2193 36.0429 66.96 34.577 66.96C34.1531 66.96 34.0724 65.4273 34.3405 62.4848C34.8407 57.0009 37.5634 36.5554 38.7941 29.0431C39.2906 26.0123 39.6965 20.1098 39.6965 15.9259V8.31859H44.5311C47.1898 8.31859 51.0128 8.74513 53.0255 9.26673ZM411.288 34.2122C407.626 36.522 404.5 40.772 402.411 46.2812C401.092 49.7596 400.538 53.0694 399.565 63.2564C396.294 97.5215 395.896 99.432 391.23 103.258C386.893 106.813 382.113 107.149 380.427 104.016C379.641 102.555 378.581 90.3105 378.555 82.392C378.533 75.3964 377.787 73.4415 375.141 73.4415C372.442 73.4415 371.942 75.0871 371.429 85.6728C370.85 97.6141 369.988 100.139 364.897 104.828C358.388 110.821 355.334 110.731 352.054 104.449C350.439 101.355 350.353 100.723 350.032 89.4907C349.659 76.4655 349.276 74.9847 346.276 74.9847C344.858 74.9847 344.207 75.431 343.351 76.9908C342.407 78.7081 342.248 80.6426 342.248 90.4166C342.248 100.621 342.391 102.212 343.59 105.363C346.36 112.645 351.092 116.96 356.309 116.96C359.533 116.96 365.369 113.775 369.17 109.942L372.507 106.576L374.457 109.144C378.336 114.252 384.066 115.41 390.657 112.417C392.705 111.487 395.707 109.431 397.328 107.847C400.119 105.123 400.276 105.052 400.276 106.516C400.276 107.367 401.184 109.579 402.293 111.431C404.632 115.337 408.311 117.577 412.388 117.577C415.322 117.577 421.081 114.96 422.03 113.195C422.897 111.584 423.612 111.722 424.803 113.728C425.361 114.667 426.779 116.062 427.953 116.828C434.574 121.145 442.262 117.815 448.832 107.783L451.412 103.845L452.536 107.133C454.6 113.171 459.125 116.315 465.752 116.315C471.998 116.315 477.411 112.924 481.647 106.358L483.666 103.228L485.122 106.51C488.31 113.694 491.893 116.342 498.424 116.342C503.262 116.342 506.667 114.792 510.63 110.783L513.539 107.841L513.329 111.828C513.094 116.292 514.113 118.194 516.739 118.194C518.105 118.194 520.673 116.283 520.679 115.262C520.68 115.007 521.097 112.254 521.604 109.143C523.939 94.8203 532.303 79.9229 538.008 79.9229C541.708 79.9229 543.915 84.9722 546.762 99.9468C547.763 105.218 548.612 107.864 550.064 110.252C553.092 115.231 554.583 116.042 560.603 115.99L565.671 115.947L567.552 118.448C568.702 119.979 570.854 121.674 573.095 122.813C576.536 124.563 577.175 124.674 583.628 124.64C591.338 124.601 594.559 123.678 602.061 119.36C611.383 113.992 618.894 103.523 614.6 101.883C613.562 101.488 611.956 102.302 602.909 107.813C594.576 112.889 589.622 114.706 583.98 114.757C580.137 114.792 578.919 114.548 576.998 113.36C575.718 112.568 574.67 111.704 574.67 111.439C574.67 111.174 576.695 109.415 579.17 107.529C595.532 95.0623 603.725 79.5352 597.064 73.6155C592.514 69.5724 584.582 72.3501 575.902 81.0284C568.008 88.9197 563.499 97.8264 563.499 105.528C563.499 108.533 563.368 108.834 561.895 109.202C557.928 110.192 556.776 108.315 553.523 95.5567C550.577 84.0043 548.623 79.4062 545.448 76.5538C539.993 71.6514 533.557 72.5612 527.486 79.0927C525.957 80.7377 524.264 82.7636 523.723 83.5951C522.783 85.0395 522.723 84.8099 522.359 78.4303C522.073 73.3964 521.719 71.4687 520.921 70.5915C519.705 69.2545 518.006 69.081 517.104 70.2008C516.761 70.6254 515.598 75.5032 514.517 81.0414C511.657 95.7116 509.019 102.315 504.511 106.087C501.995 108.192 499.755 108.755 496.478 108.103C495.059 107.821 494.298 107.045 493.069 104.633C491.066 100.702 489.058 89.474 488.594 79.6143C488.173 70.6637 487.361 68.1946 484.836 68.1946C482.836 68.1946 481.577 69.173 481.577 70.7285C481.577 71.6403 481.082 71.7365 477.869 71.4464C471.123 70.8384 464.732 73.8341 458.012 80.7525C453.678 85.2142 451.018 89.4302 448.612 95.6499C445.094 104.744 437.044 112.561 432.743 111.061C429.464 109.917 428.897 105.492 430.106 90.4926C430.685 83.3118 430.645 82.1118 429.782 80.8013C428.714 79.1809 426.293 78.7951 425.239 80.0772C424.891 80.5019 423.9 83.7679 423.039 87.3364C421.177 95.0474 418.238 103.299 416.473 105.764C415.774 106.739 414.351 107.889 413.309 108.318C411.665 108.995 411.254 108.952 410.185 107.989C408.166 106.173 407.027 101.173 406.658 92.5123C406.275 83.5179 407.143 75.597 408.964 71.4687C409.592 70.0446 411.945 66.6329 414.192 63.8872C420.63 56.02 423.288 49.925 423.321 42.9529C423.343 38.3967 422.007 35.2245 419.398 33.6431C416.589 31.9394 414.678 32.0733 411.288 34.2122ZM417.411 38.2726C419.494 41.4356 416.8 49.6713 411.348 56.8083C409.866 58.7472 407.956 61.2613 407.103 62.3959C406.25 63.5311 405.389 64.4662 405.19 64.4749C404.51 64.5051 405.302 57.3972 406.598 51.8367C408.143 45.2059 410.421 40.2492 412.862 38.2066C415.128 36.3103 416.128 36.3245 417.411 38.2726ZM99.4801 59.2181C93.0499 62.0002 96.4819 71.281 103.94 71.281C106.866 71.281 108.347 70.444 109.565 68.1014C111.405 64.5613 109.538 60.5786 105.287 58.9768C103.032 58.1268 101.892 58.1743 99.4801 59.2181ZM428.346 64.9039C427.249 65.3428 425.722 68.4495 425.722 70.2409C425.722 72.1446 427.948 74.9847 429.44 74.9847C432.264 74.9847 434.41 72.4538 434.41 69.123C434.41 66.2236 430.992 63.8453 428.346 64.9039ZM236.767 79.7686C236.036 82.7124 232.698 87.242 228.45 91.0549C226.194 93.0802 224.162 94.7376 223.935 94.7376C223.348 94.7376 224.912 89.8154 226.453 86.8105C228.055 83.6871 231.62 80.0686 234.193 78.955C236.94 77.7655 237.24 77.8606 236.767 79.7686ZM592.848 80.1976C592.62 83.3074 589.385 88.6481 584.779 93.5203C580.07 98.5017 573.645 103.8 573.041 103.2C572.296 102.458 573.637 97.5764 575.73 93.4147C578.323 88.2592 584.321 81.6537 588.283 79.5889C591.868 77.7211 593.02 77.8748 592.848 80.1976ZM480.021 81.6204C478.927 89.8173 477.607 95.4351 475.923 99.0585C471.665 108.221 464.86 111.567 460.104 106.836C457.304 104.051 457.064 99.9554 459.299 93.0999C462.313 83.8562 468.593 78.7853 477.116 78.7155L480.413 78.6883L480.021 81.6204Z" fill="url(#paint0_linear_15_40)"/>
</g>
<defs>
<filter id="filter0_d_15_40" x="0.25213" y="0.0646973" width="619.336" height="133.049" filterUnits="userSpaceOnUse" color-interpolation-filters="sRGB">
<feFlood flood-opacity="0" result="BackgroundImageFix"/>
<feColorMatrix in="SourceAlpha" type="matrix" values="0 0 0 0 0 0 0 0 0 0 0 0 0 0 0 0 0 0 127 0" result="hardAlpha"/>
<feOffset dy="3.74787"/>
<feGaussianBlur stdDeviation="1.87394"/>
<feComposite in2="hardAlpha" operator="out"/>
<feColorMatrix type="matrix" values="0 0 0 0 0 0 0 0 0 0 0 0 0 0 0 0 0 0 0.1 0"/>
<feBlend mode="normal" in2="BackgroundImageFix" result="effect1_dropShadow_15_40"/>
<feBlend mode="normal" in="SourceGraphic" in2="effect1_dropShadow_15_40" result="shape"/>
</filter>
<linearGradient id="paint0_linear_15_40" x1="4" y1="62.8415" x2="615.84" y2="62.8415" gradientUnits="userSpaceOnUse">
<stop stop-color="#4D0011"/>
<stop offset="0.25" stop-color="#C77D86"/>
<stop offset="0.5" stop-color="#102B1F"/>
<stop offset="0.75" stop-color="#FFD9D9"/>
<stop offset="1" stop-color="#493129"/>
</linearGradient>
</defs>
</svg>
