<svg width="1323" height="567" viewBox="0 0 1323 567" fill="none" preserveAspectRatio="none"  xmlns="http://www.w3.org/2000/svg">
<path fill-rule="evenodd" clip-rule="evenodd" d="M27.1659 0.865628C27.3121 1.34156 27.5877 2.00235 27.7777 2.33426C27.968 2.66587 28.2231 3.84223 28.3444 4.94809C28.466 6.05395 28.6757 6.95891 28.8106 6.95891C28.9455 6.95891 29.1478 7.53741 29.26 8.2448C29.3725 8.95188 29.6189 10.4157 29.8082 11.4973C29.9973 12.579 30.2378 15.0978 30.3429 17.0947C30.4855 19.812 30.5893 20.4211 30.7556 19.5152C30.8895 18.7836 30.9806 19.9206 30.9852 22.3895C30.9897 24.8451 30.894 26.1123 30.7452 25.5664C30.5789 24.9568 30.4852 25.6708 30.4593 27.7422C30.4382 29.438 30.2751 30.9097 30.0968 31.0125C29.9185 31.1154 29.7726 32.2125 29.7726 33.4509C29.7726 34.7501 29.6354 35.7022 29.4484 35.7022C29.27 35.7022 29.1241 36.4511 29.1241 37.3663C29.1241 38.2816 29.01 39.0304 28.8703 39.0304C28.7309 39.0304 28.4491 40.3438 28.2449 41.9495C28.0403 43.5549 27.7355 44.9503 27.5676 45.0508C27.3999 45.1509 27.1795 45.7095 27.0777 46.2919C26.7032 48.4346 25.9384 51.1162 25.431 52.0654C25.144 52.6021 24.9093 53.4369 24.9093 53.9204C24.9093 54.4293 24.7728 54.7206 24.5851 54.6123C24.4068 54.5095 24.2609 54.6992 24.2609 55.0341C24.2609 55.369 24.0968 56.0238 23.8961 56.4891C23.6957 56.9545 23.4039 57.6416 23.2477 58.0161C22.6602 59.4255 22.2309 60.3776 21.9534 60.8862C21.7958 61.1752 21.6671 61.6178 21.6671 61.8696C21.6671 62.1216 21.553 62.3276 21.4136 62.3276C21.2742 62.3276 20.9584 62.9742 20.7116 63.7648C20.4649 64.5554 20.0369 65.529 19.7607 65.929C19.1541 66.8068 17.7813 69.7785 17.546 70.7237C17.4529 71.0983 17.2477 71.4045 17.0901 71.4045C16.9329 71.4045 16.8038 71.6045 16.8038 71.8493C16.8038 72.0937 16.512 72.7787 16.1554 73.3711C15.7987 73.9635 15.507 74.7166 15.507 75.0443C15.507 75.3723 15.3773 75.6403 15.2184 75.6403C15.0599 75.6403 14.7376 76.2491 14.5022 76.9928C14.2321 77.8466 13.9815 78.2091 13.823 77.9761C13.6612 77.7383 13.5697 77.8509 13.5665 78.292C13.5639 78.6687 13.393 79.2814 13.1868 79.6535C12.3974 81.0786 12.2648 81.3954 12.2648 81.8565C12.2648 82.1182 12.1189 82.2483 11.9405 82.1454C11.7622 82.0425 11.6163 82.2474 11.6163 82.6005C11.6163 82.9536 11.2007 84.0848 10.693 85.1144C9.24175 88.0556 8.04992 91.0256 8.04992 91.7C8.04992 92.0392 7.90402 92.2328 7.7257 92.1299C7.54738 92.0271 7.39921 92.1892 7.39662 92.4903C7.39111 93.1232 6.65448 95.197 6.3267 95.5029C6.20447 95.617 6.10461 96.0959 6.10461 96.5676C6.10461 97.039 5.9746 97.4248 5.81573 97.4248C5.65719 97.4248 5.44677 97.8674 5.34821 98.4081C5.03209 100.146 4.56068 101.821 4.47509 101.509C4.4297 101.343 4.27634 101.888 4.13433 102.72C3.99265 103.552 3.71901 104.913 3.52642 105.745C3.33384 106.577 3.08711 107.834 2.97784 108.538C2.86891 109.242 2.67405 109.757 2.54534 109.683C2.31741 109.551 2.06647 112.383 1.67222 119.528C1.47477 123.103 2.07879 133.035 2.52653 133.581C2.66303 133.747 2.86437 134.428 2.97395 135.094C3.08354 135.759 3.33384 136.917 3.53064 137.665C3.72711 138.414 3.96412 139.537 4.05749 140.16C4.15087 140.783 4.33989 141.228 4.478 141.148C4.61612 141.068 4.92283 141.818 5.15951 142.814C5.39619 143.81 5.70582 144.624 5.84718 144.624C5.98886 144.624 6.10461 144.871 6.10461 145.173C6.10461 145.474 6.39641 146.284 6.75305 146.973C7.10969 147.662 7.40148 148.369 7.40148 148.543C7.40148 148.717 7.54738 148.86 7.7257 148.86C7.90402 148.86 8.04992 149.139 8.04992 149.479C8.04992 149.82 8.41467 150.738 8.86047 151.519C9.30627 152.301 9.67101 153.111 9.67101 153.321C9.67101 153.53 9.78028 153.703 9.91418 153.706C10.0481 153.708 10.5221 154.423 10.9679 155.294C11.4137 156.165 11.8631 156.946 11.9665 157.029C12.0699 157.113 12.3611 157.623 12.613 158.164C12.8652 158.705 13.1817 159.147 13.3165 159.147C13.4514 159.147 13.5616 159.357 13.5616 159.614C13.5616 159.87 13.8534 160.373 14.2101 160.73C14.5667 161.087 14.8585 161.558 14.8585 161.776C14.8585 161.994 15.0044 162.173 15.1827 162.173C15.3611 162.173 15.5128 162.411 15.5202 162.702C15.5274 162.993 15.9651 163.703 16.4929 164.279C17.0204 164.855 17.4523 165.481 17.4523 165.67C17.4523 165.858 17.7311 166.248 18.0715 166.536C18.4123 166.823 18.7803 167.391 18.8895 167.797C18.9988 168.204 19.3402 168.81 19.6482 169.145C20.3359 169.893 21.9527 172.419 22.2056 173.141C22.3078 173.432 22.5201 173.67 22.6777 173.67C22.8349 173.67 22.964 173.88 22.964 174.137C22.964 174.393 23.2558 174.896 23.6124 175.253C23.9691 175.61 24.2609 176.157 24.2609 176.468C24.2609 176.779 24.3909 176.959 24.5494 176.868C24.7083 176.776 24.931 177.163 25.0445 177.727C25.158 178.291 25.4657 178.919 25.7283 179.123C25.9912 179.327 26.2062 179.688 26.2062 179.927C26.2062 180.165 26.6377 181.172 27.1652 182.164C27.6927 183.156 28.2199 184.444 28.3366 185.025C28.4537 185.606 28.6787 186.157 28.8366 186.248C28.9948 186.339 29.1241 186.738 29.1241 187.134C29.1241 187.531 29.2545 187.93 29.414 188.022C29.7113 188.193 29.9904 189.552 30.3036 192.354C30.4012 193.228 30.5938 193.878 30.7319 193.798C30.8697 193.719 31.0876 195.5 31.2157 197.757C31.4825 202.454 31.1246 212.058 30.7057 211.441C30.5394 211.196 30.4291 211.837 30.4259 213.061C30.4233 214.174 30.2751 215.17 30.0968 215.272C29.9185 215.375 29.7726 215.988 29.7726 216.634C29.7726 217.28 29.6559 217.876 29.5129 217.958C29.3702 218.041 29.2165 218.692 29.1715 219.405C29.1261 220.119 28.9607 220.777 28.8035 220.868C28.6466 220.958 28.4164 221.779 28.2922 222.691C28.1677 223.603 27.8795 224.69 27.6512 225.106C27.423 225.522 27.0005 226.679 26.7126 227.677C26.4247 228.676 26.0311 229.901 25.8379 230.4C25.6446 230.9 25.3227 231.853 25.1226 232.518C24.9223 233.184 24.682 233.797 24.589 233.88C24.3088 234.13 23.6124 236.154 23.6124 236.718C23.6124 237.007 23.4665 237.16 23.2882 237.057C23.0992 236.948 22.964 237.255 22.964 237.795C22.964 238.304 22.8499 238.721 22.7104 238.721C22.571 238.721 22.2633 239.334 22.0263 240.082C21.7893 240.831 21.4933 241.444 21.3685 241.444C21.2434 241.444 20.9542 242.125 20.7259 242.957C20.4973 243.789 20.178 244.47 20.0162 244.47C19.8541 244.47 19.7218 244.726 19.7218 245.04C19.7218 245.354 19.5039 246.001 19.2374 246.477C18.9712 246.954 18.7514 247.548 18.7491 247.798C18.7469 248.047 18.4551 248.66 18.1007 249.159C17.7463 249.659 17.4555 250.307 17.4545 250.601C17.4532 250.894 17.321 251.371 17.1608 251.66C16.9147 252.103 16.3392 253.27 15.186 255.664C15.066 255.914 14.7664 256.761 14.521 257.546C14.2406 258.442 13.9805 258.837 13.823 258.605C13.6612 258.368 13.5697 258.48 13.5665 258.922C13.56 259.841 12.8172 262.018 12.5102 262.018C12.375 262.018 12.2648 262.367 12.2648 262.792C12.2648 263.218 12.1318 263.49 11.9694 263.396C11.8066 263.303 11.5739 263.805 11.4519 264.513C11.3297 265.221 11.0473 266.072 10.8243 266.405C10.6015 266.738 10.1648 267.759 9.85387 268.674C9.54327 269.59 9.01026 270.916 8.6695 271.621C8.32875 272.327 8.04992 273.322 8.04992 273.833C8.04992 274.375 7.91505 274.684 7.7257 274.574C7.54738 274.472 7.40148 274.624 7.40148 274.913C7.40148 275.497 6.82956 277.312 6.38895 278.125C6.23268 278.414 6.10461 279.061 6.10461 279.562C6.10461 280.064 5.95871 280.474 5.78039 280.474C5.60207 280.474 5.45617 280.943 5.45617 281.516C5.45617 282.088 5.31027 282.641 5.13195 282.744C4.95363 282.846 4.80546 283.501 4.80287 284.199C4.79898 285.129 4.71404 285.346 4.48352 285.013C4.25591 284.684 4.16773 284.95 4.16416 285.978C4.16157 286.759 4.0134 287.482 3.83508 287.585C3.65676 287.687 3.51086 288.3 3.51086 288.946C3.51086 289.592 3.39998 290.184 3.26445 290.263C3.12893 290.341 2.97233 291.266 2.91624 292.319C2.86048 293.371 2.70064 294.303 2.56122 294.388C2.42181 294.474 2.22241 296.858 2.11834 299.687C1.92348 304.985 2.23182 311.022 2.8595 314.21C3.0563 315.208 3.29752 316.638 3.39544 317.387C3.49335 318.136 3.70539 318.878 3.86653 319.036C4.02766 319.194 4.1593 319.773 4.1593 320.322C4.1593 320.871 4.3052 321.32 4.48352 321.32C4.66184 321.32 4.80773 321.789 4.80773 322.361C4.80773 322.934 4.95363 323.487 5.13195 323.589C5.31027 323.692 5.45617 324.101 5.45617 324.497C5.45617 324.893 5.60207 325.302 5.78039 325.405C5.95871 325.508 6.10461 325.992 6.10461 326.482C6.10461 326.971 6.25051 327.371 6.42883 327.371C6.60715 327.371 6.75305 327.577 6.75305 327.829C6.75305 328.274 6.88857 328.595 7.67512 330.015C7.88133 330.387 8.05057 330.931 8.05122 331.225C8.05187 331.518 8.34366 332.204 8.69966 332.749C9.05565 333.294 9.3468 333.888 9.3468 334.07C9.3468 334.252 9.85744 335.418 10.4816 336.661C11.1057 337.905 11.6163 339.115 11.6163 339.35C11.6163 339.584 11.7256 339.778 11.8595 339.779C12.1506 339.782 12.9132 341.247 12.9132 341.803C12.9132 342.02 13.0591 342.197 13.2374 342.197C13.4157 342.197 13.5616 342.469 13.5616 342.802C13.5616 343.135 13.7075 343.407 13.8859 343.407C14.0642 343.407 14.2101 343.584 14.2101 343.801C14.2101 344.357 14.9726 345.823 15.2638 345.825C15.3977 345.826 15.507 346.16 15.507 346.566C15.507 346.973 15.6305 347.376 15.7812 347.463C15.932 347.55 16.7526 348.953 17.6046 350.582C18.457 352.21 19.5736 354.337 20.0865 355.309C20.5991 356.28 21.0187 357.267 21.0187 357.502C21.0187 357.738 21.1412 357.93 21.291 357.93C21.4408 357.93 21.7559 358.475 21.9913 359.14C22.2267 359.806 22.5418 360.351 22.6916 360.351C22.8414 360.351 22.964 360.699 22.964 361.125C22.964 361.564 23.1044 361.818 23.2882 361.712C23.4665 361.609 23.6124 361.797 23.6124 362.13C23.6124 362.463 23.7583 362.819 23.9366 362.922C24.115 363.025 24.2609 363.45 24.2609 363.866C24.2609 364.293 24.4019 364.541 24.5851 364.435C24.7653 364.331 24.9099 364.558 24.9106 364.947C24.9112 365.331 25.203 366.091 25.559 366.636C25.915 367.181 26.2062 367.78 26.2062 367.968C26.2062 368.156 26.6439 369.174 27.1788 370.231C27.7138 371.288 28.1563 372.322 28.1625 372.53C28.1687 372.737 28.4481 373.449 28.7837 374.111C29.1193 374.774 29.331 375.411 29.2538 375.528C29.1767 375.644 29.2619 375.825 29.4432 375.929C29.6244 376.034 29.7726 376.444 29.7726 376.84C29.7726 377.237 29.9185 377.645 30.0968 377.748C30.2751 377.851 30.421 378.343 30.421 378.843C30.421 379.342 30.5481 379.677 30.7031 379.587C30.8584 379.498 31.179 380.443 31.416 381.688C31.653 382.932 31.9491 383.95 32.0739 383.95C32.1987 383.95 32.3744 384.529 32.4642 385.236C32.5541 385.944 32.8718 387.607 33.1701 388.932C33.9621 392.448 33.5753 404.771 32.6562 405.301C32.4967 405.393 32.3663 406.072 32.3663 406.812C32.3663 407.551 32.2363 408.155 32.0774 408.155C31.9189 408.155 31.7069 408.598 31.6067 409.139C31.1845 411.417 30.98 412.089 30.7086 412.089C30.5504 412.089 30.421 412.317 30.421 412.597C30.421 413.165 29.8436 414.987 29.4085 415.791C29.2522 416.08 29.1241 416.59 29.1241 416.925C29.1241 417.261 28.9954 417.535 28.8385 417.535C28.6813 417.535 28.3788 418.18 28.1661 418.968C27.9534 419.756 27.6778 420.471 27.5539 420.556C27.4301 420.642 26.984 421.665 26.5625 422.83C26.141 423.994 25.5966 425.249 25.3528 425.618C25.1087 425.986 24.9093 426.633 24.9093 427.055C24.9093 427.477 24.7796 427.822 24.6207 427.822C24.4622 427.822 24.1386 428.434 23.9016 429.183C23.6646 429.932 23.3569 430.545 23.2175 430.545C23.0781 430.545 22.964 430.885 22.964 431.301C22.964 431.717 22.8181 432.058 22.6398 432.058C22.4614 432.058 22.3155 432.33 22.3155 432.663C22.3155 432.996 22.1696 433.268 21.9913 433.268C21.813 433.268 21.6671 433.685 21.6671 434.193C21.6671 434.702 21.5371 435.044 21.3786 434.953C21.2197 434.861 21.0002 435.227 20.8909 435.767C20.7817 436.306 20.3281 437.417 19.8829 438.236C19.4375 439.054 19.0721 439.871 19.0704 440.051C19.0688 440.231 18.7086 441.059 18.2699 441.891C17.8313 442.723 17.4678 443.576 17.4623 443.786C17.4568 443.996 17.3119 444.405 17.14 444.694C16.3395 446.04 15.507 447.957 15.507 448.453C15.507 448.754 15.3873 449.001 15.2414 449.001C15.0952 449.001 14.7765 449.683 14.5333 450.517C14.2477 451.496 13.9987 451.898 13.8311 451.652C13.6703 451.415 13.5697 451.644 13.5665 452.254C13.5639 452.794 13.4157 453.237 13.2374 453.237C13.0591 453.237 12.9132 453.511 12.9132 453.846C12.9132 454.411 12.3484 455.609 11.9166 455.96C11.8141 456.043 11.5398 456.758 11.307 457.548C11.0742 458.339 10.7568 458.986 10.6015 458.986C10.4465 458.986 10.3195 459.192 10.3195 459.444C10.3195 459.695 10.1826 460.138 10.015 460.427C9.21841 461.802 8.04992 464.565 8.04992 465.073C8.04992 465.386 7.90402 465.642 7.7257 465.642C7.54738 465.642 7.40148 465.908 7.40148 466.233C7.40148 466.98 6.73619 468.365 6.37663 468.365C6.22716 468.365 6.10461 468.842 6.10461 469.424C6.10461 470.006 5.99437 470.483 5.85918 470.483C5.57873 470.483 4.81033 472.626 4.80287 473.428C4.79866 473.884 4.75164 473.896 4.48352 473.509C4.24521 473.164 4.16805 473.293 4.16416 474.042C4.16157 474.585 4.03123 475.266 3.87496 475.555C3.43986 476.358 2.86242 478.18 2.86242 478.749C2.86242 479.029 2.72366 479.257 2.55441 479.257C2.38485 479.257 2.14622 480.083 2.02367 481.092C1.90144 482.102 1.60932 483.106 1.37458 483.325C1.13985 483.545 1.01178 483.783 1.08992 483.856C1.16805 483.929 1.0053 484.932 0.72809 486.086C0.413922 487.394 0.155196 490.486 0.0407465 494.304C-0.151191 500.702 0.338704 505.226 1.43132 507.139C1.68356 507.581 1.88977 508.173 1.88977 508.455C1.88977 508.737 2.12353 509.465 2.40916 510.073C2.6948 510.68 3.03945 511.45 3.17529 511.783C3.31114 512.115 3.73392 512.932 4.1152 513.598C4.49616 514.264 4.98605 515.182 5.20328 515.64C5.42051 516.098 5.71231 516.472 5.85139 516.472C5.99081 516.472 6.10461 516.682 6.10461 516.939C6.10461 517.195 6.39641 517.698 6.75305 518.055C7.10969 518.412 7.40148 518.891 7.40148 519.119C7.40148 519.347 7.54738 519.449 7.7257 519.347C7.90402 519.244 8.04992 519.372 8.04992 519.631C8.04992 519.891 8.34172 520.375 8.69836 520.708C9.055 521.041 9.3468 521.492 9.3468 521.711C9.3468 522.326 11.8378 526.755 12.0644 526.543C12.1746 526.44 12.2654 526.549 12.2664 526.784C12.267 527.021 12.7047 527.648 13.239 528.18C13.773 528.712 14.2101 529.291 14.2101 529.466C14.2101 529.642 14.356 529.785 14.5343 529.785C14.7126 529.785 14.8585 530.046 14.8585 530.365C14.8585 530.684 14.9765 530.99 15.1208 531.046C15.2651 531.101 16.0121 531.93 16.7808 532.886C17.5495 533.843 18.2972 534.626 18.4421 534.626C18.587 534.626 18.7923 534.881 18.898 535.192C19.1236 535.855 24.5552 541.061 27.3036 543.249C28.3489 544.081 29.3686 544.902 29.5696 545.074C29.7703 545.246 30.4453 545.719 31.0695 546.125C31.6936 546.531 32.4869 547.105 32.8329 547.401C33.1785 547.697 33.599 547.939 33.7673 547.939C33.9359 547.939 34.3094 548.178 34.5979 548.47C34.8862 548.763 35.5232 549.194 36.0138 549.429C36.504 549.664 36.9054 549.969 36.9054 550.108C36.9054 550.246 37.1119 550.359 37.3648 550.359C37.6174 550.359 37.8725 550.461 37.9322 550.586C37.9915 550.711 39.4625 551.493 41.2013 552.324C42.9397 553.154 44.3624 553.938 44.3624 554.063C44.3624 554.189 44.6542 554.292 45.0109 554.292C45.3675 554.292 45.6593 554.429 45.6593 554.595C45.6593 554.761 45.9423 554.898 46.2886 554.898C46.6349 554.898 47.008 555.034 47.1183 555.2C47.2285 555.367 47.6104 555.503 47.9671 555.503C48.3237 555.503 48.5254 555.639 48.4152 555.805C48.3049 555.972 48.5166 556.108 48.8859 556.108C49.523 556.108 52.4475 557.235 52.7921 557.614C52.8813 557.712 53.7567 557.978 54.7374 558.206C55.7182 558.434 56.7395 558.733 57.0069 558.871C57.9922 559.379 64.4996 561.251 65.2794 561.251C65.7226 561.251 66.0851 561.373 66.0851 561.521C66.0851 561.784 66.9592 561.967 70.0506 562.348C70.8945 562.452 71.506 562.656 71.4094 562.802C71.3131 562.948 71.9638 563.067 72.8554 563.067C73.747 563.067 74.5666 563.203 74.6769 563.369C74.7871 563.536 75.5895 563.672 76.4601 563.672C77.3306 563.672 78.133 563.808 78.2433 563.974C78.3535 564.141 79.5291 564.277 80.8562 564.277C82.1832 564.277 83.2687 564.393 83.2687 564.534C83.2687 564.952 91.2833 565.337 99.6417 565.32C108.379 565.303 117.369 564.911 117.135 564.558C117.05 564.43 118.04 564.255 119.335 564.17C120.629 564.086 122.637 563.864 123.796 563.678C124.955 563.491 126.67 563.265 127.606 563.175C128.542 563.085 129.308 562.887 129.308 562.736C129.308 562.585 129.855 562.453 130.524 562.442C131.975 562.419 135.326 561.787 135.662 561.473C135.793 561.351 136.399 561.251 137.009 561.251C137.619 561.251 139.163 560.989 140.44 560.669C144.957 559.538 146.814 559.133 147.54 559.124C147.944 559.119 148.546 558.922 148.878 558.687C149.21 558.453 150.268 558.169 151.229 558.057C152.189 557.945 152.976 557.733 152.976 557.586C152.976 557.438 153.415 557.318 153.953 557.318C154.49 557.318 155.183 557.199 155.493 557.053C156.439 556.607 158.331 556.108 159.078 556.108C159.466 556.108 159.784 555.972 159.784 555.805C159.784 555.639 160.213 555.503 160.738 555.503C161.262 555.503 161.781 555.367 161.892 555.2C162.002 555.034 162.513 554.898 163.026 554.898C163.54 554.898 164.051 554.761 164.161 554.595C164.271 554.429 164.72 554.292 165.158 554.292C165.595 554.292 166.207 554.173 166.516 554.027C167.449 553.587 169.351 553.082 170.074 553.082C170.448 553.082 170.802 552.98 170.862 552.855C170.921 552.73 171.918 552.387 173.077 552.091C174.236 551.796 175.987 551.341 176.968 551.081C177.949 550.82 179.298 550.537 179.967 550.451C180.636 550.365 181.183 550.19 181.183 550.061C181.183 549.774 183.741 549.149 184.912 549.149C185.378 549.149 185.68 549.028 185.582 548.88C185.415 548.627 186.063 548.445 188.562 548.042C189.143 547.948 189.699 547.751 189.797 547.603C189.895 547.455 190.477 547.333 191.091 547.333C191.704 547.333 192.206 547.197 192.206 547.031C192.206 546.865 192.781 546.728 193.484 546.728C194.187 546.728 194.852 546.592 194.962 546.426C195.072 546.259 195.51 546.123 195.935 546.123C196.359 546.123 196.797 545.987 196.907 545.821C197.018 545.654 197.462 545.518 197.895 545.518C198.328 545.518 200.107 545.158 201.847 544.719C203.589 544.279 205.888 543.769 206.958 543.584C208.028 543.4 209.083 543.14 209.302 543.008C209.772 542.724 213.824 541.892 215.793 541.676C216.551 541.592 217.171 541.419 217.171 541.291C217.171 541.07 217.917 540.933 222.034 540.394C223.015 540.266 223.672 540.121 223.493 540.072C223.315 540.023 223.971 539.873 224.952 539.739C225.933 539.604 227.611 539.344 228.681 539.16C230.897 538.78 234.096 538.427 239.704 537.943C243.905 537.581 254.132 537.826 254.132 538.289C254.132 538.438 255.144 538.559 256.382 538.559C257.62 538.559 258.723 538.695 258.833 538.862C258.943 539.028 259.681 539.164 260.473 539.164C261.265 539.164 261.913 539.301 261.913 539.467C261.913 539.633 262.724 539.769 263.716 539.769C264.707 539.769 265.437 539.891 265.339 540.04C265.24 540.189 265.705 540.389 266.373 540.483C269.274 540.892 270.019 541.062 270.019 541.315C270.019 541.464 270.573 541.585 271.251 541.585C271.928 541.585 272.621 541.71 272.791 541.863C272.96 542.016 273.966 542.288 275.025 542.469C276.085 542.649 277.033 542.912 277.133 543.053C277.232 543.195 278.055 543.401 278.962 543.511C279.868 543.62 281.838 544.114 283.339 544.608C284.839 545.102 286.477 545.509 286.978 545.512C287.479 545.515 287.809 545.639 287.711 545.787C287.544 546.039 288.189 546.221 290.685 546.624C291.263 546.718 291.656 546.915 291.557 547.064C291.459 547.212 291.889 547.333 292.514 547.333C293.138 547.333 293.738 547.47 293.849 547.636C293.959 547.802 294.397 547.939 294.821 547.939C295.246 547.939 295.684 548.075 295.794 548.241C295.904 548.408 296.423 548.544 296.948 548.544C297.473 548.544 297.901 548.661 297.901 548.805C297.901 548.949 298.813 549.24 299.928 549.453C301.042 549.666 302.093 549.957 302.262 550.1C302.431 550.242 302.897 550.359 303.297 550.359C303.697 550.359 304.113 550.495 304.224 550.662C304.334 550.828 304.744 550.966 305.134 550.968C305.525 550.97 306.981 551.311 308.37 551.725C309.759 552.138 311.4 552.477 312.017 552.477C312.635 552.477 313.14 552.613 313.14 552.78C313.14 552.946 313.496 553.082 313.931 553.082C314.367 553.082 314.813 553.218 314.923 553.385C315.033 553.551 315.617 553.687 316.22 553.687C316.823 553.687 317.406 553.823 317.517 553.99C317.627 554.156 318.219 554.292 318.833 554.292C319.446 554.292 319.948 554.414 319.948 554.563C319.948 554.712 320.532 554.916 321.245 555.017C321.958 555.118 323.126 555.282 323.839 555.383C324.552 555.484 325.136 555.674 325.136 555.805C325.136 555.937 325.683 556.113 326.352 556.196C327.021 556.28 328.151 556.514 328.864 556.715C329.578 556.917 330.781 557.149 331.539 557.231C332.297 557.312 332.917 557.501 332.917 557.651C332.917 557.801 333.481 557.923 334.17 557.923C335.926 557.923 338.894 558.482 339.023 558.837C339.083 559 339.606 559.133 340.186 559.133C340.766 559.133 343.269 559.61 345.747 560.192C348.225 560.775 350.729 561.251 351.311 561.251C351.894 561.251 352.37 561.36 352.37 561.492C352.37 561.759 356.368 562.462 357.888 562.462C358.42 562.462 358.855 562.598 358.855 562.764C358.855 562.935 359.767 563.067 360.943 563.067C362.092 563.067 363.121 563.203 363.232 563.369C363.342 563.536 364.561 563.672 365.942 563.672C367.322 563.672 368.601 563.812 368.784 563.982C369.232 564.4 390.199 564.152 393.87 563.685C395.386 563.493 398.085 563.26 399.868 563.168C402.017 563.058 402.892 562.917 402.462 562.753C402.026 562.586 402.529 562.497 403.996 562.483C406.541 562.458 410.73 561.842 410.73 561.492C410.73 561.36 411.251 561.251 411.888 561.251C412.97 561.251 416.26 560.61 420.478 559.576C421.47 559.332 422.662 559.133 423.125 559.133C423.589 559.133 424.017 559.005 424.077 558.847C424.169 558.602 425.624 558.226 429.534 557.436C429.98 557.346 430.637 557.157 430.993 557.016C431.624 556.766 432.195 556.635 434.884 556.126C435.597 555.991 436.035 555.847 435.857 555.805C435.553 555.734 437.07 555.401 439.504 555.003C440.084 554.909 440.558 554.725 440.558 554.595C440.558 554.465 441.032 554.288 441.611 554.202C442.191 554.116 443.249 553.886 443.962 553.691C444.675 553.495 445.66 553.262 446.15 553.174C446.641 553.086 447.042 552.893 447.042 552.745C447.042 552.598 447.478 552.477 448.011 552.477C448.544 552.477 449.733 552.21 450.654 551.884C451.575 551.557 452.964 551.201 453.742 551.092C454.519 550.984 455.235 550.774 455.333 550.627C455.43 550.48 455.837 550.359 456.237 550.359C456.636 550.359 457.102 550.23 457.271 550.072C457.44 549.914 458.564 549.611 459.768 549.398C460.971 549.185 461.956 548.906 461.956 548.777C461.956 548.649 462.467 548.544 463.091 548.544C463.715 548.544 464.226 548.408 464.226 548.241C464.226 548.075 464.655 547.939 465.179 547.939C465.704 547.939 466.223 547.802 466.333 547.636C466.443 547.47 467.035 547.333 467.649 547.333C468.263 547.333 468.765 547.197 468.765 547.031C468.765 546.865 469.267 546.728 469.88 546.728C470.494 546.728 471.086 546.592 471.196 546.426C471.307 546.259 471.899 546.123 472.512 546.123C473.126 546.123 473.628 545.987 473.628 545.821C473.628 545.654 474.05 545.518 474.566 545.518C475.081 545.518 477.368 545.102 479.646 544.594C481.924 544.086 484.749 543.591 485.922 543.494C487.096 543.397 488.22 543.197 488.422 543.049C488.623 542.902 490.447 542.636 492.475 542.459C494.502 542.282 496.414 542.013 496.724 541.861C497.034 541.709 498.229 541.585 499.38 541.585C500.531 541.585 501.549 541.47 501.642 541.329C501.994 540.798 508.916 540.526 522.099 540.526C535.444 540.526 543.011 540.816 543.011 541.328C543.011 541.469 544.105 541.585 545.442 541.585C546.847 541.585 547.874 541.713 547.874 541.887C547.874 542.054 548.421 542.191 549.09 542.192C550.812 542.194 554.113 542.731 554.334 543.044C554.437 543.189 555.461 543.397 556.609 543.507C557.758 543.616 559.144 543.841 559.689 544.007C563.196 545.074 564.935 545.518 565.598 545.518C566.014 545.518 566.355 545.654 566.355 545.821C566.355 545.987 566.874 546.123 567.508 546.123C568.195 546.123 568.581 546.246 568.462 546.426C568.342 546.606 568.735 546.728 569.435 546.728C570.134 546.728 570.527 546.851 570.407 547.031C570.29 547.207 570.62 547.333 571.199 547.333C571.744 547.333 572.19 547.47 572.19 547.636C572.19 547.802 572.555 547.939 573.001 547.939C573.447 547.939 573.812 548.075 573.812 548.241C573.812 548.408 574.331 548.544 574.966 548.544C575.652 548.544 576.038 548.666 575.919 548.846C575.809 549.013 575.972 549.149 576.282 549.149C577.087 549.149 578.999 549.831 578.999 550.117C578.999 550.25 579.224 550.359 579.499 550.359C580.156 550.359 584.045 551.536 585.124 552.061C585.589 552.288 586.359 552.474 586.834 552.475C587.31 552.476 587.747 552.605 587.807 552.762C587.866 552.919 588.645 553.208 589.536 553.403C590.428 553.599 591.411 553.879 591.72 554.026C592.03 554.172 592.65 554.292 593.098 554.292C593.546 554.292 593.913 554.429 593.913 554.595C593.913 554.761 594.269 554.898 594.705 554.898C595.14 554.898 595.586 555.034 595.696 555.2C595.807 555.367 596.48 555.503 597.194 555.503C597.907 555.503 598.41 555.624 598.312 555.773C598.214 555.921 598.606 556.119 599.184 556.212C601.68 556.615 602.326 556.797 602.158 557.049C602.06 557.197 602.573 557.318 603.296 557.318C604.02 557.318 604.612 557.437 604.612 557.582C604.612 557.726 605.306 557.932 606.152 558.038C606.999 558.143 608.11 558.433 608.621 558.682C609.132 558.93 609.827 559.133 610.166 559.133C610.87 559.133 613.873 559.825 616.858 560.673C617.977 560.991 619.399 561.251 620.02 561.251C620.64 561.251 621.148 561.37 621.148 561.514C621.148 561.776 622.313 562.016 625.687 562.447C626.667 562.573 627.251 562.715 626.983 562.764C626.537 562.846 627.609 563.03 631.523 563.543C632.325 563.648 633.12 563.856 633.289 564.005C633.459 564.155 634.371 564.277 635.316 564.277C636.261 564.277 637.034 564.398 637.034 564.545C637.034 564.817 639.17 565.043 644.897 565.374C646.635 565.475 648.058 565.684 648.058 565.838C648.058 566.202 665.384 565.943 669.294 565.52C670.899 565.347 673.413 565.115 674.881 565.005C676.349 564.896 677.471 564.688 677.375 564.542C677.278 564.396 677.981 564.277 678.937 564.277C679.892 564.277 680.813 564.154 680.982 564.004C681.151 563.853 681.947 563.657 682.749 563.567C683.552 563.478 685.044 563.312 686.067 563.198C687.089 563.085 687.847 562.873 687.75 562.727C687.653 562.581 688.276 562.456 689.133 562.448C690.719 562.435 693.552 561.861 693.973 561.468C694.101 561.349 694.728 561.247 695.367 561.24C696.005 561.235 697.404 561.021 698.474 560.766C701.523 560.038 704.502 559.44 706.093 559.234C706.895 559.131 707.64 558.92 707.747 558.766C707.855 558.611 708.986 558.334 710.26 558.15C711.534 557.966 712.577 557.704 712.577 557.567C712.577 557.43 713.088 557.318 713.712 557.318C714.336 557.318 714.847 557.197 714.847 557.048C714.847 556.794 715.314 556.693 718.65 556.223C719.404 556.117 719.942 555.912 719.846 555.766C719.75 555.621 720.264 555.503 720.988 555.503C721.711 555.503 722.304 555.367 722.304 555.2C722.304 555.034 722.814 554.898 723.439 554.898C724.063 554.898 724.573 554.761 724.573 554.595C724.573 554.429 725.004 554.292 725.531 554.292C726.057 554.292 726.823 554.171 727.233 554.021C727.642 553.872 728.634 553.576 729.437 553.364C730.239 553.151 731.034 552.864 731.204 552.727C731.373 552.59 731.779 552.477 732.106 552.477C732.432 552.477 733.606 552.207 734.715 551.876C735.824 551.546 737.534 551.051 738.515 550.777C739.495 550.503 740.779 550.083 741.368 549.844C741.957 549.604 742.942 549.332 743.557 549.239C744.172 549.146 744.675 548.951 744.675 548.807C744.675 548.662 745.112 548.544 745.647 548.544C746.182 548.544 746.62 548.408 746.62 548.241C746.62 548.075 746.976 547.939 747.412 547.939C747.847 547.939 748.293 547.802 748.403 547.636C748.514 547.47 748.887 547.333 749.233 547.333C749.579 547.333 749.862 547.197 749.862 547.031C749.862 546.865 750.147 546.728 750.495 546.728C750.844 546.728 751.537 546.575 752.036 546.388C752.534 546.201 753.234 545.949 753.591 545.828C754.879 545.392 756.549 544.829 758.616 544.134C759.775 543.745 760.961 543.42 761.251 543.413C761.542 543.406 761.948 543.211 762.153 542.979C762.359 542.748 763.176 542.468 763.969 542.357C764.761 542.246 765.495 542.027 765.599 541.87C765.702 541.713 766.216 541.585 766.741 541.585C767.265 541.585 767.694 541.466 767.694 541.32C767.694 541.174 768.57 540.874 769.64 540.653C770.71 540.431 771.585 540.142 771.585 540.01C771.585 539.878 772.014 539.769 772.539 539.769C773.063 539.769 773.582 539.633 773.692 539.467C773.803 539.301 774.313 539.164 774.827 539.164C775.341 539.164 775.852 539.028 775.962 538.862C776.072 538.695 776.737 538.559 777.44 538.559C778.143 538.559 778.718 538.449 778.718 538.315C778.718 538.181 780.067 537.898 781.717 537.685C783.366 537.473 785.066 537.14 785.495 536.946C786.521 536.48 806.86 536.469 807.189 536.934C807.417 537.256 812.077 537.955 813.996 537.954C814.586 537.954 814.987 538.078 814.887 538.229C814.787 538.38 815.471 538.578 816.408 538.669C819.41 538.961 820.866 539.221 821.049 539.499C821.148 539.648 821.885 539.769 822.688 539.769C823.578 539.769 824.069 539.887 823.946 540.072C823.833 540.244 824.104 540.375 824.571 540.375C825.706 540.375 828.323 541.051 828.323 541.345C828.323 541.477 828.898 541.585 829.601 541.585C830.304 541.585 830.957 541.703 831.052 541.847C831.148 541.991 832.1 542.269 833.168 542.465C834.237 542.661 835.19 542.94 835.285 543.085C835.381 543.229 836.079 543.435 836.836 543.542C837.593 543.65 838.504 543.851 838.86 543.99C841.466 545.007 843.109 545.518 843.767 545.518C844.189 545.518 844.534 545.654 844.534 545.821C844.534 545.987 844.89 546.123 845.326 546.123C845.761 546.123 846.207 546.259 846.317 546.426C846.428 546.592 846.955 546.728 847.49 546.728C848.056 546.728 848.379 546.855 848.263 547.031C848.146 547.207 848.469 547.333 849.035 547.333C849.57 547.333 850.098 547.47 850.208 547.636C850.318 547.802 850.691 547.939 851.038 547.939C851.384 547.939 851.667 548.075 851.667 548.241C851.667 548.408 852.032 548.544 852.478 548.544C852.923 548.544 853.288 548.662 853.288 548.808C853.288 548.953 853.861 549.157 854.562 549.262C855.263 549.366 856.055 549.656 856.322 549.905C856.589 550.155 857.102 550.359 857.461 550.359C857.819 550.359 858.196 550.485 858.298 550.638C858.4 550.792 858.934 551.01 859.486 551.123C860.037 551.236 861.166 551.596 861.995 551.922C862.823 552.249 863.866 552.66 864.312 552.834C864.757 553.01 865.375 553.273 865.685 553.42C865.995 553.567 866.469 553.687 866.739 553.687C867.009 553.687 867.229 553.823 867.229 553.99C867.229 554.156 867.594 554.292 868.04 554.292C868.486 554.292 868.851 554.429 868.851 554.595C868.851 554.761 869.096 554.898 869.395 554.898C870.184 554.898 872.093 555.583 872.093 555.866C872.093 555.999 872.355 556.108 872.677 556.108C873.401 556.108 875.005 556.784 875.008 557.091C875.009 557.216 875.521 557.318 876.146 557.318C876.77 557.318 877.28 557.426 877.28 557.558C877.28 557.69 877.937 557.962 878.739 558.162C879.542 558.362 880.198 558.663 880.198 558.83C880.198 558.997 880.554 559.133 880.989 559.133C881.425 559.133 882.847 559.476 884.15 559.894C888.007 561.131 888.47 561.251 889.38 561.251C889.858 561.251 890.249 561.357 890.249 561.485C890.249 561.768 893.319 562.462 894.573 562.462C895.092 562.462 895.39 562.59 895.274 562.764C895.155 562.944 895.535 563.067 896.209 563.067C896.833 563.067 897.434 563.203 897.544 563.369C897.654 563.536 898.246 563.672 898.86 563.672C899.474 563.672 899.976 563.808 899.976 563.974C899.976 564.141 900.787 564.277 901.778 564.277C902.769 564.277 903.501 564.397 903.403 564.544C903.238 564.795 903.929 564.888 909.378 565.347C910.537 565.445 911.777 565.657 912.134 565.818C912.98 566.202 929.018 565.992 935.64 565.511C938.404 565.31 942.416 565.04 944.556 564.911C946.695 564.781 948.154 564.63 947.798 564.574C947.441 564.519 948.463 564.369 950.067 564.242C951.672 564.115 954.153 563.856 955.579 563.668C957.006 563.479 959.194 563.22 960.442 563.093C961.691 562.966 962.493 562.818 962.226 562.764C961.958 562.71 962.761 562.567 964.009 562.446C968.892 561.971 970.356 561.761 970.521 561.511C970.616 561.368 971.524 561.245 972.539 561.238C973.554 561.231 975.04 561.096 975.843 560.938C976.645 560.78 979.417 560.294 982.003 559.858C984.589 559.422 987.142 558.887 987.677 558.668C988.212 558.45 989.561 558.175 990.676 558.058C991.79 557.941 992.702 557.726 992.702 557.582C992.702 557.437 993.131 557.318 993.656 557.318C994.18 557.318 994.689 557.197 994.787 557.049C994.885 556.901 995.478 556.697 996.104 556.595C996.729 556.494 997.751 556.327 998.373 556.226C998.996 556.125 999.425 555.921 999.327 555.773C999.229 555.624 999.741 555.503 1000.46 555.503C1001.19 555.503 1001.78 555.367 1001.78 555.2C1001.78 555.034 1002.22 554.898 1002.75 554.898C1003.29 554.898 1003.73 554.761 1003.73 554.595C1003.73 554.429 1004.04 554.292 1004.42 554.292C1005.28 554.292 1009.03 553.051 1009.18 552.719C1009.24 552.586 1009.63 552.477 1010.04 552.477C1010.45 552.477 1011.75 552.137 1012.93 551.721C1014.12 551.305 1015.38 550.964 1015.73 550.964C1016.08 550.964 1016.37 550.828 1016.37 550.662C1016.37 550.495 1016.72 550.359 1017.15 550.359C1017.58 550.359 1017.99 550.228 1018.05 550.068C1018.1 549.909 1018.92 549.595 1019.86 549.37C1020.81 549.146 1021.47 548.869 1021.35 548.753C1021.23 548.638 1021.59 548.544 1022.15 548.544C1022.72 548.544 1023.18 548.408 1023.18 548.241C1023.18 548.075 1023.4 547.939 1023.67 547.939C1023.94 547.939 1024.41 547.818 1024.72 547.671C1025.59 547.258 1026.79 546.805 1028.12 546.385C1028.79 546.174 1029.34 545.893 1029.34 545.76C1029.34 545.627 1029.64 545.518 1030.01 545.518C1030.37 545.518 1031.66 545.126 1032.87 544.646C1034.08 544.166 1035.53 543.679 1036.09 543.563C1036.66 543.447 1037.12 543.244 1037.12 543.113C1037.12 542.982 1037.81 542.709 1038.66 542.509C1039.51 542.308 1040.45 542.018 1040.76 541.864C1041.07 541.711 1041.7 541.585 1042.16 541.585C1042.63 541.585 1042.91 541.454 1042.79 541.282C1042.68 541.116 1042.89 540.98 1043.24 540.98C1043.6 540.98 1043.98 540.844 1044.09 540.677C1044.2 540.511 1044.72 540.375 1045.24 540.375C1045.77 540.375 1046.2 540.238 1046.2 540.072C1046.2 539.906 1046.71 539.769 1047.33 539.769C1047.96 539.769 1048.47 539.633 1048.47 539.467C1048.47 539.301 1048.71 539.164 1049.01 539.164C1049.52 539.164 1050.97 538.786 1052.52 538.252C1052.88 538.129 1053.97 537.866 1054.95 537.668C1055.93 537.469 1057.03 537.195 1057.38 537.058C1058.11 536.777 1061.06 536.35 1066.79 535.693C1072.95 534.986 1083.12 535.25 1094.34 536.409C1095.95 536.575 1098.32 536.748 1099.61 536.793C1100.91 536.839 1101.96 536.961 1101.96 537.063C1101.96 537.286 1108.31 537.955 1110.41 537.954C1111.22 537.954 1112.02 538.079 1112.19 538.231C1112.36 538.383 1113.38 538.579 1114.45 538.665C1115.52 538.751 1117.27 538.976 1118.34 539.164C1119.41 539.353 1121.12 539.578 1122.15 539.665C1123.17 539.752 1124.01 539.947 1124.01 540.099C1124.01 540.251 1124.48 540.375 1125.04 540.375C1126.49 540.375 1129.85 541.051 1129.85 541.343C1129.85 541.476 1130.5 541.585 1131.31 541.585C1132.11 541.585 1132.76 541.705 1132.76 541.853C1132.76 542 1133.57 542.214 1134.55 542.328C1135.53 542.443 1136.52 542.709 1136.74 542.92C1136.97 543.131 1137.93 543.4 1138.88 543.517C1139.83 543.635 1140.85 543.849 1141.14 543.993C1142.03 544.425 1146.02 545.518 1146.71 545.518C1147.07 545.518 1147.35 545.654 1147.35 545.821C1147.35 545.987 1147.78 546.123 1148.31 546.123C1148.83 546.123 1149.35 546.259 1149.46 546.426C1149.57 546.592 1150.1 546.728 1150.63 546.728C1151.2 546.728 1151.52 546.855 1151.41 547.031C1151.3 547.197 1151.44 547.333 1151.72 547.333C1152.52 547.333 1154.81 548.061 1154.81 548.315C1154.81 548.441 1155.25 548.544 1155.78 548.544C1156.32 548.544 1156.76 548.663 1156.76 548.809C1156.76 548.954 1157.19 549.155 1157.73 549.255C1158.26 549.355 1159.39 549.727 1160.22 550.082C1161.06 550.437 1162.48 550.931 1163.38 551.181C1164.28 551.431 1165.31 551.825 1165.66 552.056C1166.01 552.288 1166.71 552.477 1167.2 552.477C1167.7 552.477 1168.1 552.608 1168.1 552.768C1168.1 552.927 1168.72 553.223 1169.48 553.424C1170.24 553.625 1171 553.902 1171.17 554.041C1171.34 554.179 1171.74 554.292 1172.06 554.292C1172.38 554.292 1172.64 554.429 1172.64 554.595C1172.64 554.761 1173 554.898 1173.43 554.898C1173.87 554.898 1174.32 555.034 1174.43 555.2C1174.54 555.367 1174.91 555.503 1175.26 555.503C1175.6 555.503 1175.89 555.639 1175.89 555.805C1175.89 555.972 1176.31 556.108 1176.84 556.108C1177.36 556.108 1177.88 556.244 1177.99 556.41C1178.1 556.577 1178.48 556.713 1178.82 556.713C1179.17 556.713 1179.45 556.849 1179.45 557.016C1179.45 557.182 1179.96 557.318 1180.59 557.318C1181.21 557.318 1181.72 557.437 1181.72 557.582C1181.72 557.726 1182.48 557.94 1183.42 558.055C1184.35 558.17 1185.32 558.426 1185.57 558.623C1185.83 558.821 1187 559.142 1188.17 559.336C1189.35 559.531 1192.06 559.985 1194.2 560.346C1196.34 560.707 1199.55 561.129 1201.34 561.286C1203.12 561.442 1205.89 561.682 1207.5 561.82C1210.95 562.116 1226.21 561.924 1226.46 561.582C1226.55 561.451 1228.38 561.316 1230.52 561.282C1234.43 561.22 1236.48 561.055 1243.97 560.209C1249.88 559.542 1252.82 559.107 1253.43 558.812C1253.73 558.669 1254.97 558.398 1256.19 558.21C1257.4 558.023 1258.65 557.745 1258.96 557.593C1259.27 557.442 1259.81 557.318 1260.16 557.318C1260.51 557.318 1260.87 557.197 1260.97 557.049C1261.07 556.901 1261.62 556.703 1262.21 556.609C1264.7 556.207 1265.35 556.024 1265.19 555.771C1265.09 555.624 1265.45 555.503 1265.98 555.503C1266.52 555.503 1267.04 555.367 1267.15 555.2C1267.26 555.034 1267.64 554.898 1267.98 554.898C1268.33 554.898 1268.61 554.761 1268.61 554.595C1268.61 554.429 1268.91 554.292 1269.27 554.292C1269.62 554.292 1270.17 554.178 1270.48 554.038C1270.79 553.897 1271.7 553.507 1272.5 553.17C1275.84 551.768 1281.25 549.176 1281.58 548.822C1281.67 548.726 1282.22 548.454 1282.8 548.219C1283.38 547.983 1283.85 547.688 1283.85 547.562C1283.85 547.436 1284.17 547.333 1284.55 547.333C1284.94 547.333 1285.16 547.245 1285.04 547.136C1284.93 547.028 1285.16 546.78 1285.56 546.585C1287.39 545.689 1288.1 545.263 1289.57 544.161C1290.13 543.743 1290.68 543.4 1290.78 543.4C1290.97 543.4 1291.45 543.055 1293.04 541.778C1293.42 541.467 1294.24 540.855 1294.86 540.416C1297.66 538.419 1304.92 531.68 1304.92 531.078C1304.92 531.009 1305.11 530.779 1305.33 530.568C1305.55 530.356 1306.1 529.732 1306.55 529.18C1306.99 528.628 1307.54 528.003 1307.76 527.792C1307.98 527.581 1308.17 527.262 1308.17 527.083C1308.17 526.905 1308.28 526.759 1308.41 526.759C1308.55 526.759 1308.84 526.377 1309.06 525.909C1309.28 525.44 1309.72 524.786 1310.03 524.454C1310.34 524.121 1310.87 523.381 1311.21 522.808C1313.44 519.012 1314.33 517.34 1314.33 516.919C1314.33 516.654 1314.47 516.521 1314.65 516.624C1314.83 516.729 1314.98 516.481 1314.98 516.054C1314.98 515.638 1315.12 515.214 1315.3 515.111C1315.48 515.008 1315.62 514.583 1315.62 514.167C1315.62 513.74 1315.77 513.492 1315.95 513.598C1316.13 513.704 1316.27 513.45 1316.27 513.011C1316.27 512.585 1316.42 512.236 1316.6 512.236C1316.78 512.236 1316.92 511.904 1316.92 511.498C1316.92 511.091 1317.07 510.675 1317.25 510.572C1317.42 510.469 1317.57 510.045 1317.57 509.629C1317.57 509.202 1317.71 508.954 1317.89 509.06C1318.08 509.168 1318.22 508.876 1318.22 508.368C1318.22 507.885 1318.51 506.685 1318.86 505.703C1319.21 504.72 1319.5 503.637 1319.51 503.296C1319.51 502.955 1319.64 502.546 1319.8 502.388C1319.96 502.23 1320.26 500.875 1320.46 499.378C1320.66 497.88 1320.97 495.838 1321.15 494.839C1321.56 492.457 1321.55 482.973 1321.12 480.467C1320.94 479.386 1320.64 477.412 1320.46 476.08C1320.29 474.749 1320 473.424 1319.83 473.135C1319.66 472.846 1319.51 472.418 1319.51 472.186C1319.51 471.953 1319.3 471.376 1319.04 470.904C1318.77 470.432 1318.47 469.464 1318.35 468.754C1318.24 468.044 1318.03 467.529 1317.89 467.609C1317.75 467.69 1317.45 467.144 1317.21 466.396C1316.97 465.648 1316.67 465.037 1316.53 465.037C1316.39 465.037 1316.27 464.696 1316.27 464.28C1316.27 463.864 1316.14 463.524 1315.98 463.524C1315.83 463.524 1315.5 462.92 1315.27 462.182C1315.04 461.444 1314.73 460.907 1314.59 460.989C1314.44 461.072 1314.33 460.875 1314.33 460.553C1314.33 460.23 1313.82 459.178 1313.2 458.215C1312.58 457.252 1311.98 456.214 1311.88 455.909C1311.77 455.604 1311.55 455.355 1311.39 455.355C1311.22 455.355 1311.08 455.192 1311.08 454.993C1311.08 454.595 1309.45 452.238 1309.06 452.077C1308.92 452.022 1308.82 451.783 1308.82 451.548C1308.82 451.312 1308.69 451.119 1308.53 451.119C1308.37 451.119 1308.06 450.711 1307.84 450.211C1307.62 449.712 1307.33 449.304 1307.19 449.304C1307.06 449.304 1306.86 449.066 1306.75 448.774C1306.4 447.782 1305.34 446.293 1305.13 446.488C1305.02 446.594 1304.92 446.457 1304.92 446.183C1304.92 445.909 1304.41 444.94 1303.79 444.029C1303.17 443.119 1302.65 442.265 1302.65 442.132C1302.64 442 1302.36 441.551 1302.01 441.134C1301.66 440.718 1301.37 440.14 1301.37 439.849C1301.36 439.557 1301.24 439.319 1301.1 439.319C1300.76 439.319 1299.41 436.73 1299.41 436.084C1299.41 435.811 1299.31 435.68 1299.19 435.794C1298.92 436.045 1298.12 434.338 1298.12 433.518C1298.12 433.194 1297.97 433.014 1297.79 433.117C1297.61 433.219 1297.47 433.085 1297.47 432.817C1297.47 432.55 1297.18 431.767 1296.82 431.079C1296.46 430.39 1296.17 429.647 1296.17 429.429C1296.17 429.211 1296.04 429.032 1295.88 429.032C1295.72 429.032 1295.49 428.528 1295.37 427.913C1295.25 427.297 1294.94 426.518 1294.68 426.182C1294.43 425.845 1294.23 425.332 1294.23 425.042C1294.23 424.751 1294.02 424.067 1293.77 423.521C1293.51 422.974 1293.07 422.027 1292.79 421.417C1292.51 420.806 1292.18 419.889 1292.08 419.379C1291.97 418.869 1291.75 418.526 1291.59 418.616C1291.44 418.707 1291.31 418.362 1291.31 417.851C1291.31 417.34 1291.18 416.685 1291.02 416.396C1290.45 415.337 1290.01 413.681 1290.01 412.579C1290.01 411.957 1289.89 411.52 1289.73 411.608C1289.4 411.798 1288.93 406.879 1288.94 403.466C1288.96 399.878 1289.41 395.643 1289.73 396.11C1289.9 396.354 1290 395.952 1290.01 395.07C1290.01 394.279 1290.14 393.632 1290.3 393.632C1290.46 393.632 1290.67 393.122 1290.77 392.498C1291.12 390.275 1291.38 389.405 1291.67 389.569C1291.83 389.66 1291.96 389.42 1291.96 389.036C1291.97 388.24 1292.52 386.689 1293.33 385.206C1293.64 384.648 1293.98 383.734 1294.09 383.174C1294.2 382.615 1294.49 382.004 1294.73 381.819C1294.97 381.632 1295.26 380.88 1295.38 380.147C1295.5 379.413 1295.72 378.888 1295.88 378.979C1296.04 379.07 1296.17 378.831 1296.18 378.446C1296.18 378.062 1296.47 377.407 1296.82 376.991C1297.17 376.575 1297.46 375.929 1297.46 375.554C1297.46 375.18 1297.61 374.874 1297.79 374.874C1297.97 374.874 1298.12 374.601 1298.12 374.268C1298.12 373.936 1298.26 373.663 1298.44 373.663C1298.62 373.663 1298.76 373.323 1298.76 372.907C1298.76 372.491 1298.87 372.15 1299.01 372.15C1299.14 372.15 1299.45 371.708 1299.68 371.167C1299.91 370.626 1300.24 369.948 1300.41 369.659C1300.57 369.37 1300.71 368.919 1300.71 368.657C1300.71 368.396 1300.86 368.266 1301.03 368.368C1301.21 368.471 1301.36 368.368 1301.36 368.139C1301.36 367.91 1301.78 366.957 1302.29 366.021C1302.8 365.084 1303.32 363.947 1303.45 363.493C1303.57 363.039 1303.95 362.332 1304.3 361.922C1304.64 361.512 1304.92 360.846 1304.92 360.443C1304.92 360.031 1305.07 359.792 1305.25 359.897C1305.43 360 1305.57 359.831 1305.57 359.521C1305.57 358.831 1306.29 357.33 1306.63 357.327C1306.76 357.326 1306.87 357.119 1306.87 356.867C1306.87 356.615 1307.02 356.139 1307.19 355.808C1307.37 355.478 1307.66 354.937 1307.84 354.606C1308.02 354.275 1308.17 353.799 1308.17 353.547C1308.17 353.295 1308.31 353.089 1308.49 353.089C1308.67 353.089 1308.82 352.844 1308.82 352.544C1308.82 351.868 1309.54 350.372 1309.87 350.368C1310 350.367 1310.11 349.958 1310.11 349.458C1310.11 348.959 1310.24 348.551 1310.4 348.551C1310.56 348.551 1310.79 348.04 1310.92 347.416C1311.04 346.792 1311.31 346.095 1311.51 345.868C1311.91 345.415 1312.61 343.768 1313 342.348C1313.14 341.849 1313.49 341.005 1313.79 340.472C1314.09 339.94 1314.33 339.157 1314.33 338.733C1314.33 338.308 1314.45 337.961 1314.59 337.961C1314.74 337.961 1315.06 337.082 1315.3 336.008C1315.54 334.934 1315.85 334.125 1316 334.211C1316.15 334.296 1316.27 333.881 1316.27 333.289C1316.27 332.697 1316.42 332.212 1316.6 332.212C1316.78 332.212 1316.92 331.744 1316.92 331.171C1316.92 330.599 1317.07 330.046 1317.25 329.943C1317.42 329.84 1317.57 329.28 1317.57 328.697C1317.57 328.068 1317.7 327.714 1317.89 327.825C1318.07 327.93 1318.22 327.703 1318.21 327.314C1318.21 326.252 1319.5 318.912 1319.94 317.538C1320.47 315.867 1320.48 295.877 1319.95 295.271C1319.75 295.037 1319.51 294.165 1319.43 293.333C1319.21 291.205 1318.12 285.799 1317.87 285.618C1317.65 285.462 1317.34 284.194 1317.03 282.212C1316.93 281.587 1316.72 281.001 1316.56 280.909C1316.4 280.817 1316.27 280.333 1316.27 279.834C1316.27 279.306 1316.14 279.004 1315.95 279.113C1315.76 279.224 1315.62 278.87 1315.62 278.241C1315.62 277.658 1315.48 277.098 1315.3 276.995C1315.12 276.892 1314.98 276.4 1314.98 275.9C1314.98 275.372 1314.84 275.071 1314.65 275.18C1314.46 275.288 1314.33 274.984 1314.33 274.449C1314.33 273.945 1314.05 272.949 1313.71 272.238C1313.37 271.526 1312.86 270.263 1312.59 269.431C1312.04 267.729 1310.9 264.99 1310.24 263.8C1310 263.366 1309.9 262.923 1310.01 262.817C1310.13 262.71 1310.05 262.623 1309.84 262.623C1309.63 262.623 1309.46 262.359 1309.46 262.036C1309.46 261.713 1309.32 261.365 1309.14 261.262C1308.96 261.159 1308.82 260.811 1308.82 260.487C1308.82 260.164 1308.67 259.9 1308.49 259.9C1308.31 259.9 1308.17 259.626 1308.17 259.291C1308.17 258.732 1307.61 257.54 1307.18 257.177C1306.91 256.953 1305.57 254.203 1305.57 253.877C1305.57 253.723 1305.46 253.552 1305.33 253.496C1305.2 253.441 1304.66 252.578 1304.13 251.58C1303.61 250.581 1302.77 249.159 1302.27 248.419C1301.77 247.679 1301.36 246.806 1301.36 246.478C1301.36 246.15 1301.26 245.971 1301.15 246.08C1301.03 246.19 1300.57 245.6 1300.13 244.769C1299.69 243.939 1299.2 243.259 1299.05 243.259C1298.89 243.259 1298.76 242.987 1298.76 242.654C1298.76 242.321 1298.62 242.049 1298.44 242.049C1298.26 242.049 1298.12 241.777 1298.12 241.444C1298.12 241.111 1298.01 240.839 1297.87 240.839C1297.62 240.839 1297.42 240.548 1296.5 238.849C1296.24 238.362 1295.94 237.896 1295.84 237.813C1295.73 237.73 1295.46 237.22 1295.22 236.679C1294.99 236.138 1294.67 235.695 1294.51 235.695C1294.35 235.695 1294.22 235.525 1294.22 235.317C1294.22 235.109 1293.98 234.53 1293.69 234.031C1292.42 231.859 1291.96 230.843 1291.96 230.246C1291.96 229.895 1291.81 229.692 1291.63 229.795C1291.45 229.898 1291.31 229.702 1291.31 229.359C1291.31 229.017 1291.16 228.736 1290.98 228.736C1290.81 228.736 1290.66 228.404 1290.66 227.998C1290.66 227.592 1290.51 227.175 1290.33 227.072C1290.16 226.969 1290.01 226.409 1290.01 225.826C1290.01 225.244 1289.88 224.84 1289.73 224.929C1289.58 225.018 1289.33 224.243 1289.19 223.207C1288.69 219.607 1289.08 210.686 1289.72 211.057C1289.88 211.149 1290.01 210.611 1290.01 209.862C1290.01 209.113 1290.16 208.416 1290.33 208.314C1290.51 208.211 1290.66 207.726 1290.66 207.237C1290.66 206.747 1290.81 206.347 1290.98 206.347C1291.16 206.347 1291.31 205.862 1291.31 205.27C1291.31 204.629 1291.44 204.269 1291.63 204.38C1291.81 204.483 1291.96 204.285 1291.96 203.939C1291.96 203.073 1292.71 200.901 1293.01 200.901C1293.14 200.901 1293.25 200.56 1293.25 200.144C1293.25 199.728 1293.38 199.388 1293.54 199.388C1293.7 199.388 1293.92 198.786 1294.04 198.051C1294.16 197.316 1294.47 196.549 1294.73 196.348C1294.99 196.146 1295.29 195.454 1295.4 194.81C1295.52 194.166 1295.73 193.639 1295.89 193.639C1296.04 193.639 1296.17 193.401 1296.17 193.11C1296.17 192.819 1296.46 192.135 1296.82 191.59C1297.18 191.045 1297.47 190.398 1297.47 190.153C1297.47 189.907 1297.61 189.706 1297.79 189.706C1297.97 189.706 1298.12 189.442 1298.12 189.119C1298.12 188.796 1298.26 188.447 1298.44 188.344C1298.62 188.242 1298.76 187.817 1298.76 187.401C1298.76 186.974 1298.91 186.726 1299.09 186.832C1299.27 186.935 1299.41 186.832 1299.41 186.604C1299.41 186.376 1299.7 185.625 1300.06 184.936C1300.42 184.247 1300.71 183.541 1300.71 183.367C1300.71 183.192 1300.86 183.05 1301.03 183.05C1301.21 183.05 1301.36 182.844 1301.36 182.593C1301.36 182.343 1302.16 180.716 1303.14 178.978C1304.12 177.241 1304.92 175.608 1304.92 175.35C1304.92 175.092 1305.05 174.88 1305.21 174.88C1305.37 174.88 1305.73 174.37 1306.01 173.746C1306.3 173.122 1306.73 172.271 1306.99 171.855C1307.24 171.439 1308.08 169.873 1308.86 168.375C1309.63 166.878 1310.36 165.583 1310.48 165.498C1310.61 165.413 1310.81 164.936 1310.94 164.439C1311.07 163.941 1311.32 163.357 1311.51 163.139C1311.99 162.564 1314.33 157.583 1314.33 157.12C1314.33 156.904 1314.45 156.727 1314.59 156.727C1314.74 156.727 1315.06 156.052 1315.3 155.228C1315.54 154.403 1315.85 153.798 1316 153.884C1316.15 153.97 1316.27 153.623 1316.27 153.114C1316.27 152.605 1316.4 152.188 1316.56 152.188C1316.83 152.188 1316.92 151.906 1317.43 149.544C1317.55 149.005 1317.77 148.638 1317.93 148.73C1318.09 148.821 1318.22 148.591 1318.22 148.219C1318.22 147.477 1318.64 146.126 1319.54 144.007C1319.86 143.251 1320.22 141.89 1320.34 140.981C1320.46 140.073 1320.76 138.732 1321.02 138.001C1321.27 137.27 1321.57 135.398 1321.68 133.841C1321.79 132.283 1322.01 131.009 1322.16 131.009C1322.31 131.009 1322.43 127.665 1322.43 123.578C1322.43 118.702 1322.32 116.212 1322.11 116.335C1321.91 116.452 1321.78 115.839 1321.78 114.703C1321.78 112.725 1321.24 109.85 1320.78 109.391C1320.62 109.233 1320.49 108.719 1320.49 108.249C1320.49 107.779 1320.18 106.615 1319.81 105.662C1319.44 104.709 1318.89 103.14 1318.59 102.175C1318.28 101.21 1317.93 100.518 1317.8 100.637C1317.67 100.756 1317.57 100.625 1317.57 100.345C1317.57 100.066 1317.42 99.5666 1317.25 99.2359C1317.07 98.9055 1316.78 98.3645 1316.6 98.0341C1316.42 97.7034 1316.27 97.2269 1316.27 96.9752C1316.27 96.7231 1316.16 96.5159 1316.03 96.5147C1315.74 96.5119 1314.98 95.0466 1314.98 94.4902C1314.98 94.2736 1314.83 94.0966 1314.65 94.0966C1314.47 94.0966 1314.33 93.909 1314.33 93.6794C1314.33 93.45 1313.82 92.4709 1313.19 91.5036C1312.57 90.5363 1312.06 89.5736 1312.06 89.3642C1312.06 89.1545 1311.88 88.8744 1311.65 88.7412C1311.26 88.5074 1310.94 88.0414 1309.44 85.4926C1309.06 84.8373 1308.55 84.1217 1308.31 83.9024C1308.08 83.683 1307.79 83.2319 1307.68 82.9C1307.57 82.5681 1307.34 82.2967 1307.17 82.2967C1307.01 82.2967 1306.87 82.1136 1306.87 81.8897C1306.87 81.6659 1306.58 81.2362 1306.22 80.9352C1305.86 80.6341 1305.57 80.2045 1305.57 79.9806C1305.57 79.7567 1305.46 79.5736 1305.32 79.5736C1305.18 79.5736 1304.89 79.1991 1304.68 78.7416C1304.46 78.2841 1304 77.5011 1303.64 77.0019C1303.28 76.5026 1302.84 75.788 1302.67 75.4134C1302.49 75.0388 1302.21 74.7327 1302.04 74.7327C1301.87 74.7327 1301.64 74.3242 1301.52 73.825C1301.4 73.3257 1301.19 72.9173 1301.05 72.9173C1300.9 72.9173 1300.7 72.6792 1300.61 72.3878C1300.41 71.8226 1299.38 70.1431 1299.06 69.8917C1298.96 69.8085 1298.67 69.2978 1298.42 68.7571C1298.16 68.2161 1297.85 67.7738 1297.71 67.7738C1297.58 67.7738 1297.46 67.5356 1297.46 67.2443C1297.46 66.9529 1297.17 66.3744 1296.82 65.9584C1296.47 65.5424 1296.18 64.9409 1296.18 64.622C1296.17 64.3031 1296.08 64.1279 1295.97 64.2323C1295.75 64.4323 1293.93 61.2215 1293.91 60.613C1293.91 60.4191 1293.79 60.2149 1293.66 60.1592C1293.25 59.9891 1291.96 57.4661 1291.96 56.8349C1291.96 56.5082 1291.81 56.3248 1291.63 56.4277C1291.45 56.5333 1291.31 56.2855 1291.31 55.8583C1291.31 55.4422 1291.16 55.0178 1290.98 54.9149C1290.81 54.812 1290.66 54.4638 1290.66 54.1406C1290.66 53.8175 1290.51 53.5534 1290.33 53.5534C1290.16 53.5534 1290.01 53.1367 1290.01 52.6278C1290.01 52.0878 1289.88 51.78 1289.69 51.8893C1289.49 52.0021 1289.36 51.5958 1289.36 50.866C1289.36 50.2004 1289.22 49.5717 1289.04 49.4688C1288.86 49.3659 1288.71 48.8246 1288.71 48.2658C1288.71 47.7073 1288.53 47.1932 1288.31 47.1239C1287.75 46.9515 1287.72 30.9481 1288.27 30.6234C1288.47 30.5045 1288.72 29.7947 1288.83 29.0459C1289.26 25.918 1289.45 25.1126 1289.72 25.1126C1289.88 25.1126 1290.01 24.7123 1290.01 24.2228C1290.01 23.7332 1290.16 23.2488 1290.33 23.1459C1290.51 23.0431 1290.66 22.5665 1290.66 22.087C1290.66 21.6074 1290.81 21.1309 1290.98 21.028C1291.16 20.9251 1291.31 20.5088 1291.31 20.1025C1291.31 19.6961 1291.45 19.3639 1291.63 19.3639C1291.81 19.3639 1291.96 19.1352 1291.96 18.8559C1291.96 18.1192 1292.69 16.3383 1292.99 16.3383C1293.14 16.3383 1293.25 15.9571 1293.25 15.4911C1293.25 15.0252 1293.37 14.5148 1293.52 14.3565C1293.67 14.1986 1293.97 13.4906 1294.18 12.7832C1294.4 12.0761 1294.7 11.4973 1294.86 11.4973C1295.01 11.4973 1295.24 10.9185 1295.37 10.2114C1295.5 9.50406 1295.69 8.85748 1295.81 8.77428C1296.02 8.61786 1297.3 6.16983 1297.87 4.84098C1298.05 4.42496 1298.32 3.84828 1298.48 3.55933C1298.64 3.27039 1298.76 2.81957 1298.76 2.55816C1298.76 2.29644 1298.91 2.16634 1299.09 2.26921C1299.27 2.37541 1299.41 2.12096 1299.41 1.68194C1299.41 1.25623 1299.56 0.907684 1299.74 0.907684C1299.92 0.907684 1300.06 0.703455 1300.06 0.453842C1300.06 0.0505278 1229.11 0 663.481 0H26.9L27.1659 0.865628ZM34.2108 397.49C34.1294 397.781 34.0626 397.543 34.0626 396.961C34.0626 396.378 34.1294 396.14 34.2108 396.431C34.2925 396.722 34.2925 397.199 34.2108 397.49Z" fill="#493129"/>
</svg>
