<svg width="1323" height="567" viewBox="0 0 1323 567" preserveAspectRatio="none"  fill="none" xmlns="http://www.w3.org/2000/svg">
<path fill-rule="evenodd" clip-rule="evenodd" d="M27.5183 0.865628C27.6645 1.34156 27.9401 2.00235 28.1301 2.33426C28.3204 2.66587 28.5756 3.84223 28.6968 4.94809C28.8184 6.05395 29.0282 6.95891 29.163 6.95891C29.2979 6.95891 29.5002 7.53741 29.6124 8.2448C29.7249 8.95188 29.9713 10.4157 30.1607 11.4973C30.3497 12.579 30.5902 15.0978 30.6953 17.0947C30.8379 19.812 30.9417 20.4211 31.108 19.5152C31.2419 18.7836 31.333 19.9206 31.3376 22.3895C31.3421 24.8451 31.2465 26.1123 31.0976 25.5664C30.9313 24.9568 30.8376 25.6708 30.8117 27.7422C30.7906 29.438 30.6275 30.9097 30.4492 31.0125C30.2709 31.1154 30.125 32.2125 30.125 33.4509C30.125 34.7501 29.9878 35.7022 29.8008 35.7022C29.6225 35.7022 29.4766 36.4511 29.4766 37.3663C29.4766 38.2816 29.3624 39.0304 29.2227 39.0304C29.0833 39.0304 28.8015 40.3438 28.5973 41.9495C28.3927 43.5549 28.0879 44.9503 27.92 45.0508C27.7524 45.1509 27.5319 45.7095 27.4301 46.2919C27.0556 48.4346 26.2908 51.1162 25.7834 52.0654C25.4964 52.6021 25.2617 53.4369 25.2617 53.9204C25.2617 54.4293 25.1252 54.7206 24.9375 54.6123C24.7592 54.5095 24.6133 54.6992 24.6133 55.0341C24.6133 55.369 24.4492 56.0238 24.2485 56.4891C24.0482 56.9545 23.7564 57.6416 23.6001 58.0161C23.0126 59.4255 22.5833 60.3776 22.3058 60.8862C22.1482 61.1752 22.0195 61.6178 22.0195 61.8696C22.0195 62.1216 21.9054 62.3276 21.766 62.3276C21.6266 62.3276 21.3108 62.9742 21.0641 63.7648C20.8173 64.5554 20.3894 65.529 20.1131 65.929C19.5065 66.8068 18.1338 69.7785 17.8984 70.7237C17.8053 71.0983 17.6001 71.4045 17.4425 71.4045C17.2853 71.4045 17.1562 71.6045 17.1562 71.8493C17.1562 72.0937 16.8644 72.7787 16.5078 73.3711C16.1512 73.9635 15.8594 74.7166 15.8594 75.0443C15.8594 75.3723 15.7297 75.6403 15.5708 75.6403C15.4123 75.6403 15.09 76.2491 14.8546 76.9928C14.5845 77.8466 14.3339 78.2091 14.1754 77.9761C14.0136 77.7383 13.9222 77.8509 13.9189 78.292C13.9163 78.6687 13.7455 79.2814 13.5393 79.6535C12.7498 81.0786 12.6172 81.3954 12.6172 81.8565C12.6172 82.1182 12.4713 82.2483 12.293 82.1454C12.1146 82.0425 11.9687 82.2474 11.9687 82.6005C11.9687 82.9536 11.5531 84.0848 11.0454 85.1144C9.59417 88.0556 8.40234 91.0256 8.40234 91.7C8.40234 92.0392 8.25644 92.2328 8.07812 92.1299C7.8998 92.0271 7.75163 92.1892 7.74904 92.4903C7.74353 93.1232 7.0069 95.197 6.67912 95.5029C6.55689 95.617 6.45703 96.0959 6.45703 96.5676C6.45703 97.039 6.32701 97.4248 6.16815 97.4248C6.0096 97.4248 5.79919 97.8674 5.70062 98.4081C5.38451 100.146 4.9131 101.821 4.8275 101.509C4.78211 101.343 4.62876 101.888 4.48675 102.72C4.34507 103.552 4.07143 104.913 3.87884 105.745C3.68625 106.577 3.43952 107.834 3.33026 108.538C3.22132 109.242 3.02647 109.757 2.89775 109.683C2.66983 109.551 2.41888 112.383 2.02463 119.528C1.82718 123.103 2.4312 133.035 2.87895 133.581C3.01544 133.747 3.21678 134.428 3.32637 135.094C3.43596 135.759 3.68625 136.917 3.88305 137.665C4.07953 138.414 4.31653 139.537 4.40991 140.16C4.50328 140.783 4.6923 141.228 4.83042 141.148C4.96854 141.068 5.27525 141.818 5.51193 142.814C5.74861 143.81 6.05824 144.624 6.1996 144.624C6.34128 144.624 6.45703 144.871 6.45703 145.173C6.45703 145.474 6.74882 146.284 7.10546 146.973C7.4621 147.662 7.7539 148.369 7.7539 148.543C7.7539 148.717 7.8998 148.86 8.07812 148.86C8.25644 148.86 8.40234 149.139 8.40234 149.479C8.40234 149.82 8.76709 150.738 9.21289 151.519C9.65869 152.301 10.0234 153.111 10.0234 153.321C10.0234 153.53 10.1327 153.703 10.2666 153.706C10.4005 153.708 10.8745 154.423 11.3203 155.294C11.7661 156.165 12.2155 156.946 12.3189 157.029C12.4223 157.113 12.7135 157.623 12.9654 158.164C13.2176 158.705 13.5341 159.147 13.6689 159.147C13.8038 159.147 13.9141 159.357 13.9141 159.614C13.9141 159.87 14.2059 160.373 14.5625 160.73C14.9191 161.087 15.2109 161.558 15.2109 161.776C15.2109 161.994 15.3568 162.173 15.5351 162.173C15.7135 162.173 15.8652 162.411 15.8727 162.702C15.8798 162.993 16.3175 163.703 16.8453 164.279C17.3728 164.855 17.8047 165.481 17.8047 165.67C17.8047 165.858 18.0835 166.248 18.4239 166.536C18.7647 166.823 19.1327 167.391 19.2419 167.797C19.3512 168.204 19.6926 168.81 20.0006 169.145C20.6883 169.893 22.3052 172.419 22.5581 173.141C22.6602 173.432 22.8725 173.67 23.0301 173.67C23.1874 173.67 23.3164 173.88 23.3164 174.137C23.3164 174.393 23.6082 174.896 23.9648 175.253C24.3215 175.61 24.6133 176.157 24.6133 176.468C24.6133 176.779 24.7433 176.959 24.9018 176.868C25.0607 176.776 25.2834 177.163 25.3969 177.727C25.5104 178.291 25.8181 178.919 26.0807 179.123C26.3436 179.327 26.5586 179.688 26.5586 179.927C26.5586 180.165 26.9901 181.172 27.5176 182.164C28.0451 183.156 28.5723 184.444 28.689 185.025C28.8061 185.606 29.0311 186.157 29.189 186.248C29.3472 186.339 29.4766 186.738 29.4766 187.134C29.4766 187.531 29.6069 187.93 29.7664 188.022C30.0637 188.193 30.3429 189.552 30.6561 192.354C30.7537 193.228 30.9462 193.878 31.0844 193.798C31.2221 193.719 31.44 195.5 31.5681 197.757C31.8349 202.454 31.477 212.058 31.0581 211.441C30.8918 211.196 30.7815 211.837 30.7783 213.061C30.7757 214.174 30.6275 215.17 30.4492 215.272C30.2709 215.375 30.125 215.988 30.125 216.634C30.125 217.28 30.0083 217.876 29.8653 217.958C29.7226 218.041 29.569 218.692 29.5239 219.405C29.4785 220.119 29.3131 220.777 29.1559 220.868C28.999 220.958 28.7688 221.779 28.6446 222.691C28.5201 223.603 28.2319 224.69 28.0036 225.106C27.7754 225.522 27.3529 226.679 27.065 227.677C26.7771 228.676 26.3835 229.901 26.1903 230.4C25.997 230.9 25.6751 231.853 25.475 232.518C25.2747 233.184 25.0344 233.797 24.9414 233.88C24.6613 234.13 23.9648 236.154 23.9648 236.718C23.9648 237.007 23.8189 237.16 23.6406 237.057C23.4516 236.948 23.3164 237.255 23.3164 237.795C23.3164 238.304 23.2023 238.721 23.0629 238.721C22.9234 238.721 22.6158 239.334 22.3788 240.082C22.1418 240.831 21.8457 241.444 21.7209 241.444C21.5958 241.444 21.3066 242.125 21.0783 242.957C20.8497 243.789 20.5304 244.47 20.3686 244.47C20.2065 244.47 20.0742 244.726 20.0742 245.04C20.0742 245.354 19.8563 246.001 19.5898 246.477C19.3236 246.954 19.1038 247.548 19.1016 247.798C19.0993 248.047 18.8075 248.66 18.4531 249.159C18.0987 249.659 17.8079 250.307 17.8069 250.601C17.8057 250.894 17.6734 251.371 17.5132 251.66C17.2671 252.103 16.6916 253.27 15.5384 255.664C15.4184 255.914 15.1189 256.761 14.8734 257.546C14.593 258.442 14.3329 258.837 14.1754 258.605C14.0136 258.368 13.9222 258.48 13.9189 258.922C13.9124 259.841 13.1697 262.018 12.8626 262.018C12.7274 262.018 12.6172 262.367 12.6172 262.792C12.6172 263.218 12.4843 263.49 12.3218 263.396C12.1591 263.303 11.9263 263.805 11.8044 264.513C11.6821 265.221 11.3997 266.072 11.1767 266.405C10.9539 266.738 10.5172 267.759 10.2063 268.674C9.89569 269.59 9.36267 270.916 9.02192 271.621C8.68117 272.327 8.40234 273.322 8.40234 273.833C8.40234 274.375 8.26746 274.684 8.07812 274.574C7.8998 274.472 7.7539 274.624 7.7539 274.913C7.7539 275.497 7.18198 277.312 6.74137 278.125C6.58509 278.414 6.45703 279.061 6.45703 279.562C6.45703 280.064 6.31113 280.474 6.13281 280.474C5.95449 280.474 5.80859 280.943 5.80859 281.516C5.80859 282.088 5.66269 282.641 5.48437 282.744C5.30605 282.846 5.15788 283.501 5.15529 284.199C5.1514 285.129 5.06645 285.346 4.83593 285.013C4.60833 284.684 4.52014 284.95 4.51658 285.978C4.51398 286.759 4.36582 287.482 4.1875 287.585C4.00917 287.687 3.86328 288.3 3.86328 288.946C3.86328 289.592 3.75239 290.184 3.61687 290.263C3.48135 290.341 3.32475 291.266 3.26866 292.319C3.21289 293.371 3.05305 294.303 2.91364 294.388C2.77423 294.474 2.57483 296.858 2.47076 299.687C2.2759 304.985 2.58423 311.022 3.21192 314.21C3.40872 315.208 3.64994 316.638 3.74785 317.387C3.84577 318.136 4.05781 318.878 4.21894 319.036C4.38008 319.194 4.51171 319.773 4.51171 320.322C4.51171 320.871 4.65761 321.32 4.83593 321.32C5.01425 321.32 5.16015 321.789 5.16015 322.361C5.16015 322.934 5.30605 323.487 5.48437 323.589C5.66269 323.692 5.80859 324.101 5.80859 324.497C5.80859 324.893 5.95449 325.302 6.13281 325.405C6.31113 325.508 6.45703 325.992 6.45703 326.482C6.45703 326.971 6.60292 327.371 6.78125 327.371C6.95957 327.371 7.10546 327.577 7.10546 327.829C7.10546 328.274 7.24099 328.595 8.02754 330.015C8.23374 330.387 8.40299 330.931 8.40364 331.225C8.40428 331.518 8.69608 332.204 9.05207 332.749C9.40806 333.294 9.69921 333.888 9.69921 334.07C9.69921 334.252 10.2099 335.418 10.834 336.661C11.4581 337.905 11.9687 339.115 11.9687 339.35C11.9687 339.584 12.078 339.778 12.2119 339.779C12.5031 339.782 13.2656 341.247 13.2656 341.803C13.2656 342.02 13.4115 342.197 13.5898 342.197C13.7682 342.197 13.9141 342.469 13.9141 342.802C13.9141 343.135 14.06 343.407 14.2383 343.407C14.4166 343.407 14.5625 343.584 14.5625 343.801C14.5625 344.357 15.3251 345.823 15.6162 345.825C15.7501 345.826 15.8594 346.16 15.8594 346.566C15.8594 346.973 15.9829 347.376 16.1337 347.463C16.2844 347.55 17.105 348.953 17.9571 350.582C18.8094 352.21 19.926 354.337 20.439 355.309C20.9515 356.28 21.3711 357.267 21.3711 357.502C21.3711 357.738 21.4936 357.93 21.6434 357.93C21.7932 357.93 22.1084 358.475 22.3437 359.14C22.5791 359.806 22.8943 360.351 23.0441 360.351C23.1938 360.351 23.3164 360.699 23.3164 361.125C23.3164 361.564 23.4568 361.818 23.6406 361.712C23.8189 361.609 23.9648 361.797 23.9648 362.13C23.9648 362.463 24.1107 362.819 24.2891 362.922C24.4674 363.025 24.6133 363.45 24.6133 363.866C24.6133 364.293 24.7543 364.541 24.9375 364.435C25.1178 364.331 25.2624 364.558 25.263 364.947C25.2637 365.331 25.5555 366.091 25.9114 366.636C26.2674 367.181 26.5586 367.78 26.5586 367.968C26.5586 368.156 26.9963 369.174 27.5312 370.231C28.0662 371.288 28.5088 372.322 28.5149 372.53C28.5211 372.737 28.8006 373.449 29.1361 374.111C29.4717 374.774 29.6834 375.411 29.6062 375.528C29.5291 375.644 29.6143 375.825 29.7956 375.929C29.9768 376.034 30.125 376.444 30.125 376.84C30.125 377.237 30.2709 377.645 30.4492 377.748C30.6275 377.851 30.7734 378.343 30.7734 378.843C30.7734 379.342 30.9005 379.677 31.0555 379.587C31.2108 379.498 31.5315 380.443 31.7685 381.688C32.0055 382.932 32.3015 383.95 32.4263 383.95C32.5511 383.95 32.7268 384.529 32.8167 385.236C32.9065 385.944 33.2242 387.607 33.5225 388.932C34.3145 392.448 33.9278 404.771 33.0086 405.301C32.8491 405.393 32.7187 406.072 32.7187 406.812C32.7187 407.551 32.5887 408.155 32.4299 408.155C32.2713 408.155 32.0593 408.598 31.9591 409.139C31.537 411.417 31.3324 412.089 31.061 412.089C30.9028 412.089 30.7734 412.317 30.7734 412.597C30.7734 413.165 30.196 414.987 29.7609 415.791C29.6046 416.08 29.4766 416.59 29.4766 416.925C29.4766 417.261 29.3478 417.535 29.1909 417.535C29.0337 417.535 28.7312 418.18 28.5185 418.968C28.3058 419.756 28.0302 420.471 27.9064 420.556C27.7825 420.642 27.3364 421.665 26.9149 422.83C26.4934 423.994 25.9491 425.249 25.7052 425.618C25.4611 425.986 25.2617 426.633 25.2617 427.055C25.2617 427.477 25.132 427.822 24.9732 427.822C24.8146 427.822 24.491 428.434 24.254 429.183C24.017 429.932 23.7094 430.545 23.5699 430.545C23.4305 430.545 23.3164 430.885 23.3164 431.301C23.3164 431.717 23.1705 432.058 22.9922 432.058C22.8139 432.058 22.668 432.33 22.668 432.663C22.668 432.996 22.5221 433.268 22.3437 433.268C22.1654 433.268 22.0195 433.685 22.0195 434.193C22.0195 434.702 21.8895 435.044 21.731 434.953C21.5721 434.861 21.3526 435.227 21.2433 435.767C21.1341 436.306 20.6805 437.417 20.2353 438.236C19.7899 439.054 19.4245 439.871 19.4229 440.051C19.4212 440.231 19.061 441.059 18.6224 441.891C18.1837 442.723 17.8202 443.576 17.8147 443.786C17.8092 443.996 17.6643 444.405 17.4925 444.694C16.692 446.04 15.8594 447.957 15.8594 448.453C15.8594 448.754 15.7397 449.001 15.5938 449.001C15.4476 449.001 15.1289 449.683 14.8857 450.517C14.6001 451.496 14.3511 451.898 14.1835 451.652C14.0227 451.415 13.9222 451.644 13.9189 452.254C13.9163 452.794 13.7682 453.237 13.5898 453.237C13.4115 453.237 13.2656 453.511 13.2656 453.846C13.2656 454.411 12.7008 455.609 12.269 455.96C12.1665 456.043 11.8922 456.758 11.6594 457.548C11.4267 458.339 11.1092 458.986 10.9539 458.986C10.799 458.986 10.6719 459.192 10.6719 459.444C10.6719 459.695 10.535 460.138 10.3674 460.427C9.57082 461.802 8.40234 464.565 8.40234 465.073C8.40234 465.386 8.25644 465.642 8.07812 465.642C7.8998 465.642 7.7539 465.908 7.7539 466.233C7.7539 466.98 7.0886 468.365 6.72905 468.365C6.57958 468.365 6.45703 468.842 6.45703 469.424C6.45703 470.006 6.34679 470.483 6.21159 470.483C5.93114 470.483 5.16275 472.626 5.15529 473.428C5.15107 473.884 5.10406 473.896 4.83593 473.509C4.59763 473.164 4.52047 473.293 4.51658 474.042C4.51398 474.585 4.38365 475.266 4.22737 475.555C3.79227 476.358 3.21484 478.18 3.21484 478.749C3.21484 479.029 3.07607 479.257 2.90683 479.257C2.73726 479.257 2.49864 480.083 2.37609 481.092C2.25385 482.102 1.96173 483.106 1.727 483.325C1.49227 483.545 1.3642 483.783 1.44234 483.856C1.52047 483.929 1.35771 484.932 1.08051 486.086C0.766339 487.394 0.507613 490.486 0.393163 494.304C0.201226 500.702 0.691121 505.226 1.78374 507.139C2.03598 507.581 2.24218 508.173 2.24218 508.455C2.24218 508.737 2.47594 509.465 2.76158 510.073C3.04722 510.68 3.39186 511.45 3.52771 511.783C3.66356 512.115 4.08634 512.932 4.46762 513.598C4.84858 514.264 5.33847 515.182 5.5557 515.64C5.77292 516.098 6.06472 516.472 6.20381 516.472C6.34323 516.472 6.45703 516.682 6.45703 516.939C6.45703 517.195 6.74882 517.698 7.10546 518.055C7.4621 518.412 7.7539 518.891 7.7539 519.119C7.7539 519.347 7.8998 519.449 8.07812 519.347C8.25644 519.244 8.40234 519.372 8.40234 519.631C8.40234 519.891 8.69414 520.375 9.05078 520.708C9.40742 521.041 9.69921 521.492 9.69921 521.711C9.69921 522.326 12.1902 526.755 12.4168 526.543C12.527 526.44 12.6178 526.549 12.6188 526.784C12.6195 527.021 13.0571 527.648 13.5915 528.18C14.1254 528.712 14.5625 529.291 14.5625 529.466C14.5625 529.642 14.7084 529.785 14.8867 529.785C15.065 529.785 15.2109 530.046 15.2109 530.365C15.2109 530.684 15.3289 530.99 15.4732 531.046C15.6175 531.101 16.3645 531.93 17.1332 532.886C17.9019 533.843 18.6496 534.626 18.7945 534.626C18.9394 534.626 19.1447 534.881 19.2504 535.192C19.476 535.855 24.9077 541.061 27.6561 543.249C28.7013 544.081 29.721 544.902 29.922 545.074C30.1227 545.246 30.7977 545.719 31.4219 546.125C32.046 546.531 32.8394 547.105 33.1853 547.401C33.5309 547.697 33.9514 547.939 34.1197 547.939C34.2883 547.939 34.6618 548.178 34.9503 548.47C35.2386 548.763 35.8757 549.194 36.3662 549.429C36.8564 549.664 37.2578 549.969 37.2578 550.108C37.2578 550.246 37.4643 550.359 37.7172 550.359C37.9698 550.359 38.2249 550.461 38.2846 550.586C38.3439 550.711 39.8149 551.493 41.5537 552.324C43.2922 553.154 44.7148 553.938 44.7148 554.063C44.7148 554.189 45.0066 554.292 45.3633 554.292C45.7199 554.292 46.0117 554.429 46.0117 554.595C46.0117 554.761 46.2948 554.898 46.641 554.898C46.9873 554.898 47.3605 555.034 47.4707 555.2C47.5809 555.367 47.9629 555.503 48.3195 555.503C48.6761 555.503 48.8778 555.639 48.7676 555.805C48.6573 555.972 48.869 556.108 49.2383 556.108C49.8754 556.108 52.7999 557.235 53.1445 557.614C53.2337 557.712 54.1091 557.978 55.0898 558.206C56.0706 558.434 57.0919 558.733 57.3594 558.871C58.3447 559.379 64.8521 561.251 65.6318 561.251C66.075 561.251 66.4375 561.373 66.4375 561.521C66.4375 561.784 67.3116 561.967 70.403 562.348C71.2469 562.452 71.8584 562.656 71.7618 562.802C71.6655 562.948 72.3162 563.067 73.2078 563.067C74.0994 563.067 74.919 563.203 75.0293 563.369C75.1395 563.536 75.942 563.672 76.8125 563.672C77.683 563.672 78.4855 563.808 78.5957 563.974C78.7059 564.141 79.8815 564.277 81.2086 564.277C82.5356 564.277 83.6211 564.393 83.6211 564.534C83.6211 564.952 91.6358 565.337 99.9941 565.32C108.731 565.303 117.721 564.911 117.488 564.558C117.403 564.43 118.393 564.255 119.687 564.17C120.982 564.086 122.989 563.864 124.148 563.678C125.308 563.491 127.022 563.265 127.958 563.175C128.894 563.085 129.66 562.887 129.66 562.736C129.66 562.585 130.207 562.453 130.876 562.442C132.327 562.419 135.678 561.787 136.014 561.473C136.145 561.351 136.751 561.251 137.361 561.251C137.971 561.251 139.515 560.989 140.793 560.669C145.31 559.538 147.167 559.133 147.893 559.124C148.297 559.119 148.899 558.922 149.231 558.687C149.563 558.453 150.62 558.169 151.581 558.057C152.542 557.945 153.328 557.733 153.328 557.586C153.328 557.438 153.768 557.318 154.305 557.318C154.843 557.318 155.536 557.199 155.845 557.053C156.791 556.607 158.684 556.108 159.43 556.108C159.819 556.108 160.137 555.972 160.137 555.805C160.137 555.639 160.566 555.503 161.09 555.503C161.615 555.503 162.134 555.367 162.244 555.2C162.354 555.034 162.865 554.898 163.379 554.898C163.893 554.898 164.403 554.761 164.514 554.595C164.624 554.429 165.072 554.292 165.51 554.292C165.948 554.292 166.559 554.173 166.869 554.027C167.802 553.587 169.703 553.082 170.427 553.082C170.8 553.082 171.155 552.98 171.214 552.855C171.274 552.73 172.271 552.387 173.43 552.091C174.589 551.796 176.34 551.341 177.32 551.081C178.301 550.82 179.651 550.537 180.319 550.451C180.988 550.365 181.535 550.19 181.535 550.061C181.535 549.774 184.093 549.149 185.264 549.149C185.731 549.149 186.032 549.028 185.934 548.88C185.767 548.627 186.415 548.445 188.914 548.042C189.495 547.948 190.051 547.751 190.149 547.603C190.247 547.455 190.829 547.333 191.443 547.333C192.057 547.333 192.559 547.197 192.559 547.031C192.559 546.865 193.133 546.728 193.836 546.728C194.539 546.728 195.204 546.592 195.314 546.426C195.425 546.259 195.862 546.123 196.287 546.123C196.712 546.123 197.15 545.987 197.26 545.821C197.37 545.654 197.814 545.518 198.248 545.518C198.68 545.518 200.459 545.158 202.2 544.719C203.941 544.279 206.241 543.769 207.311 543.584C208.38 543.4 209.435 543.14 209.654 543.008C210.124 542.724 214.176 541.892 216.145 541.676C216.903 541.592 217.523 541.419 217.523 541.291C217.523 541.07 218.269 540.933 222.387 540.394C223.367 540.266 224.024 540.121 223.846 540.072C223.667 540.023 224.324 539.873 225.305 539.739C226.285 539.604 227.963 539.344 229.033 539.16C231.249 538.78 234.448 538.427 240.057 537.943C244.257 537.581 254.484 537.826 254.484 538.289C254.484 538.438 255.497 538.559 256.735 538.559C257.973 538.559 259.075 538.695 259.186 538.862C259.296 539.028 260.034 539.164 260.826 539.164C261.618 539.164 262.266 539.301 262.266 539.467C262.266 539.633 263.077 539.769 264.068 539.769C265.059 539.769 265.79 539.891 265.691 540.04C265.592 540.189 266.058 540.389 266.726 540.483C269.627 540.892 270.371 541.062 270.371 541.315C270.371 541.464 270.925 541.585 271.603 541.585C272.281 541.585 272.974 541.71 273.143 541.863C273.313 542.016 274.318 542.288 275.378 542.469C276.437 542.649 277.386 542.912 277.485 543.053C277.585 543.195 278.407 543.401 279.314 543.511C280.221 543.62 282.19 544.114 283.691 544.608C285.192 545.102 286.83 545.509 287.331 545.512C287.832 545.515 288.161 545.639 288.063 545.787C287.896 546.039 288.541 546.221 291.037 546.624C291.616 546.718 292.008 546.915 291.91 547.064C291.812 547.212 292.242 547.333 292.866 547.333C293.49 547.333 294.091 547.47 294.201 547.636C294.311 547.802 294.749 547.939 295.174 547.939C295.599 547.939 296.036 548.075 296.146 548.241C296.257 548.408 296.776 548.544 297.3 548.544C297.825 548.544 298.254 548.661 298.254 548.805C298.254 548.949 299.166 549.24 300.28 549.453C301.395 549.666 302.445 549.957 302.615 550.1C302.784 550.242 303.249 550.359 303.649 550.359C304.049 550.359 304.466 550.495 304.576 550.662C304.686 550.828 305.096 550.966 305.487 550.968C305.878 550.97 307.334 551.311 308.722 551.725C310.111 552.138 311.752 552.477 312.37 552.477C312.987 552.477 313.492 552.613 313.492 552.78C313.492 552.946 313.848 553.082 314.284 553.082C314.719 553.082 315.165 553.218 315.275 553.385C315.386 553.551 315.969 553.687 316.572 553.687C317.175 553.687 317.759 553.823 317.869 553.99C317.979 554.156 318.571 554.292 319.185 554.292C319.799 554.292 320.301 554.414 320.301 554.563C320.301 554.712 320.884 554.916 321.598 555.017C322.311 555.118 323.478 555.282 324.191 555.383C324.905 555.484 325.488 555.674 325.488 555.805C325.488 555.937 326.036 556.113 326.704 556.196C327.373 556.28 328.503 556.514 329.217 556.715C329.93 556.917 331.134 557.149 331.892 557.231C332.65 557.312 333.27 557.501 333.27 557.651C333.27 557.801 333.833 557.923 334.522 557.923C336.279 557.923 339.246 558.482 339.376 558.837C339.435 559 339.958 559.133 340.539 559.133C341.119 559.133 343.621 559.61 346.099 560.192C348.577 560.775 351.081 561.251 351.664 561.251C352.246 561.251 352.723 561.36 352.723 561.492C352.723 561.759 356.721 562.462 358.241 562.462C358.772 562.462 359.207 562.598 359.207 562.764C359.207 562.935 360.119 563.067 361.295 563.067C362.444 563.067 363.474 563.203 363.584 563.369C363.694 563.536 364.914 563.672 366.294 563.672C367.675 563.672 368.954 563.812 369.137 563.982C369.584 564.4 390.551 564.152 394.223 563.685C395.738 563.493 398.437 563.26 400.221 563.168C402.37 563.058 403.244 562.917 402.814 562.753C402.379 562.586 402.882 562.497 404.348 562.483C406.893 562.458 411.082 561.842 411.082 561.492C411.082 561.36 411.603 561.251 412.24 561.251C413.322 561.251 416.613 560.61 420.83 559.576C421.822 559.332 423.014 559.133 423.478 559.133C423.942 559.133 424.369 559.005 424.429 558.847C424.521 558.602 425.976 558.226 429.887 557.436C430.332 557.346 430.989 557.157 431.346 557.016C431.977 556.766 432.547 556.635 435.236 556.126C435.95 555.991 436.387 555.847 436.209 555.805C435.906 555.734 437.423 555.401 439.856 555.003C440.436 554.909 440.91 554.725 440.91 554.595C440.91 554.465 441.384 554.288 441.964 554.202C442.544 554.116 443.601 553.886 444.314 553.691C445.028 553.495 446.012 553.262 446.503 553.174C446.993 553.086 447.395 552.893 447.395 552.745C447.395 552.598 447.831 552.477 448.364 552.477C448.897 552.477 450.086 552.21 451.007 551.884C451.927 551.557 453.316 551.201 454.094 551.092C454.872 550.984 455.588 550.774 455.685 550.627C455.783 550.48 456.189 550.359 456.589 550.359C456.989 550.359 457.454 550.23 457.624 550.072C457.793 549.914 458.917 549.611 460.12 549.398C461.324 549.185 462.309 548.906 462.309 548.777C462.309 548.649 462.819 548.544 463.443 548.544C464.067 548.544 464.578 548.408 464.578 548.241C464.578 548.075 465.007 547.939 465.532 547.939C466.056 547.939 466.575 547.802 466.686 547.636C466.796 547.47 467.388 547.333 468.001 547.333C468.615 547.333 469.117 547.197 469.117 547.031C469.117 546.865 469.619 546.728 470.233 546.728C470.847 546.728 471.439 546.592 471.549 546.426C471.659 546.259 472.251 546.123 472.865 546.123C473.479 546.123 473.98 545.987 473.98 545.821C473.98 545.654 474.403 545.518 474.918 545.518C475.434 545.518 477.72 545.102 479.998 544.594C482.277 544.086 485.101 543.591 486.274 543.494C487.448 543.397 488.573 543.197 488.775 543.049C488.976 542.902 490.8 542.636 492.827 542.459C494.855 542.282 496.767 542.013 497.076 541.861C497.386 541.709 498.581 541.585 499.732 541.585C500.883 541.585 501.901 541.47 501.995 541.329C502.346 540.798 509.268 540.526 522.451 540.526C535.797 540.526 543.363 540.816 543.363 541.328C543.363 541.469 544.457 541.585 545.795 541.585C547.2 541.585 548.227 541.713 548.227 541.887C548.227 542.054 548.774 542.191 549.442 542.192C551.164 542.194 554.466 542.731 554.687 543.044C554.789 543.189 555.813 543.397 556.962 543.507C558.11 543.616 559.496 543.841 560.042 544.007C563.549 545.074 565.287 545.518 565.95 545.518C566.366 545.518 566.707 545.654 566.707 545.821C566.707 545.987 567.226 546.123 567.861 546.123C568.548 546.123 568.934 546.246 568.814 546.426C568.695 546.606 569.088 546.728 569.787 546.728C570.486 546.728 570.879 546.851 570.76 547.031C570.643 547.207 570.972 547.333 571.551 547.333C572.096 547.333 572.543 547.47 572.543 547.636C572.543 547.802 572.908 547.939 573.353 547.939C573.799 547.939 574.164 548.075 574.164 548.241C574.164 548.408 574.683 548.544 575.318 548.544C576.005 548.544 576.391 548.666 576.271 548.846C576.161 549.013 576.325 549.149 576.635 549.149C577.439 549.149 579.352 549.831 579.352 550.117C579.352 550.25 579.576 550.359 579.851 550.359C580.508 550.359 584.397 551.536 585.476 552.061C585.942 552.288 586.711 552.474 587.187 552.475C587.662 552.476 588.1 552.605 588.16 552.762C588.219 552.919 588.997 553.208 589.889 553.403C590.78 553.599 591.763 553.879 592.073 554.026C592.382 554.172 593.002 554.292 593.451 554.292C593.899 554.292 594.266 554.429 594.266 554.595C594.266 554.761 594.622 554.898 595.057 554.898C595.492 554.898 595.939 555.034 596.049 555.2C596.159 555.367 596.833 555.503 597.546 555.503C598.259 555.503 598.763 555.624 598.664 555.773C598.566 555.921 598.959 556.119 599.537 556.212C602.033 556.615 602.678 556.797 602.511 557.049C602.413 557.197 602.925 557.318 603.649 557.318C604.372 557.318 604.965 557.437 604.965 557.582C604.965 557.726 605.658 557.932 606.505 558.038C607.352 558.143 608.463 558.433 608.973 558.682C609.484 558.93 610.18 559.133 610.518 559.133C611.222 559.133 614.226 559.825 617.211 560.673C618.329 560.991 619.752 561.251 620.372 561.251C620.992 561.251 621.5 561.37 621.5 561.514C621.5 561.776 622.665 562.016 626.039 562.447C627.02 562.573 627.603 562.715 627.336 562.764C626.889 562.846 627.962 563.03 631.875 563.543C632.677 563.648 633.473 563.856 633.642 564.005C633.811 564.155 634.723 564.277 635.668 564.277C636.613 564.277 637.387 564.398 637.387 564.545C637.387 564.817 639.522 565.043 645.249 565.374C646.987 565.475 648.41 565.684 648.41 565.838C648.41 566.202 665.736 565.943 669.646 565.52C671.251 565.347 673.765 565.115 675.233 565.005C676.701 564.896 677.824 564.688 677.727 564.542C677.63 564.396 678.334 564.277 679.289 564.277C680.244 564.277 681.165 564.154 681.334 564.004C681.504 563.853 682.299 563.657 683.102 563.567C683.904 563.478 685.397 563.312 686.419 563.198C687.442 563.085 688.199 562.873 688.102 562.727C688.006 562.581 688.628 562.456 689.486 562.448C691.071 562.435 693.904 561.861 694.325 561.468C694.453 561.349 695.08 561.247 695.719 561.24C696.358 561.235 697.756 561.021 698.826 560.766C701.875 560.038 704.854 559.44 706.445 559.234C707.248 559.131 707.992 558.92 708.1 558.766C708.207 558.611 709.338 558.334 710.612 558.15C711.887 557.966 712.93 557.704 712.93 557.567C712.93 557.43 713.44 557.318 714.064 557.318C714.689 557.318 715.199 557.197 715.199 557.048C715.199 556.794 715.667 556.693 719.002 556.223C719.757 556.117 720.295 555.912 720.199 555.766C720.103 555.621 720.617 555.503 721.34 555.503C722.064 555.503 722.656 555.367 722.656 555.2C722.656 555.034 723.167 554.898 723.791 554.898C724.415 554.898 724.926 554.761 724.926 554.595C724.926 554.429 725.357 554.292 725.883 554.292C726.41 554.292 727.176 554.171 727.585 554.021C727.995 553.872 728.987 553.576 729.789 553.364C730.591 553.151 731.386 552.864 731.556 552.727C731.725 552.59 732.131 552.477 732.458 552.477C732.784 552.477 733.959 552.207 735.068 551.876C736.177 551.546 737.886 551.051 738.867 550.777C739.848 550.503 741.132 550.083 741.721 549.844C742.309 549.604 743.294 549.332 743.909 549.239C744.524 549.146 745.027 548.951 745.027 548.807C745.027 548.662 745.465 548.544 746 548.544C746.535 548.544 746.973 548.408 746.973 548.241C746.973 548.075 747.329 547.939 747.764 547.939C748.199 547.939 748.646 547.802 748.756 547.636C748.866 547.47 749.239 547.333 749.585 547.333C749.932 547.333 750.215 547.197 750.215 547.031C750.215 546.865 750.5 546.728 750.848 546.728C751.196 546.728 751.889 546.575 752.388 546.388C752.887 546.201 753.587 545.949 753.943 545.828C755.231 545.392 756.901 544.829 758.969 544.134C760.128 543.745 761.313 543.42 761.604 543.413C761.894 543.406 762.3 543.211 762.506 542.979C762.712 542.748 763.528 542.468 764.321 542.357C765.114 542.246 765.847 542.027 765.951 541.87C766.055 541.713 766.569 541.585 767.093 541.585C767.618 541.585 768.047 541.466 768.047 541.32C768.047 541.174 768.922 540.874 769.992 540.653C771.062 540.431 771.937 540.142 771.937 540.01C771.937 539.878 772.366 539.769 772.891 539.769C773.416 539.769 773.935 539.633 774.045 539.467C774.155 539.301 774.666 539.164 775.18 539.164C775.693 539.164 776.204 539.028 776.314 538.862C776.425 538.695 777.09 538.559 777.792 538.559C778.495 538.559 779.07 538.449 779.07 538.315C779.07 538.181 780.42 537.898 782.069 537.685C783.719 537.473 785.419 537.14 785.847 536.946C786.874 536.48 807.212 536.469 807.541 536.934C807.769 537.256 812.429 537.955 814.348 537.954C814.938 537.954 815.339 538.078 815.239 538.229C815.139 538.38 815.824 538.578 816.76 538.669C819.762 538.961 821.218 539.221 821.402 539.499C821.5 539.648 822.238 539.769 823.04 539.769C823.93 539.769 824.421 539.887 824.299 540.072C824.185 540.244 824.456 540.375 824.924 540.375C826.058 540.375 828.676 541.051 828.676 541.345C828.676 541.477 829.251 541.585 829.953 541.585C830.656 541.585 831.309 541.703 831.405 541.847C831.5 541.991 832.452 542.269 833.521 542.465C834.589 542.661 835.542 542.94 835.638 543.085C835.734 543.229 836.431 543.435 837.188 543.542C837.945 543.65 838.856 543.851 839.213 543.99C841.819 545.007 843.461 545.518 844.119 545.518C844.541 545.518 844.887 545.654 844.887 545.821C844.887 545.987 845.243 546.123 845.678 546.123C846.113 546.123 846.56 546.259 846.67 546.426C846.78 546.592 847.308 546.728 847.843 546.728C848.409 546.728 848.732 546.855 848.615 547.031C848.498 547.207 848.822 547.333 849.387 547.333C849.922 547.333 850.45 547.47 850.56 547.636C850.671 547.802 851.044 547.939 851.39 547.939C851.736 547.939 852.019 548.075 852.019 548.241C852.019 548.408 852.384 548.544 852.83 548.544C853.276 548.544 853.641 548.662 853.641 548.808C853.641 548.953 854.214 549.157 854.914 549.262C855.615 549.366 856.407 549.656 856.675 549.905C856.942 550.155 857.454 550.359 857.813 550.359C858.172 550.359 858.549 550.485 858.65 550.638C858.752 550.792 859.287 551.01 859.838 551.123C860.39 551.236 861.519 551.596 862.347 551.922C863.175 552.249 864.218 552.66 864.664 552.834C865.11 553.01 865.728 553.273 866.037 553.42C866.347 553.567 866.821 553.687 867.091 553.687C867.361 553.687 867.582 553.823 867.582 553.99C867.582 554.156 867.947 554.292 868.392 554.292C868.838 554.292 869.203 554.429 869.203 554.595C869.203 554.761 869.448 554.898 869.747 554.898C870.537 554.898 872.445 555.583 872.445 555.866C872.445 555.999 872.708 556.108 873.029 556.108C873.753 556.108 875.357 556.784 875.361 557.091C875.362 557.216 875.874 557.318 876.498 557.318C877.122 557.318 877.633 557.426 877.633 557.558C877.633 557.69 878.289 557.962 879.092 558.162C879.894 558.362 880.551 558.663 880.551 558.83C880.551 558.997 880.907 559.133 881.342 559.133C881.777 559.133 883.2 559.476 884.503 559.894C888.36 561.131 888.823 561.251 889.733 561.251C890.211 561.251 890.601 561.357 890.601 561.485C890.601 561.768 893.671 562.462 894.926 562.462C895.444 562.462 895.742 562.59 895.627 562.764C895.508 562.944 895.887 563.067 896.561 563.067C897.185 563.067 897.786 563.203 897.896 563.369C898.007 563.536 898.599 563.672 899.212 563.672C899.826 563.672 900.328 563.808 900.328 563.974C900.328 564.141 901.139 564.277 902.13 564.277C903.122 564.277 903.853 564.397 903.756 564.544C903.59 564.795 904.282 564.888 909.73 565.347C910.889 565.445 912.13 565.657 912.486 565.818C913.333 566.202 929.371 565.992 935.992 565.511C938.756 565.31 942.768 565.04 944.908 564.911C947.048 564.781 948.507 564.63 948.15 564.574C947.794 564.519 948.815 564.369 950.42 564.242C952.025 564.115 954.505 563.856 955.932 563.668C957.358 563.479 959.547 563.22 960.795 563.093C962.043 562.966 962.845 562.818 962.578 562.764C962.311 562.71 963.113 562.567 964.361 562.446C969.244 561.971 970.708 561.761 970.874 561.511C970.968 561.368 971.876 561.245 972.891 561.238C973.906 561.231 975.393 561.096 976.195 560.938C976.998 560.78 979.77 560.294 982.355 559.858C984.941 559.422 987.494 558.887 988.029 558.668C988.564 558.45 989.914 558.175 991.028 558.058C992.143 557.941 993.055 557.726 993.055 557.582C993.055 557.437 993.483 557.318 994.008 557.318C994.533 557.318 995.042 557.197 995.14 557.049C995.238 556.901 995.83 556.697 996.456 556.595C997.082 556.494 998.103 556.327 998.726 556.226C999.349 556.125 999.778 555.921 999.679 555.773C999.581 555.624 1000.09 555.503 1000.82 555.503C1001.54 555.503 1002.13 555.367 1002.13 555.2C1002.13 555.034 1002.57 554.898 1003.11 554.898C1003.64 554.898 1004.08 554.761 1004.08 554.595C1004.08 554.429 1004.39 554.292 1004.77 554.292C1005.63 554.292 1009.39 553.051 1009.54 552.719C1009.6 552.586 1009.98 552.477 1010.39 552.477C1010.8 552.477 1012.1 552.137 1013.29 551.721C1014.47 551.305 1015.73 550.964 1016.08 550.964C1016.43 550.964 1016.72 550.828 1016.72 550.662C1016.72 550.495 1017.08 550.359 1017.51 550.359C1017.94 550.359 1018.34 550.228 1018.4 550.068C1018.46 549.909 1019.28 549.595 1020.22 549.37C1021.16 549.146 1021.83 548.869 1021.7 548.753C1021.58 548.638 1021.94 548.544 1022.5 548.544C1023.07 548.544 1023.53 548.408 1023.53 548.241C1023.53 548.075 1023.75 547.939 1024.02 547.939C1024.29 547.939 1024.77 547.818 1025.08 547.671C1025.95 547.258 1027.14 546.805 1028.48 546.385C1029.14 546.174 1029.69 545.893 1029.69 545.76C1029.69 545.627 1029.99 545.518 1030.36 545.518C1030.72 545.518 1032.01 545.126 1033.22 544.646C1034.43 544.166 1035.88 543.679 1036.45 543.563C1037.01 543.447 1037.47 543.244 1037.47 543.113C1037.47 542.982 1038.17 542.709 1039.01 542.509C1039.86 542.308 1040.81 542.018 1041.12 541.864C1041.43 541.711 1042.05 541.585 1042.51 541.585C1042.99 541.585 1043.26 541.454 1043.15 541.282C1043.04 541.116 1043.24 540.98 1043.59 540.98C1043.95 540.98 1044.33 540.844 1044.44 540.677C1044.55 540.511 1045.07 540.375 1045.6 540.375C1046.12 540.375 1046.55 540.238 1046.55 540.072C1046.55 539.906 1047.06 539.769 1047.69 539.769C1048.31 539.769 1048.82 539.633 1048.82 539.467C1048.82 539.301 1049.07 539.164 1049.36 539.164C1049.87 539.164 1051.32 538.786 1052.87 538.252C1053.23 538.129 1054.32 537.866 1055.3 537.668C1056.29 537.469 1057.38 537.195 1057.74 537.058C1058.47 536.777 1061.41 536.35 1067.14 535.693C1073.3 534.986 1083.48 535.25 1094.7 536.409C1096.3 536.575 1098.67 536.748 1099.97 536.793C1101.26 536.839 1102.32 536.961 1102.32 537.063C1102.32 537.286 1108.66 537.955 1110.76 537.954C1111.57 537.954 1112.38 538.079 1112.55 538.231C1112.71 538.383 1113.73 538.579 1114.8 538.665C1115.87 538.751 1117.62 538.976 1118.69 539.164C1119.76 539.353 1121.47 539.578 1122.5 539.665C1123.52 539.752 1124.36 539.947 1124.36 540.099C1124.36 540.251 1124.83 540.375 1125.4 540.375C1126.84 540.375 1130.2 541.051 1130.2 541.343C1130.2 541.476 1130.86 541.585 1131.66 541.585C1132.46 541.585 1133.12 541.705 1133.12 541.853C1133.12 542 1133.92 542.214 1134.9 542.328C1135.88 542.443 1136.87 542.709 1137.1 542.92C1137.32 543.131 1138.28 543.4 1139.23 543.517C1140.18 543.635 1141.2 543.849 1141.49 543.993C1142.38 544.425 1146.37 545.518 1147.07 545.518C1147.42 545.518 1147.71 545.654 1147.71 545.821C1147.71 545.987 1148.14 546.123 1148.66 546.123C1149.18 546.123 1149.7 546.259 1149.81 546.426C1149.92 546.592 1150.45 546.728 1150.99 546.728C1151.55 546.728 1151.88 546.855 1151.76 547.031C1151.65 547.197 1151.79 547.333 1152.07 547.333C1152.87 547.333 1155.16 548.061 1155.16 548.315C1155.16 548.441 1155.6 548.544 1156.14 548.544C1156.67 548.544 1157.11 548.663 1157.11 548.809C1157.11 548.954 1157.55 549.155 1158.08 549.255C1158.62 549.355 1159.74 549.727 1160.57 550.082C1161.41 550.437 1162.83 550.931 1163.73 551.181C1164.63 551.431 1165.66 551.825 1166.01 552.056C1166.37 552.288 1167.06 552.477 1167.56 552.477C1168.05 552.477 1168.46 552.608 1168.46 552.768C1168.46 552.927 1169.08 553.223 1169.83 553.424C1170.59 553.625 1171.35 553.902 1171.52 554.041C1171.69 554.179 1172.09 554.292 1172.41 554.292C1172.73 554.292 1173 554.429 1173 554.595C1173 554.761 1173.35 554.898 1173.79 554.898C1174.22 554.898 1174.67 555.034 1174.78 555.2C1174.89 555.367 1175.26 555.503 1175.61 555.503C1175.96 555.503 1176.24 555.639 1176.24 555.805C1176.24 555.972 1176.67 556.108 1177.19 556.108C1177.72 556.108 1178.24 556.244 1178.35 556.41C1178.46 556.577 1178.83 556.713 1179.18 556.713C1179.52 556.713 1179.8 556.849 1179.8 557.016C1179.8 557.182 1180.32 557.318 1180.94 557.318C1181.56 557.318 1182.07 557.437 1182.07 557.582C1182.07 557.726 1182.84 557.94 1183.77 558.055C1184.7 558.17 1185.67 558.426 1185.93 558.623C1186.18 558.821 1187.35 559.142 1188.53 559.336C1189.7 559.531 1192.42 559.985 1194.56 560.346C1196.7 560.707 1199.91 561.129 1201.69 561.286C1203.47 561.442 1206.24 561.682 1207.85 561.82C1211.3 562.116 1226.57 561.924 1226.81 561.582C1226.9 561.451 1228.73 561.316 1230.87 561.282C1234.78 561.22 1236.84 561.055 1244.32 560.209C1250.23 559.542 1253.17 559.107 1253.78 558.812C1254.08 558.669 1255.32 558.398 1256.54 558.21C1257.76 558.023 1259.01 557.745 1259.31 557.593C1259.62 557.442 1260.16 557.318 1260.51 557.318C1260.86 557.318 1261.23 557.197 1261.32 557.049C1261.42 556.901 1261.98 556.703 1262.56 556.609C1265.06 556.207 1265.71 556.024 1265.54 555.771C1265.44 555.624 1265.8 555.503 1266.33 555.503C1266.87 555.503 1267.4 555.367 1267.51 555.2C1267.62 555.034 1267.99 554.898 1268.34 554.898C1268.68 554.898 1268.96 554.761 1268.96 554.595C1268.96 554.429 1269.26 554.292 1269.62 554.292C1269.98 554.292 1270.52 554.178 1270.83 554.038C1271.14 553.897 1272.05 553.507 1272.86 553.17C1276.19 551.768 1281.61 549.176 1281.93 548.822C1282.02 548.726 1282.57 548.454 1283.15 548.219C1283.73 547.983 1284.2 547.688 1284.2 547.562C1284.2 547.436 1284.52 547.333 1284.91 547.333C1285.29 547.333 1285.51 547.245 1285.4 547.136C1285.28 547.028 1285.51 546.78 1285.91 546.585C1287.74 545.689 1288.45 545.263 1289.92 544.161C1290.48 543.743 1291.03 543.4 1291.14 543.4C1291.32 543.4 1291.8 543.055 1293.39 541.778C1293.78 541.467 1294.6 540.855 1295.21 540.416C1298.01 538.419 1305.28 531.68 1305.28 531.078C1305.28 531.009 1305.46 530.779 1305.68 530.568C1305.91 530.356 1306.45 529.732 1306.9 529.18C1307.34 528.628 1307.89 528.003 1308.11 527.792C1308.34 527.581 1308.52 527.262 1308.52 527.083C1308.52 526.905 1308.63 526.759 1308.76 526.759C1308.9 526.759 1309.19 526.377 1309.41 525.909C1309.64 525.44 1310.07 524.786 1310.38 524.454C1310.7 524.121 1311.23 523.381 1311.56 522.808C1313.8 519.012 1314.68 517.34 1314.68 516.919C1314.68 516.654 1314.83 516.521 1315 516.624C1315.19 516.729 1315.33 516.481 1315.33 516.054C1315.33 515.638 1315.47 515.214 1315.65 515.111C1315.83 515.008 1315.98 514.583 1315.98 514.167C1315.98 513.74 1316.12 513.492 1316.3 513.598C1316.48 513.704 1316.62 513.45 1316.62 513.011C1316.62 512.585 1316.77 512.236 1316.95 512.236C1317.13 512.236 1317.27 511.904 1317.27 511.498C1317.27 511.091 1317.42 510.675 1317.6 510.572C1317.78 510.469 1317.92 510.045 1317.92 509.629C1317.92 509.202 1318.06 508.954 1318.25 509.06C1318.43 509.168 1318.57 508.876 1318.57 508.368C1318.57 507.885 1318.86 506.685 1319.21 505.703C1319.56 504.72 1319.85 503.637 1319.86 503.296C1319.86 502.955 1320 502.546 1320.16 502.388C1320.31 502.23 1320.61 500.875 1320.81 499.378C1321.02 497.88 1321.32 495.838 1321.5 494.839C1321.92 492.457 1321.9 482.973 1321.47 480.467C1321.29 479.386 1320.99 477.412 1320.82 476.08C1320.64 474.749 1320.35 473.424 1320.18 473.135C1320.01 472.846 1319.87 472.418 1319.87 472.186C1319.87 471.953 1319.65 471.376 1319.39 470.904C1319.13 470.432 1318.82 469.464 1318.71 468.754C1318.59 468.044 1318.38 467.529 1318.24 467.609C1318.11 467.69 1317.8 467.144 1317.56 466.396C1317.33 465.648 1317.02 465.037 1316.88 465.037C1316.74 465.037 1316.62 464.696 1316.62 464.28C1316.62 463.864 1316.5 463.524 1316.34 463.524C1316.18 463.524 1315.86 462.92 1315.62 462.182C1315.39 461.444 1315.08 460.907 1314.94 460.989C1314.8 461.072 1314.68 460.875 1314.68 460.553C1314.68 460.23 1314.17 459.178 1313.55 458.215C1312.93 457.252 1312.33 456.214 1312.23 455.909C1312.13 455.604 1311.91 455.355 1311.74 455.355C1311.57 455.355 1311.44 455.192 1311.44 454.993C1311.44 454.595 1309.8 452.238 1309.41 452.077C1309.28 452.022 1309.17 451.783 1309.17 451.548C1309.17 451.312 1309.04 451.119 1308.88 451.119C1308.73 451.119 1308.42 450.711 1308.2 450.211C1307.97 449.712 1307.68 449.304 1307.55 449.304C1307.41 449.304 1307.21 449.066 1307.11 448.774C1306.75 447.782 1305.69 446.293 1305.48 446.488C1305.37 446.594 1305.28 446.457 1305.28 446.183C1305.28 445.909 1304.77 444.94 1304.14 444.029C1303.52 443.119 1303 442.265 1303 442.132C1303 442 1302.71 441.551 1302.36 441.134C1302.01 440.718 1301.72 440.14 1301.72 439.849C1301.71 439.557 1301.59 439.319 1301.45 439.319C1301.11 439.319 1299.77 436.73 1299.77 436.084C1299.77 435.811 1299.67 435.68 1299.54 435.794C1299.27 436.045 1298.47 434.338 1298.47 433.518C1298.47 433.194 1298.32 433.014 1298.14 433.117C1297.97 433.219 1297.82 433.085 1297.82 432.817C1297.82 432.55 1297.53 431.767 1297.17 431.079C1296.82 430.39 1296.52 429.647 1296.52 429.429C1296.52 429.211 1296.39 429.032 1296.24 429.032C1296.08 429.032 1295.85 428.528 1295.72 427.913C1295.6 427.297 1295.29 426.518 1295.04 426.182C1294.78 425.845 1294.58 425.332 1294.58 425.042C1294.58 424.751 1294.37 424.067 1294.12 423.521C1293.87 422.974 1293.43 422.027 1293.14 421.417C1292.86 420.806 1292.54 419.889 1292.43 419.379C1292.32 418.869 1292.1 418.526 1291.94 418.616C1291.79 418.707 1291.66 418.362 1291.66 417.851C1291.66 417.34 1291.53 416.685 1291.38 416.396C1290.8 415.337 1290.36 413.681 1290.36 412.579C1290.36 411.957 1290.24 411.52 1290.09 411.608C1289.76 411.798 1289.28 406.879 1289.29 403.466C1289.31 399.878 1289.77 395.643 1290.08 396.11C1290.25 396.354 1290.35 395.952 1290.36 395.07C1290.36 394.279 1290.49 393.632 1290.65 393.632C1290.81 393.632 1291.02 393.122 1291.12 392.498C1291.47 390.275 1291.74 389.405 1292.02 389.569C1292.18 389.66 1292.31 389.42 1292.31 389.036C1292.32 388.24 1292.87 386.689 1293.68 385.206C1293.99 384.648 1294.33 383.734 1294.44 383.174C1294.55 382.615 1294.84 382.004 1295.08 381.819C1295.32 381.632 1295.62 380.88 1295.73 380.147C1295.85 379.413 1296.08 378.888 1296.24 378.979C1296.39 379.07 1296.53 378.831 1296.53 378.446C1296.53 378.062 1296.82 377.407 1297.17 376.991C1297.52 376.575 1297.81 375.929 1297.81 375.554C1297.82 375.18 1297.97 374.874 1298.14 374.874C1298.32 374.874 1298.47 374.601 1298.47 374.268C1298.47 373.936 1298.61 373.663 1298.79 373.663C1298.97 373.663 1299.12 373.323 1299.12 372.907C1299.12 372.491 1299.23 372.15 1299.36 372.15C1299.5 372.15 1299.8 371.708 1300.03 371.167C1300.27 370.626 1300.59 369.948 1300.76 369.659C1300.93 369.37 1301.06 368.919 1301.06 368.657C1301.06 368.396 1301.21 368.266 1301.39 368.368C1301.56 368.471 1301.71 368.368 1301.71 368.139C1301.71 367.91 1302.13 366.957 1302.64 366.021C1303.16 365.084 1303.68 363.947 1303.8 363.493C1303.92 363.039 1304.3 362.332 1304.65 361.922C1304.99 361.512 1305.28 360.846 1305.28 360.443C1305.28 360.031 1305.42 359.792 1305.6 359.897C1305.78 360 1305.93 359.831 1305.93 359.521C1305.93 358.831 1306.65 357.33 1306.98 357.327C1307.11 357.326 1307.22 357.119 1307.22 356.867C1307.22 356.615 1307.37 356.139 1307.55 355.808C1307.73 355.478 1308.02 354.937 1308.2 354.606C1308.37 354.275 1308.52 353.799 1308.52 353.547C1308.52 353.295 1308.67 353.089 1308.84 353.089C1309.02 353.089 1309.17 352.844 1309.17 352.544C1309.17 351.868 1309.89 350.372 1310.22 350.368C1310.36 350.367 1310.46 349.958 1310.46 349.458C1310.46 348.959 1310.59 348.551 1310.75 348.551C1310.91 348.551 1311.14 348.04 1311.27 347.416C1311.39 346.792 1311.66 346.095 1311.86 345.868C1312.26 345.415 1312.96 343.768 1313.35 342.348C1313.49 341.849 1313.85 341.005 1314.14 340.472C1314.44 339.94 1314.68 339.157 1314.68 338.733C1314.68 338.308 1314.8 337.961 1314.95 337.961C1315.09 337.961 1315.41 337.082 1315.65 336.008C1315.89 334.934 1316.21 334.125 1316.36 334.211C1316.5 334.296 1316.62 333.881 1316.62 333.289C1316.62 332.697 1316.77 332.212 1316.95 332.212C1317.13 332.212 1317.27 331.744 1317.27 331.171C1317.27 330.599 1317.42 330.046 1317.6 329.943C1317.78 329.84 1317.92 329.28 1317.92 328.697C1317.92 328.068 1318.05 327.714 1318.25 327.825C1318.43 327.93 1318.57 327.703 1318.57 327.314C1318.56 326.252 1319.85 318.912 1320.29 317.538C1320.82 315.867 1320.84 295.877 1320.31 295.271C1320.1 295.037 1319.86 294.165 1319.78 293.333C1319.56 291.205 1318.47 285.799 1318.22 285.618C1318 285.462 1317.69 284.194 1317.38 282.212C1317.28 281.587 1317.07 281.001 1316.91 280.909C1316.76 280.817 1316.62 280.333 1316.62 279.834C1316.62 279.306 1316.49 279.004 1316.3 279.113C1316.11 279.224 1315.98 278.87 1315.98 278.241C1315.98 277.658 1315.83 277.098 1315.65 276.995C1315.47 276.892 1315.33 276.4 1315.33 275.9C1315.33 275.372 1315.19 275.071 1315 275.18C1314.81 275.288 1314.68 274.984 1314.68 274.449C1314.68 273.945 1314.4 272.949 1314.06 272.238C1313.72 271.526 1313.22 270.263 1312.95 269.431C1312.39 267.729 1311.25 264.99 1310.59 263.8C1310.35 263.366 1310.25 262.923 1310.37 262.817C1310.48 262.71 1310.4 262.623 1310.19 262.623C1309.99 262.623 1309.82 262.359 1309.82 262.036C1309.82 261.713 1309.67 261.365 1309.49 261.262C1309.31 261.159 1309.17 260.811 1309.17 260.487C1309.17 260.164 1309.02 259.9 1308.84 259.9C1308.67 259.9 1308.52 259.626 1308.52 259.291C1308.52 258.732 1307.96 257.54 1307.53 257.177C1307.26 256.953 1305.93 254.203 1305.93 253.877C1305.93 253.723 1305.82 253.552 1305.68 253.496C1305.55 253.441 1305.01 252.578 1304.49 251.58C1303.96 250.581 1303.12 249.159 1302.62 248.419C1302.12 247.679 1301.71 246.806 1301.71 246.478C1301.71 246.15 1301.61 245.971 1301.5 246.08C1301.38 246.19 1300.92 245.6 1300.48 244.769C1300.04 243.939 1299.56 243.259 1299.4 243.259C1299.24 243.259 1299.12 242.987 1299.12 242.654C1299.12 242.321 1298.97 242.049 1298.79 242.049C1298.61 242.049 1298.47 241.777 1298.47 241.444C1298.47 241.111 1298.36 240.839 1298.22 240.839C1297.98 240.839 1297.78 240.548 1296.85 238.849C1296.59 238.362 1296.29 237.896 1296.19 237.813C1296.08 237.73 1295.81 237.22 1295.57 236.679C1295.34 236.138 1295.02 235.695 1294.86 235.695C1294.71 235.695 1294.58 235.525 1294.58 235.317C1294.57 235.109 1294.34 234.53 1294.04 234.031C1292.77 231.859 1292.31 230.843 1292.31 230.246C1292.31 229.895 1292.16 229.692 1291.98 229.795C1291.81 229.898 1291.66 229.702 1291.66 229.359C1291.66 229.017 1291.51 228.736 1291.34 228.736C1291.16 228.736 1291.01 228.404 1291.01 227.998C1291.01 227.592 1290.87 227.175 1290.69 227.072C1290.51 226.969 1290.36 226.409 1290.36 225.826C1290.36 225.244 1290.24 224.84 1290.08 224.929C1289.93 225.018 1289.69 224.243 1289.54 223.207C1289.04 219.607 1289.43 210.686 1290.08 211.057C1290.23 211.149 1290.36 210.611 1290.36 209.862C1290.36 209.113 1290.51 208.416 1290.69 208.314C1290.87 208.211 1291.01 207.726 1291.01 207.237C1291.01 206.747 1291.16 206.347 1291.34 206.347C1291.51 206.347 1291.66 205.862 1291.66 205.27C1291.66 204.629 1291.79 204.269 1291.98 204.38C1292.16 204.483 1292.31 204.285 1292.31 203.939C1292.31 203.073 1293.06 200.901 1293.36 200.901C1293.5 200.901 1293.61 200.56 1293.61 200.144C1293.61 199.728 1293.73 199.388 1293.89 199.388C1294.05 199.388 1294.28 198.786 1294.39 198.051C1294.51 197.316 1294.82 196.549 1295.08 196.348C1295.34 196.146 1295.65 195.454 1295.76 194.81C1295.87 194.166 1296.08 193.639 1296.24 193.639C1296.4 193.639 1296.52 193.401 1296.52 193.11C1296.53 192.819 1296.82 192.135 1297.17 191.59C1297.53 191.045 1297.82 190.398 1297.82 190.153C1297.82 189.907 1297.97 189.706 1298.14 189.706C1298.32 189.706 1298.47 189.442 1298.47 189.119C1298.47 188.796 1298.61 188.447 1298.79 188.344C1298.97 188.242 1299.12 187.817 1299.12 187.401C1299.12 186.974 1299.26 186.726 1299.44 186.832C1299.62 186.935 1299.77 186.832 1299.77 186.604C1299.77 186.376 1300.06 185.625 1300.41 184.936C1300.77 184.247 1301.06 183.541 1301.06 183.367C1301.06 183.192 1301.21 183.05 1301.39 183.05C1301.56 183.05 1301.71 182.844 1301.71 182.593C1301.71 182.343 1302.51 180.716 1303.49 178.978C1304.47 177.241 1305.28 175.608 1305.28 175.35C1305.28 175.092 1305.41 174.88 1305.57 174.88C1305.73 174.88 1306.09 174.37 1306.37 173.746C1306.65 173.122 1307.09 172.271 1307.34 171.855C1307.6 171.439 1308.44 169.873 1309.21 168.375C1309.98 166.878 1310.71 165.583 1310.84 165.498C1310.96 165.413 1311.17 164.936 1311.29 164.439C1311.42 163.941 1311.68 163.357 1311.86 163.139C1312.35 162.564 1314.68 157.583 1314.68 157.12C1314.68 156.904 1314.8 156.727 1314.95 156.727C1315.09 156.727 1315.41 156.052 1315.65 155.228C1315.89 154.403 1316.21 153.798 1316.36 153.884C1316.5 153.97 1316.62 153.623 1316.62 153.114C1316.62 152.605 1316.75 152.188 1316.91 152.188C1317.18 152.188 1317.28 151.906 1317.78 149.544C1317.9 149.005 1318.12 148.638 1318.28 148.73C1318.44 148.821 1318.57 148.591 1318.57 148.219C1318.57 147.477 1318.99 146.126 1319.89 144.007C1320.21 143.251 1320.57 141.89 1320.69 140.981C1320.81 140.073 1321.12 138.732 1321.37 138.001C1321.63 137.27 1321.93 135.398 1322.04 133.841C1322.14 132.283 1322.36 131.009 1322.51 131.009C1322.66 131.009 1322.79 127.665 1322.79 123.578C1322.79 118.702 1322.67 116.212 1322.46 116.335C1322.26 116.452 1322.14 115.839 1322.14 114.703C1322.14 112.725 1321.59 109.85 1321.13 109.391C1320.97 109.233 1320.84 108.719 1320.84 108.249C1320.84 107.779 1320.54 106.615 1320.16 105.662C1319.79 104.709 1319.24 103.14 1318.94 102.175C1318.63 101.21 1318.28 100.518 1318.15 100.637C1318.03 100.756 1317.92 100.625 1317.92 100.345C1317.92 100.066 1317.78 99.5666 1317.6 99.2359C1317.42 98.9055 1317.13 98.3645 1316.95 98.0341C1316.77 97.7034 1316.62 97.2269 1316.62 96.9752C1316.62 96.7231 1316.52 96.5159 1316.38 96.5147C1316.09 96.5119 1315.33 95.0466 1315.33 94.4902C1315.33 94.2736 1315.18 94.0966 1315 94.0966C1314.83 94.0966 1314.68 93.909 1314.68 93.6794C1314.68 93.45 1314.17 92.4709 1313.54 91.5036C1312.92 90.5363 1312.41 89.5736 1312.41 89.3642C1312.41 89.1545 1312.23 88.8744 1312 88.7412C1311.61 88.5074 1311.3 88.0414 1309.79 85.4926C1309.41 84.8373 1308.9 84.1217 1308.67 83.9024C1308.43 83.683 1308.15 83.2319 1308.03 82.9C1307.92 82.5681 1307.69 82.2967 1307.53 82.2967C1307.36 82.2967 1307.22 82.1136 1307.22 81.8897C1307.22 81.6659 1306.93 81.2362 1306.57 80.9352C1306.22 80.6341 1305.93 80.2045 1305.93 79.9806C1305.93 79.7567 1305.81 79.5736 1305.67 79.5736C1305.53 79.5736 1305.24 79.1991 1305.03 78.7416C1304.82 78.2841 1304.35 77.5011 1303.99 77.0019C1303.63 76.5026 1303.2 75.788 1303.02 75.4134C1302.84 75.0388 1302.56 74.7327 1302.39 74.7327C1302.22 74.7327 1301.99 74.3242 1301.87 73.825C1301.76 73.3257 1301.54 72.9173 1301.4 72.9173C1301.26 72.9173 1301.06 72.6792 1300.96 72.3878C1300.77 71.8226 1299.73 70.1431 1299.42 69.8917C1299.31 69.8085 1299.02 69.2978 1298.77 68.7571C1298.52 68.2161 1298.2 67.7738 1298.07 67.7738C1297.93 67.7738 1297.82 67.5356 1297.81 67.2443C1297.81 66.9529 1297.52 66.3744 1297.17 65.9584C1296.82 65.5424 1296.53 64.9409 1296.53 64.622C1296.53 64.3031 1296.43 64.1279 1296.32 64.2323C1296.1 64.4323 1294.28 61.2215 1294.26 60.613C1294.26 60.4191 1294.14 60.2149 1294.01 60.1592C1293.6 59.9891 1292.31 57.4661 1292.31 56.8349C1292.31 56.5082 1292.16 56.3248 1291.98 56.4277C1291.8 56.5333 1291.66 56.2855 1291.66 55.8583C1291.66 55.4422 1291.51 55.0178 1291.34 54.9149C1291.16 54.812 1291.01 54.4638 1291.01 54.1406C1291.01 53.8175 1290.87 53.5534 1290.69 53.5534C1290.51 53.5534 1290.36 53.1367 1290.36 52.6278C1290.36 52.0878 1290.23 51.78 1290.04 51.8893C1289.84 52.0021 1289.71 51.5958 1289.71 50.866C1289.71 50.2004 1289.57 49.5717 1289.39 49.4688C1289.21 49.3659 1289.07 48.8246 1289.07 48.2658C1289.07 47.7073 1288.88 47.1932 1288.66 47.1239C1288.11 46.9515 1288.07 30.9481 1288.62 30.6234C1288.83 30.5045 1289.08 29.7947 1289.18 29.0459C1289.62 25.918 1289.8 25.1126 1290.07 25.1126C1290.23 25.1126 1290.36 24.7123 1290.36 24.2228C1290.36 23.7332 1290.51 23.2488 1290.69 23.1459C1290.87 23.0431 1291.01 22.5665 1291.01 22.087C1291.01 21.6074 1291.16 21.1309 1291.34 21.028C1291.51 20.9251 1291.66 20.5088 1291.66 20.1025C1291.66 19.6961 1291.81 19.3639 1291.98 19.3639C1292.16 19.3639 1292.31 19.1352 1292.31 18.8559C1292.31 18.1192 1293.04 16.3383 1293.35 16.3383C1293.49 16.3383 1293.61 15.9571 1293.61 15.4911C1293.61 15.0252 1293.73 14.5148 1293.87 14.3565C1294.02 14.1986 1294.32 13.4906 1294.54 12.7832C1294.75 12.0761 1295.06 11.4973 1295.21 11.4973C1295.37 11.4973 1295.6 10.9185 1295.72 10.2114C1295.85 9.50406 1296.05 8.85748 1296.16 8.77428C1296.37 8.61786 1297.65 6.16983 1298.22 4.84098C1298.4 4.42496 1298.67 3.84828 1298.83 3.55933C1298.99 3.27039 1299.12 2.81957 1299.12 2.55816C1299.12 2.29644 1299.26 2.16634 1299.44 2.26921C1299.63 2.37541 1299.77 2.12096 1299.77 1.68194C1299.77 1.25623 1299.91 0.907684 1300.09 0.907684C1300.27 0.907684 1300.41 0.703455 1300.41 0.453842C1300.41 0.0505278 1229.47 0 663.833 0H27.2524L27.5183 0.865628ZM34.5632 397.49C34.4818 397.781 34.4151 397.543 34.4151 396.961C34.4151 396.378 34.4818 396.14 34.5632 396.431C34.6449 396.722 34.6449 397.199 34.5632 397.49Z" fill="#C77D86"/>
</svg>
