<svg width="330" height="86" viewBox="0 0 330 86" preserveAspectRatio="none"  fill="none" xmlns="http://www.w3.org/2000/svg">
<g clip-path="url(#clip0_48_224)">
<path fill-rule="evenodd" clip-rule="evenodd" d="M44.5982 0.263404C43.125 0.38586 41.1656 0.522962 40.2439 0.567987C39.3222 0.613012 38.6362 0.713969 38.7196 0.792335C38.8053 0.872882 38.1011 0.934733 37.0982 0.934733C35.9847 0.934733 35.3871 0.99269 35.4911 1.09053C35.5912 1.18479 35.2013 1.24898 34.5024 1.25318C33.8676 1.25692 32.8661 1.36099 32.2768 1.48454C31.6875 1.60793 30.7232 1.71123 30.1339 1.71372C29.3427 1.7173 29.1675 1.75797 29.4643 1.86952C29.7496 1.9767 29.419 2.02126 28.3259 2.02298C27.4789 2.02422 26.7857 2.09199 26.7857 2.17332C26.7857 2.2548 26.0625 2.369 25.1786 2.42727C24.2946 2.48538 23.5714 2.59397 23.5714 2.6686C23.5714 2.74323 22.9987 2.80539 22.2991 2.80664C21.379 2.80835 21.1379 2.85088 21.4286 2.9601C21.7114 3.0665 21.3303 3.11184 20.1404 3.11356C19.1287 3.11496 18.5143 3.17603 18.6096 3.26561C18.6988 3.34943 18.1757 3.46114 17.4201 3.51941C16.6784 3.57658 16.0714 3.68455 16.0714 3.75918C16.0714 3.83381 15.5218 3.89488 14.8503 3.89488C14.1043 3.89488 13.6934 3.95548 13.7946 4.05068C13.8967 4.1468 13.4349 4.20647 12.5893 4.20647C11.8353 4.20647 11.2843 4.26864 11.3652 4.34451C11.4458 4.42054 10.8501 4.53069 10.0417 4.58942C9.23304 4.64816 8.57143 4.76142 8.57143 4.84088C8.57143 4.92033 8.14955 4.98546 7.63393 4.98546C7.1183 4.98546 6.69643 5.05557 6.69643 5.14125C6.69643 5.22694 6.14679 5.29705 5.47527 5.29705C4.72929 5.29705 4.31839 5.35766 4.41964 5.45285C4.51714 5.54461 4.22116 5.60911 3.69884 5.60958C3.21134 5.6102 2.46723 5.71537 2.04536 5.84328C1.62321 5.97134 0.990536 6.07604 0.639107 6.07604H0V46.038V85.9999H165H330V44.0126V2.02531L326.049 2.02765C323.832 2.02905 322.253 2.08716 322.451 2.16008C322.658 2.23642 321.391 2.33582 319.391 2.40047C317.514 2.46123 315.766 2.57683 315.507 2.65754C315.247 2.73824 313.935 2.8043 312.591 2.8043C311.03 2.8043 310.207 2.86054 310.312 2.9601C310.419 3.05981 309.556 3.11589 307.918 3.11589C306.509 3.11589 305.357 3.17572 305.357 3.24879C305.357 3.32201 304.428 3.42749 303.293 3.48326C302.158 3.53904 301.11 3.65448 300.963 3.73986C300.816 3.82508 300.05 3.89488 299.261 3.89488C298.372 3.89488 297.888 3.95424 297.991 4.05068C298.096 4.14945 297.39 4.20741 296.065 4.20881C294.616 4.21052 294.097 4.25757 294.375 4.36227C294.662 4.46992 294.354 4.51433 293.304 4.51666C292.493 4.51853 291.485 4.62479 291.063 4.7527C290.641 4.88076 289.677 4.98655 288.92 4.98779C287.933 4.98951 287.658 5.03298 287.946 5.14125C288.228 5.24689 287.801 5.293 286.524 5.29471C285.51 5.29596 284.767 5.35937 284.85 5.43758C284.932 5.51486 284.276 5.62687 283.392 5.68654C282.509 5.74621 281.786 5.85823 281.786 5.93551C281.786 6.01278 281.176 6.07604 280.431 6.07604C279.595 6.07604 279.139 6.13586 279.241 6.23183C279.343 6.32796 278.881 6.38763 278.036 6.38763C277.19 6.38763 276.728 6.4473 276.83 6.54343C276.921 6.62912 276.756 6.69923 276.463 6.69923C276.171 6.69923 275.75 6.80439 275.529 6.93292C275.308 7.06145 274.75 7.16662 274.289 7.16662C273.798 7.16662 273.519 7.23127 273.616 7.32241C273.72 7.42041 273.104 7.47915 271.958 7.48055C270.841 7.48211 270.274 7.53477 270.496 7.6164C270.735 7.70443 270.347 7.787 269.358 7.85898C268.532 7.91896 267.857 8.03316 267.857 8.11262C267.857 8.19207 267.307 8.2572 266.636 8.2572C265.89 8.2572 265.479 8.3178 265.58 8.41299C265.682 8.50834 265.265 8.56879 264.509 8.56879C263.753 8.56879 263.336 8.62924 263.438 8.72459C263.533 8.81433 263.284 8.88085 262.851 8.88132C262.437 8.88194 261.753 8.98711 261.331 9.11502C260.909 9.24308 260.065 9.34887 259.456 9.35011C258.642 9.35198 258.455 9.39265 258.75 9.50357C259.04 9.61263 258.794 9.65532 257.864 9.65703C257.074 9.65844 256.64 9.71966 256.741 9.81517C256.837 9.90522 256.582 9.97096 256.138 9.97096C255.716 9.97096 255.136 10.0739 254.85 10.1997C254.564 10.3256 253.992 10.4307 253.578 10.4334C253.146 10.4362 252.896 10.5047 252.991 10.5942C253.091 10.6883 252.726 10.75 252.069 10.75C251.472 10.75 250.982 10.8169 250.982 10.8987C250.982 10.9805 250.559 11.0936 250.042 11.15C249.524 11.2064 249.035 11.3149 248.954 11.3907C248.874 11.4668 248.446 11.5289 248.004 11.5289C247.537 11.5289 247.27 11.5941 247.366 11.6847C247.466 11.779 247.096 11.8405 246.429 11.8405C245.761 11.8405 245.391 11.9021 245.491 11.9963C245.587 12.0864 245.332 12.1521 244.888 12.1521C244.466 12.1521 243.886 12.2551 243.6 12.3808C243.314 12.5067 242.742 12.6119 242.328 12.6145C241.896 12.6173 241.646 12.6859 241.741 12.7753C241.841 12.8696 241.471 12.9311 240.804 12.9311C240.197 12.9311 239.768 12.995 239.851 13.073C239.934 13.1513 239.52 13.2625 238.931 13.3203C238.342 13.3782 237.792 13.4896 237.709 13.5679C237.626 13.6461 237.196 13.7101 236.754 13.7101C236.287 13.7101 236.02 13.7752 236.116 13.8659C236.216 13.9601 235.846 14.0217 235.179 14.0217C234.511 14.0217 234.141 14.0832 234.241 14.1775C234.337 14.2675 234.082 14.3333 233.638 14.3333C233.216 14.3333 232.636 14.4363 232.35 14.562C232.064 14.6879 231.492 14.793 231.078 14.7957C230.646 14.7985 230.396 14.867 230.491 14.9565C230.592 15.0509 230.211 15.1123 229.525 15.1123C228.902 15.1123 228.477 15.161 228.579 15.2205C228.787 15.3416 226.747 15.7174 225.202 15.8425C224.651 15.8872 224.266 15.9866 224.348 16.0634C224.429 16.1401 224 16.2028 223.393 16.2028C222.726 16.2028 222.355 16.2644 222.455 16.3586C222.549 16.4465 222.293 16.5261 221.868 16.5411C221.455 16.5557 220.908 16.5754 220.653 16.5846C220.398 16.5937 220.043 16.6869 219.863 16.7916C219.683 16.8961 218.987 16.9829 218.317 16.9842C217.431 16.9859 217.208 17.028 217.5 17.1376C217.79 17.2465 217.534 17.2894 216.585 17.2911C215.86 17.2923 215.356 17.3448 215.464 17.4075C215.65 17.5158 213.449 17.8378 211.272 18.0207C210.72 18.0671 210.268 18.1679 210.268 18.2446C210.268 18.3212 209.718 18.384 209.047 18.384C208.301 18.384 207.89 18.4446 207.991 18.5398C208.09 18.6334 207.743 18.6956 207.121 18.6956C206.551 18.6956 205.851 18.7986 205.565 18.9243C205.279 19.0502 204.525 19.1554 203.89 19.158C203.191 19.161 202.801 19.2244 202.902 19.3188C203.007 19.4174 202.319 19.4746 201.027 19.4746C199.735 19.4746 199.047 19.5318 199.152 19.6304C199.26 19.7324 197.235 19.7862 193.275 19.7862C189.425 19.7862 187.232 19.7296 187.232 19.6304C187.232 19.5388 186.295 19.4746 184.955 19.4746C183.616 19.4746 182.679 19.4104 182.679 19.3188C182.679 19.2331 182.008 19.163 181.188 19.163C180.368 19.163 179.463 19.0902 179.177 19.0013C178.892 18.9123 177.875 18.797 176.918 18.745C175.962 18.6931 175.179 18.5906 175.179 18.5172C175.179 18.444 174.636 18.384 173.973 18.384C173.31 18.384 172.768 18.3139 172.768 18.2282C172.768 18.1425 172.36 18.0724 171.861 18.0724C171.362 18.0724 170.609 17.9677 170.187 17.8397C169.765 17.7117 169.081 17.6066 168.667 17.606C168.234 17.6055 167.985 17.539 168.08 17.4492C168.182 17.354 167.771 17.2934 167.025 17.2934C166.353 17.2934 165.804 17.2233 165.804 17.1376C165.804 17.0519 165.472 16.9797 165.067 16.9768C164.662 16.9742 164.096 16.869 163.81 16.7432C163.524 16.6174 162.945 16.5144 162.522 16.5144C162.078 16.5144 161.824 16.4487 161.92 16.3586C162.02 16.2644 161.649 16.2028 160.982 16.2028C160.315 16.2028 159.944 16.1413 160.045 16.0471C160.136 15.9614 160.008 15.8913 159.762 15.8913C159.151 15.8913 156.584 15.3743 156.473 15.2291C156.424 15.1648 156.025 15.1123 155.587 15.1123C155.124 15.1123 154.859 15.047 154.955 14.9565C155.05 14.867 154.8 14.7985 154.368 14.7957C153.955 14.793 153.382 14.6879 153.096 14.562C152.81 14.4363 152.291 14.3333 151.942 14.3333C151.587 14.3333 151.381 14.2646 151.473 14.1775C151.572 14.0846 151.247 14.0217 150.67 14.0217C150.092 14.0217 149.767 13.9587 149.866 13.8659C149.957 13.7802 149.797 13.7101 149.511 13.7101C149.224 13.7101 148.645 13.6054 148.223 13.4773C147.801 13.3494 147.177 13.2443 146.837 13.2436C146.493 13.2432 146.292 13.1735 146.384 13.0869C146.483 12.9936 146.14 12.9302 145.529 12.9288C144.772 12.9269 144.613 12.8875 144.911 12.7753C145.22 12.6589 145.128 12.6226 144.509 12.617C144.067 12.613 143.471 12.5067 143.185 12.3808C142.899 12.2551 142.44 12.1521 142.165 12.1521C141.89 12.1521 141.739 12.082 141.83 11.9963C141.931 11.9021 141.56 11.8405 140.893 11.8405C140.226 11.8405 139.855 11.779 139.955 11.6847C140.052 11.5939 139.78 11.5289 139.302 11.5289C138.851 11.5289 138.482 11.4619 138.482 11.3801C138.482 11.2984 138.061 11.1856 137.547 11.1295C137.033 11.0732 136.678 10.965 136.759 10.8886C136.84 10.8124 136.471 10.75 135.938 10.75C135.36 10.75 135.035 10.687 135.134 10.5942C135.228 10.5058 135.003 10.4384 134.614 10.4384C134.237 10.4384 133.929 10.376 133.929 10.2999C133.929 10.2238 133.507 10.1154 132.991 10.0591C132.475 10.0029 132.054 9.88995 132.054 9.80816C132.054 9.72636 131.632 9.65937 131.116 9.65937C130.6 9.65937 130.179 9.58926 130.179 9.50357C130.179 9.41788 129.945 9.34778 129.659 9.34778C129.373 9.34778 129.07 9.28312 128.986 9.20398C128.902 9.12483 128.473 9.01406 128.033 8.95782C127.592 8.90157 127.232 8.79111 127.232 8.71228C127.232 8.63329 126.863 8.56879 126.413 8.56879C125.935 8.56879 125.662 8.50382 125.759 8.41299C125.855 8.32232 125.588 8.2572 125.121 8.2572C124.679 8.2572 124.248 8.19254 124.165 8.1134C124.081 8.03425 123.65 7.92348 123.209 7.86708C122.767 7.81053 122.474 7.70007 122.558 7.62139C122.642 7.54256 122.214 7.47821 121.607 7.47821C120.94 7.47821 120.569 7.41667 120.67 7.32241C120.766 7.23158 120.494 7.16662 120.016 7.16662C119.565 7.16662 119.196 7.09729 119.196 7.01269C119.196 6.92794 118.714 6.81389 118.125 6.75905C117.536 6.70421 117.054 6.59827 117.054 6.52349C117.054 6.4487 116.685 6.38763 116.234 6.38763C115.756 6.38763 115.484 6.32266 115.58 6.23183C115.677 6.14116 115.41 6.07604 114.942 6.07604C114.5 6.07604 114.073 6.01387 113.992 5.93785C113.911 5.86197 113.422 5.75354 112.905 5.69714C112.387 5.64074 111.964 5.52763 111.964 5.44584C111.964 5.36405 111.542 5.29705 111.027 5.29705C110.511 5.29705 110.089 5.22694 110.089 5.14125C110.089 5.05557 109.728 4.98546 109.286 4.98546C108.844 4.98546 108.482 4.92439 108.482 4.8496C108.482 4.77482 108 4.66888 107.411 4.61404C106.821 4.5592 106.339 4.44515 106.339 4.3604C106.339 4.2758 105.79 4.20647 105.118 4.20647C104.372 4.20647 103.961 4.14587 104.062 4.05068C104.159 3.96031 103.897 3.89488 103.439 3.89488C103.006 3.89488 102.305 3.79018 101.883 3.66212C101.461 3.53421 100.784 3.42904 100.379 3.42842C99.9745 3.42795 99.6429 3.35738 99.6429 3.27169C99.6429 3.186 99.0329 3.11589 98.2878 3.11589C97.4526 3.11589 96.9962 3.05607 97.0982 2.9601C97.1992 2.86506 96.7958 2.8043 96.0648 2.8043C95.4056 2.8043 94.8238 2.73076 94.7724 2.64102C94.721 2.55113 93.9879 2.43615 93.143 2.38552C92.2982 2.33488 91.6071 2.23299 91.6071 2.1593C91.6071 2.08561 90.937 2.02531 90.1181 2.02531C89.1937 2.02531 88.6918 1.96627 88.7946 1.86952C88.8937 1.77619 88.5512 1.71278 87.9399 1.71138C87.3787 1.71014 86.4375 1.60793 85.8482 1.48454C85.2589 1.36099 84.3249 1.25692 83.7723 1.25318C83.22 1.24944 82.7679 1.17622 82.7679 1.09053C82.7679 1.00048 81.9145 0.934733 80.7431 0.934733C79.5879 0.934733 78.7835 0.873505 78.8697 0.792335C78.953 0.713969 78.2671 0.612545 77.3454 0.566896C76.4237 0.521404 74.2232 0.378694 72.4554 0.249849C68.044 -0.0715601 48.5132 -0.0622122 44.5982 0.263404Z" fill="#C77D86"/>
</g>
<defs>
<clipPath id="clip0_48_224">
<rect width="330" height="86" fill="white"/>
</clipPath>
</defs>
</svg>
