<svg width="319" height="72" viewBox="0 0 319 72" fill="none" xmlns="http://www.w3.org/2000/svg">
<g filter="url(#filter0_d_52_7)">
<path fill-rule="evenodd" clip-rule="evenodd" d="M23.1598 0.147078C20.2124 0.492882 15.6407 2.02147 13.5363 3.36535C11.5807 4.61358 9.76744 6.58047 9.90687 7.30228C10.0842 8.22013 11.0712 8.06343 14.3738 6.59337C16.1552 5.80013 17.7808 5.15132 17.9859 5.15132C18.4569 5.15132 18.4537 5.2819 17.9158 7.88408C17.6723 9.0634 17.3083 11.7984 17.107 13.9616C16.9057 16.1248 16.3944 20.0228 15.971 22.6237C15.5473 25.2243 15.082 28.8717 14.9366 30.7288C14.7915 32.5862 14.6082 34.1699 14.5293 34.2482C14.205 34.5717 10.7466 33.4068 7.86898 32.0044C4.96325 30.5885 4.76231 30.535 4.25157 31.0444C3.74084 31.5542 3.84462 31.7153 6.12479 33.9455C8.46394 36.2337 12.2265 38.5045 13.6785 38.5045C13.9767 38.5045 14.283 38.6109 14.3593 38.7405C14.4353 38.8702 14.3 42.304 14.058 46.3708C13.8164 50.4377 13.5139 55.5351 13.3861 57.6983C13.1035 62.4849 13.1583 62.9326 14.1022 63.5496C14.9429 64.099 15.9029 63.7828 16.4417 62.7784C16.6098 62.4653 16.8985 59.8138 17.083 56.8859C17.5045 50.209 18.3345 41.1649 18.6405 39.9205C18.7679 39.4013 19.0171 38.9765 19.1941 38.9765C19.3711 38.9765 21.0153 41.8981 22.8475 45.4687C27.8529 55.2227 29.2943 57.1732 32.6789 58.7701C37.9906 61.2766 43.5879 60.1423 48.0955 55.6462L50.1542 53.5928L50.5426 55.2076C51.212 57.9907 53.8641 60.2027 56.53 60.2011C57.773 60.2005 60.6894 59.0919 62.1191 58.0766L63.0661 57.4038L63.2727 59.6206C63.3863 60.8398 63.6847 62.2341 63.9362 62.7189C64.7103 64.2123 66.216 64.4278 67.4277 63.2189C68.1876 62.4613 68.2022 62.3486 68.2022 57.2405C68.2022 54.3772 68.3135 52.0346 68.4495 52.0346C68.5858 52.0346 68.9321 52.4317 69.2195 52.9169C70.0199 54.268 72.7991 56.9636 74.2852 57.8305C77.7777 59.8669 83.6889 59.2682 86.1596 56.6276C86.5804 56.1783 87.0249 55.8104 87.1476 55.8104C87.2703 55.8104 87.4709 57.0089 87.5933 58.4737C87.8678 61.7615 88.765 63.7859 90.0114 63.93C90.717 64.0119 90.9423 63.8199 91.507 62.657C92.1221 61.3889 92.1565 60.9515 91.972 56.7399L91.7726 52.1919L93.0653 53.6406C94.6584 55.4256 97.855 57.5237 99.7349 58.0174C102.239 58.6757 105.696 57.9192 110.636 55.6336C110.812 55.5521 111.232 55.9967 111.569 56.6216C112.561 58.4586 115.04 60.4645 117.031 61.0419C122.825 62.7218 129.079 59.4658 132.229 53.1296C133.869 49.8292 133.954 45.4269 132.377 45.4269C132.117 45.4269 131.211 46.5244 130.364 47.8654C127.865 51.8235 126.493 53.5594 124.962 54.7044C121.874 57.0127 117.733 56.7494 116.14 54.1431C115.801 53.5893 115.523 53.0415 115.523 52.926C115.522 52.8108 116.622 51.9402 117.966 50.9915C122.937 47.4847 125.932 43.4814 125.932 40.3449C125.932 33.7174 117.759 35.0317 113.37 42.365C112.107 44.4751 110.823 48.0454 110.574 50.1372L110.393 51.6665L107.516 52.9993C104.114 54.576 101.188 54.9851 99.5087 54.1189C98.0522 53.3675 95.0162 50.7669 93.5325 48.9991L92.2338 47.452L95.5594 44.7875C99.3686 41.7357 103.13 37.8636 103.425 36.6906C103.702 35.5924 103.187 34.9049 102.001 34.7872C101.091 34.6969 100.592 35.1025 96.1969 39.501L91.3887 44.3136L91.1874 41.3304C91.0767 39.6895 90.9681 34.5242 90.9461 29.8516C90.9174 23.7209 90.7956 21.1369 90.5092 20.5693C90.0634 19.6864 88.6886 19.3538 88.1656 20.0026C87.9697 20.2462 87.6261 25.5166 87.3189 32.9981C86.7567 46.6801 86.5495 48.8226 85.5289 51.4824C84.281 54.7346 82.1295 56.0618 78.6765 55.7088C75.9663 55.4319 73.5029 53.5767 69.9785 49.1584L68.8135 47.6984L72.4297 44.8492C77.3099 41.0038 81.1727 36.3243 80.6304 34.9146C80.5178 34.622 80.0711 34.414 79.556 34.414C78.8405 34.414 77.7796 35.3045 73.9322 39.1338C71.3243 41.7297 69.0599 43.8536 68.9003 43.8536C68.494 43.8536 68.2182 40.1244 68.0274 32.0541C67.8608 25.0103 67.4485 20.7266 66.8693 20.0187C66.4384 19.4916 65.2132 19.519 64.7583 20.0659C64.5097 20.3648 64.3362 23.2731 64.2191 29.1121C64.0437 37.8642 63.3103 45.8457 62.3336 49.6297C61.3415 53.4741 58.4351 56.356 56.2483 55.6638C55.2833 55.3583 55.1489 53.9329 55.3865 46.5159C55.5928 40.0756 55.5786 39.8418 54.9376 39.0291C53.5423 37.2594 51.6095 38.2761 50.8495 41.1791C49.1208 47.7827 44.9027 53.836 40.9919 55.3259C38.0547 56.4445 34.2133 55.5505 32.0388 53.2422C31.4949 52.6645 29.2034 49.1137 26.9466 45.3511L22.8437 38.5105L24.1503 38.1842C26.7605 37.5319 30.8031 35.9794 32.5132 34.9725C35.06 33.4729 38.1887 30.2134 39.5531 27.6392C42.9784 21.1753 43.5368 12.8285 40.9027 7.45898C39.9023 5.41909 37.072 2.78607 34.8016 1.78264C31.4744 0.312586 27.0494 -0.309169 23.1598 0.147078ZM170.57 0.890603C169.008 1.28486 163.756 2.55732 158.898 3.71839C154.04 4.87946 149.615 5.96753 149.065 6.13587C147.807 6.521 147.326 7.06787 147.707 7.67924C148.111 8.32837 151.214 8.17954 157.035 7.2318C159.621 6.8108 162.553 6.36651 163.551 6.24474L165.365 6.02291L165.358 8.65498C165.341 15.5541 164.419 31.0847 163.613 38.0325C163.284 40.8704 162.179 46.7821 161.373 50.0123C160.071 55.2359 158.897 56.6213 155.478 56.9734C153.349 57.1924 151.035 56.2302 149.058 54.3032C147.375 52.6636 146.392 49.7968 146.644 47.2663C146.826 45.4414 146.353 43.7252 145.725 43.931C145.509 44.0015 145 44.544 144.593 45.1365C143.933 46.0971 143.868 46.4854 143.984 48.7307C144.165 52.2297 145.247 54.5458 147.876 57.0637C150.568 59.6426 152.764 60.6174 155.918 60.6337C161.204 60.6611 163.735 57.8604 166.244 49.2027C168.106 42.7791 168.842 38.4133 169.479 30.0089C169.991 23.2583 169.739 11.422 169.016 8.19495C168.712 6.84006 168.523 5.67207 168.597 5.59875C168.67 5.52544 170.253 5.19159 172.115 4.8568C176.036 4.15135 177.695 3.41318 178.135 2.17816C178.398 1.43904 178.334 1.22099 177.705 0.713139C176.707 -0.0930018 174.223 -0.0310154 170.57 0.890603ZM28.9198 4.69067C31.7091 5.41531 33.2978 6.21012 34.8969 7.68018C36.63 9.27358 37.289 11.1332 37.2821 14.4122C37.2673 21.5693 32.7744 28.6005 26.1642 31.8119C24.3314 32.7023 20.2875 34.0994 19.5424 34.0994C19.3269 34.0994 19.2859 33.3181 19.4222 31.8181C19.6764 29.0228 21.0604 18.6008 21.6859 14.7715C21.9383 13.2266 22.1446 10.2179 22.1446 8.08514V4.20736H24.6021C25.9535 4.20736 27.8968 4.42478 28.9198 4.69067ZM211.026 17.4064C209.164 18.5838 207.575 20.7502 206.514 23.5585C205.843 25.3316 205.561 27.0187 205.067 32.2115C203.404 49.6778 203.202 50.6517 200.83 52.6019C198.625 54.4143 196.196 54.5852 195.339 52.9883C194.939 52.2435 194.4 46.0021 194.388 41.9657C194.376 38.3997 193.997 37.4032 192.652 37.4032C191.28 37.4032 191.026 38.2421 190.765 43.6381C190.471 49.725 190.033 51.012 187.445 53.4021C184.136 56.4574 182.584 56.4114 180.917 53.2089C180.096 51.6322 180.052 51.31 179.889 45.5842C179.699 38.9447 179.505 38.1899 177.98 38.1899C177.259 38.1899 176.928 38.4174 176.493 39.2125C176.013 40.0879 175.933 41.074 175.933 46.0562C175.933 51.2577 176.005 52.0686 176.614 53.6749C178.023 57.3872 180.428 59.5863 183.08 59.5863C184.718 59.5863 187.685 57.963 189.617 56.0093L191.313 54.2935L192.304 55.6024C194.276 58.2062 197.189 58.7965 200.539 57.2707C201.58 56.7966 203.106 55.7484 203.93 54.9414C205.349 53.5525 205.428 53.5163 205.428 54.263C205.428 54.6966 205.89 55.8243 206.454 56.7682C207.643 58.7594 209.513 59.9009 211.585 59.9009C213.076 59.9009 216.004 58.5671 216.486 57.6675C216.927 56.8463 217.29 56.9164 217.895 57.9391C218.179 58.4176 218.9 59.1288 219.497 59.5192C222.862 61.7196 226.77 60.0221 230.11 54.9086L231.421 52.9011L231.992 54.5773C233.041 57.6552 235.341 59.2578 238.71 59.2578C241.885 59.2578 244.636 57.5291 246.789 54.1821L247.816 52.5868L248.556 54.2595C250.176 57.9214 251.997 59.2716 255.317 59.2716C257.777 59.2716 259.507 58.4812 261.521 56.4379L263 54.9379L262.893 56.9706C262.774 59.2458 263.292 60.2156 264.627 60.2156C265.321 60.2156 266.627 59.2414 266.629 58.721C266.63 58.591 266.842 57.1877 267.099 55.6018C268.287 48.3009 272.538 40.7071 275.438 40.7071C277.319 40.7071 278.44 43.281 279.887 50.9141C280.397 53.6009 280.828 54.9499 281.566 56.1669C283.105 58.7049 283.863 59.1184 286.923 59.0923L289.499 59.0699L290.455 60.3452C291.04 61.1255 292.134 61.9893 293.273 62.5701C295.022 63.4618 295.347 63.5185 298.626 63.5015C302.545 63.4814 304.183 63.0109 307.996 60.8096C312.735 58.0737 316.553 52.7369 314.37 51.9012C313.842 51.6995 313.026 52.1148 308.427 54.9241C304.192 57.5111 301.673 58.4375 298.805 58.4636C296.852 58.4812 296.233 58.3569 295.256 57.7512C294.606 57.3478 294.073 56.9073 294.073 56.7723C294.073 56.6373 295.103 55.7406 296.361 54.7793C304.678 48.4243 308.842 40.5095 305.456 37.492C303.143 35.431 299.111 36.8469 294.699 41.2706C290.687 45.2932 288.395 49.8333 288.395 53.7592C288.395 55.2909 288.328 55.4442 287.58 55.6317C285.563 56.1364 284.978 55.1799 283.324 48.6763C281.827 42.7876 280.833 40.4437 279.22 38.9897C276.447 36.4907 273.175 36.9545 270.089 40.2839C269.312 41.1224 268.452 42.1551 268.177 42.579C267.699 43.3153 267.668 43.1982 267.483 39.9463C267.338 37.3803 267.158 36.3976 266.752 35.9505C266.134 35.2689 265.271 35.1805 264.812 35.7513C264.638 35.9678 264.047 38.4542 263.497 41.2772C262.044 48.7553 260.703 52.1211 258.411 54.044C257.132 55.1173 255.994 55.4039 254.328 55.0716C253.607 54.9278 253.22 54.5326 252.595 53.303C251.577 51.2993 250.556 45.5757 250.321 40.5498C250.107 35.9873 249.694 34.7287 248.411 34.7287C247.394 34.7287 246.754 35.2274 246.754 36.0203C246.754 36.4851 246.502 36.5342 244.869 36.3863C241.44 36.0763 238.191 37.6034 234.776 41.13C232.573 43.4043 231.221 45.5534 229.998 48.7238C228.21 53.3593 224.118 57.3444 221.931 56.5794C220.265 55.9964 219.976 53.741 220.591 46.0949C220.885 42.4345 220.865 41.8229 220.426 41.1548C219.883 40.3289 218.653 40.1322 218.117 40.7858C217.94 41.0022 217.436 42.6671 216.999 44.4861C216.053 48.4167 214.558 52.623 213.661 53.8794C213.306 54.3766 212.583 54.9624 212.053 55.1811C211.217 55.5266 211.008 55.5046 210.465 55.0137C209.439 54.0877 208.86 51.5393 208.672 47.1244C208.477 42.5396 208.919 38.502 209.844 36.3976C210.164 35.6717 211.36 33.9326 212.502 32.533C215.774 28.5228 217.125 25.4159 217.142 21.8619C217.154 19.5395 216.474 17.9224 215.148 17.1163C213.72 16.2479 212.749 16.3161 211.026 17.4064ZM214.138 19.4762C215.197 21.0885 213.828 25.2866 211.056 28.9246C210.303 29.9129 209.332 31.1945 208.898 31.7728C208.465 32.3515 208.027 32.8282 207.926 32.8326C207.581 32.848 207.983 29.2248 208.642 26.3904C209.427 23.0104 210.585 20.4837 211.826 19.4425C212.977 18.4759 213.486 18.4832 214.138 19.4762ZM52.5328 30.153C49.2643 31.5711 51.0088 36.302 54.8 36.302C56.2871 36.302 57.0398 35.8753 57.6588 34.6812C58.5944 32.8766 57.6452 30.8465 55.4843 30.03C54.3382 29.5967 53.759 29.6209 52.5328 30.153ZM219.696 33.0513C219.139 33.275 218.362 34.8586 218.362 35.7718C218.362 36.7422 219.494 38.1899 220.252 38.1899C221.688 38.1899 222.779 36.8998 222.779 35.2019C222.779 33.724 221.041 32.5116 219.696 33.0513ZM122.316 40.6284C121.944 42.129 120.248 44.4379 118.089 46.3815C116.942 47.4139 115.909 48.2588 115.793 48.2588C115.495 48.2588 116.29 45.7497 117.073 44.218C117.888 42.6259 119.7 40.7814 121.008 40.2137C122.404 39.6074 122.557 39.6558 122.316 40.6284ZM303.313 40.8471C303.197 42.4323 301.553 45.1547 299.212 47.6383C296.818 50.1775 293.552 52.8782 293.245 52.5723C292.866 52.1941 293.548 49.7058 294.612 47.5845C295.93 44.9565 298.979 41.5894 300.993 40.5369C302.815 39.5847 303.4 39.6631 303.313 40.8471ZM245.963 41.5724C245.407 45.7507 244.736 48.6143 243.88 50.4613C241.716 55.132 238.257 56.8375 235.839 54.426C234.416 53.0062 234.294 50.9185 235.43 47.424C236.962 42.7121 240.154 40.1272 244.486 40.0916L246.162 40.0778L245.963 41.5724Z" fill="url(#paint0_linear_52_7)"/>
</g>
<defs>
<filter id="filter0_d_52_7" x="0.25213" y="0" width="318.496" height="71.4957" filterUnits="userSpaceOnUse" color-interpolation-filters="sRGB">
<feFlood flood-opacity="0" result="BackgroundImageFix"/>
<feColorMatrix in="SourceAlpha" type="matrix" values="0 0 0 0 0 0 0 0 0 0 0 0 0 0 0 0 0 0 127 0" result="hardAlpha"/>
<feOffset dy="3.74787"/>
<feGaussianBlur stdDeviation="1.87394"/>
<feComposite in2="hardAlpha" operator="out"/>
<feColorMatrix type="matrix" values="0 0 0 0 0 0 0 0 0 0 0 0 0 0 0 0 0 0 0.1 0"/>
<feBlend mode="normal" in2="BackgroundImageFix" result="effect1_dropShadow_52_7"/>
<feBlend mode="normal" in="SourceGraphic" in2="effect1_dropShadow_52_7" result="shape"/>
</filter>
<linearGradient id="paint0_linear_52_7" x1="4" y1="32" x2="315" y2="32" gradientUnits="userSpaceOnUse">
<stop stop-color="#4D0011"/>
<stop offset="0.358038" stop-color="#C77D86"/>
<stop offset="0.645735" stop-color="#102B1F"/>
<stop offset="1" stop-color="#493129"/>
</linearGradient>
</defs>
</svg>
