<svg width="329" height="86" viewBox="0 0 329 86" fill="none" xmlns="http://www.w3.org/2000/svg">
<g clip-path="url(#clip0_63_17)">
<path fill-rule="evenodd" clip-rule="evenodd" d="M229.459 0.579139C226.167 0.609832 224.051 0.689444 224.051 0.782299C224.051 0.872194 222.899 0.934824 221.247 0.934824C219.705 0.934824 218.443 0.994494 218.443 1.06725C218.443 1.14016 217.355 1.24486 216.026 1.29986C214.696 1.35485 213.382 1.47061 213.106 1.55692C212.829 1.64323 211.927 1.71381 211.101 1.71381C210.168 1.71381 209.662 1.77286 209.764 1.86961C209.867 1.96698 209.317 2.0254 208.295 2.0254C207.397 2.0254 206.727 2.08663 206.806 2.16141C206.885 2.2362 206.235 2.34463 205.361 2.40228C204.487 2.45992 203.701 2.57412 203.614 2.65576C203.528 2.73755 202.893 2.80548 202.204 2.80673C201.297 2.80844 201.062 2.85082 201.352 2.96019C201.636 3.06722 201.302 3.11193 200.202 3.11365C199.344 3.11489 198.717 3.17908 198.8 3.25714C198.882 3.33472 198.349 3.44659 197.614 3.50548C196.88 3.56437 196.212 3.67607 196.129 3.75382C196.047 3.8314 195.619 3.89497 195.179 3.89497C194.713 3.89497 194.446 3.96009 194.543 4.05077C194.644 4.14611 194.229 4.20656 193.474 4.20656C192.72 4.20656 192.305 4.26701 192.406 4.36236C192.501 4.4521 192.253 4.51863 191.821 4.51909C191.409 4.51972 190.727 4.62488 190.306 4.75279C189.885 4.88085 189.164 4.98664 188.704 4.98789C188.065 4.98976 187.962 5.02606 188.267 5.14135C188.556 5.2504 188.311 5.29309 187.383 5.29481C186.677 5.29605 186.167 5.36102 186.25 5.43907C186.332 5.51728 185.919 5.62852 185.331 5.68648C184.743 5.74444 184.261 5.85583 184.261 5.93404C184.261 6.01225 183.834 6.07613 183.311 6.07613C182.745 6.07613 182.427 6.13923 182.526 6.23193C182.625 6.32603 182.261 6.38772 181.607 6.38772C181.011 6.38772 180.523 6.45783 180.523 6.54352C180.523 6.62921 180.245 6.69932 179.906 6.69932C179.567 6.69932 179.056 6.8023 178.771 6.92803C178.486 7.05391 177.923 7.15907 177.518 7.16172C177.114 7.16453 176.784 7.23682 176.784 7.3225C176.784 7.40819 176.334 7.47939 175.783 7.48064C175.038 7.48251 174.884 7.52177 175.182 7.6341C175.49 7.75017 175.397 7.78585 174.781 7.78849C174.341 7.79036 173.636 7.89662 173.215 8.02453C172.794 8.15259 172.156 8.25729 171.798 8.25729C171.43 8.25729 171.217 8.32537 171.31 8.41308C171.408 8.50594 171.085 8.56888 170.509 8.56888C169.933 8.56888 169.609 8.63182 169.707 8.72468C169.799 8.8113 169.599 8.88094 169.256 8.88141C168.917 8.88203 168.295 8.9872 167.874 9.11511C167.454 9.24317 166.816 9.34787 166.457 9.34787C166.089 9.34787 165.876 9.41595 165.969 9.50366C166.067 9.59652 165.744 9.65946 165.168 9.65946C164.636 9.65946 164.269 9.72334 164.352 9.80139C164.435 9.8796 164.021 9.99084 163.433 10.0488C162.845 10.1068 162.364 10.2181 162.364 10.2964C162.364 10.3746 161.996 10.4384 161.547 10.4384C161.07 10.4384 160.798 10.5034 160.895 10.5942C160.995 10.6885 160.625 10.75 159.96 10.75C159.355 10.75 158.928 10.8139 159.011 10.892C159.094 10.9702 158.681 11.0814 158.093 11.1392C157.506 11.1972 156.958 11.3086 156.875 11.3868C156.792 11.465 156.364 11.529 155.923 11.529C155.457 11.529 155.191 11.5941 155.287 11.6848C155.387 11.7791 155.017 11.8406 154.352 11.8406C153.747 11.8406 153.32 11.9045 153.403 11.9826C153.486 12.0608 153.073 12.172 152.485 12.2298C151.898 12.2878 151.35 12.3992 151.267 12.4774C151.184 12.5556 150.756 12.6196 150.315 12.6196C149.849 12.6196 149.583 12.6847 149.679 12.7754C149.78 12.8709 149.347 12.9321 148.56 12.9335C147.632 12.9353 147.387 12.9779 147.676 13.087C148.077 13.2381 147.987 13.25 145.961 13.3118C145.678 13.3204 145.398 13.4135 145.338 13.5189C145.278 13.624 144.81 13.7102 144.3 13.7102C143.749 13.7102 143.439 13.7736 143.537 13.866C143.638 13.9613 143.223 14.0218 142.469 14.0218C141.748 14.0218 141.301 14.0839 141.394 14.1715C141.483 14.2553 140.962 14.367 140.208 14.4253C139.469 14.4825 138.864 14.5904 138.864 14.6651C138.864 14.7397 138.436 14.8008 137.913 14.8008C137.348 14.8008 137.03 14.8639 137.128 14.9566C137.23 15.0527 136.769 15.1124 135.926 15.1124C135.171 15.1124 134.627 15.1759 134.71 15.2543C134.793 15.3325 134.38 15.4437 133.792 15.5015C133.205 15.5595 132.657 15.6709 132.574 15.7491C132.491 15.8273 131.942 15.8913 131.355 15.8913C130.711 15.8913 130.352 15.9532 130.452 16.0471C130.554 16.1439 130.049 16.2029 129.116 16.2029C128.184 16.2029 127.679 16.262 127.781 16.3587C127.88 16.4524 127.534 16.5145 126.913 16.5145C126.345 16.5145 125.647 16.6175 125.362 16.7432C125.077 16.8691 124.333 16.9743 123.709 16.9769C123.085 16.9797 122.574 17.052 122.574 17.1377C122.574 17.2261 121.736 17.2988 120.638 17.3058C119.573 17.3125 118.882 17.3621 119.102 17.4158C119.552 17.5253 116.117 17.9 113.559 18.0205C112.641 18.0638 111.957 18.1633 112.04 18.2417C112.127 18.3235 111.212 18.3841 109.889 18.3841C108.623 18.3841 107.652 18.4447 107.73 18.5189C107.809 18.5929 106.741 18.7021 105.357 18.7613C103.974 18.8205 102.505 18.9177 102.093 18.9771C100.629 19.1883 79.1245 19.0962 74.5724 18.8591C72.1859 18.735 70.233 18.5771 70.233 18.5086C70.233 18.4402 69.3245 18.3841 68.2144 18.3841C67.0741 18.3841 66.2609 18.3226 66.3456 18.2428C66.4278 18.165 65.8641 18.0646 65.0929 18.0197C62.996 17.8975 60.3523 17.5629 60.3523 17.4197C60.3523 17.3502 59.8644 17.2935 59.2683 17.2935C58.6138 17.2935 58.2498 17.2318 58.3494 17.1377C58.4477 17.045 58.1297 16.9819 57.5641 16.9819C57.0414 16.9819 56.6136 16.9126 56.6136 16.828C56.6136 16.7432 56.133 16.6292 55.5455 16.5744C54.958 16.5195 54.4773 16.4136 54.4773 16.3388C54.4773 16.264 54.1096 16.2029 53.6604 16.2029C53.1837 16.2029 52.9121 16.138 53.0085 16.0471C53.1017 15.9591 52.883 15.8913 52.5059 15.8913C52.1388 15.8913 51.7697 15.8267 51.6861 15.7475C51.6023 15.6684 51.1734 15.5576 50.7333 15.5012C50.2929 15.4447 50.0011 15.3342 50.0844 15.2555C50.168 15.1767 49.8083 15.1124 49.2856 15.1124C48.763 15.1124 48.3352 15.0423 48.3352 14.9566C48.3352 14.8709 48.1021 14.8008 47.8169 14.8008C47.5317 14.8008 47.2307 14.7367 47.1479 14.6585C47.0649 14.5803 46.5167 14.4689 45.9294 14.411C45.3419 14.3532 44.9291 14.2419 45.0118 14.1637C45.0946 14.0857 44.7875 14.0218 44.3295 14.0218C43.8425 14.0218 43.5653 13.9571 43.6619 13.866C43.7583 13.7752 43.4868 13.7102 43.0101 13.7102C42.5609 13.7102 42.1932 13.6432 42.1932 13.5614C42.1932 13.4796 41.7726 13.3667 41.2585 13.3104C40.7445 13.2542 40.3239 13.1457 40.3239 13.0697C40.3239 12.9935 39.9561 12.9312 39.507 12.9312C39.0303 12.9312 38.7587 12.8662 38.8551 12.7754C38.9459 12.6897 38.7865 12.6196 38.5007 12.6196C38.2153 12.6196 37.6374 12.5149 37.2165 12.3868C36.7959 12.2589 36.2415 12.1538 35.9844 12.1531C35.7272 12.1527 35.517 12.0821 35.517 11.9964C35.517 11.9107 35.2094 11.8406 34.8337 11.8406C34.4462 11.8406 34.2216 11.7732 34.3153 11.6848C34.4061 11.5991 34.2478 11.529 33.9631 11.529C33.6787 11.529 33.2966 11.4239 33.1136 11.2953C32.9307 11.1668 32.5555 11.0616 32.2799 11.0616C32.0041 11.0616 31.7784 10.9915 31.7784 10.9058C31.7784 10.8201 31.478 10.75 31.1108 10.75C30.7436 10.75 30.4432 10.6799 30.4432 10.5942C30.4432 10.5086 30.1943 10.4384 29.8901 10.4384C29.5857 10.4384 29.1566 10.3333 28.9362 10.2048C28.7159 10.0762 28.2969 9.97106 28.0051 9.97106C27.7129 9.97106 27.5484 9.90095 27.6392 9.81526C27.7359 9.72412 27.4587 9.65946 26.9716 9.65946C26.4845 9.65946 26.2073 9.59481 26.304 9.50366C26.3948 9.41798 26.3221 9.34787 26.1424 9.34787C25.6321 9.34787 23.767 8.83498 23.767 8.69477C23.767 8.62544 23.3764 8.56779 22.8991 8.56654C22.2406 8.56468 22.1279 8.52775 22.4318 8.41308C22.7427 8.29593 22.6636 8.26149 22.0791 8.25962C21.6646 8.25838 21.1452 8.15212 20.9249 8.02359C20.7046 7.89506 20.2925 7.7899 20.0095 7.7899C19.7261 7.7899 19.4943 7.71979 19.4943 7.6341C19.4943 7.54841 19.1036 7.47721 18.6264 7.47597C17.9679 7.4741 17.8552 7.43717 18.1591 7.3225C18.4531 7.21158 18.2638 7.17091 17.4469 7.16904C16.8351 7.1678 16.2916 7.09208 16.2396 7.00078C16.1875 6.90964 15.639 6.79544 15.021 6.74715C14.4031 6.69869 13.9622 6.59805 14.0413 6.52342C14.1203 6.44879 13.5699 6.38772 12.8182 6.38772C12.0664 6.38772 11.5179 6.32494 11.5991 6.24828C11.6806 6.17148 11.2971 6.07083 10.747 6.02471C9.2128 5.89571 7.21023 5.55187 7.21023 5.41757C7.21023 5.35136 6.66946 5.29714 6.00852 5.29714C5.34759 5.29714 4.80682 5.22703 4.80682 5.14135C4.80682 5.05566 4.39637 4.98555 3.89432 4.98555C3.39255 4.98555 2.94204 4.92354 2.8929 4.84782C2.84403 4.77211 2.17322 4.6604 1.40199 4.59964L0 4.48887V45.2445V86H153.818H307.636V85.6105C307.636 85.3963 307.757 85.2211 307.903 85.2211C308.05 85.2211 308.17 85.0858 308.17 84.9205C308.17 84.7554 308.351 84.515 308.571 84.3865C308.791 84.2579 308.972 84.0384 308.972 83.8987C308.972 83.7591 309.092 83.688 309.239 83.741C309.394 83.7972 309.506 83.6388 309.506 83.3607C309.506 83.0986 309.599 82.8841 309.714 82.8841C309.829 82.8841 310.155 82.5336 310.44 82.1051C310.725 81.6767 311.052 81.3261 311.167 81.3261C311.281 81.3261 311.375 81.1509 311.375 80.9366C311.375 80.7224 311.495 80.5471 311.642 80.5471C311.789 80.5471 311.909 80.4203 311.909 80.2653C311.909 80.1103 312.086 79.8475 312.301 79.6811C312.517 79.5148 312.697 79.2518 312.702 79.0968C312.707 78.9418 312.83 78.8583 312.977 78.9113C313.13 78.9664 313.244 78.8264 313.244 78.5828C313.244 78.3493 313.323 78.2043 313.42 78.2607C313.516 78.3169 313.807 77.9974 314.067 77.5505C314.326 77.1037 314.667 76.713 314.826 76.6823C314.984 76.6514 315.114 76.4276 315.114 76.1848C315.114 75.9421 315.204 75.7201 315.314 75.6914C315.646 75.6054 316.449 74.6228 316.449 74.3026C316.449 74.1383 316.569 74.0037 316.716 74.0037C316.863 74.0037 316.983 73.8242 316.983 73.605C316.983 73.3789 317.099 73.2479 317.25 73.3026C317.401 73.3569 317.517 73.23 317.517 73.0112C317.517 72.7981 317.697 72.5186 317.918 72.3901C318.138 72.2615 318.318 71.9719 318.318 71.7465C318.318 71.5129 318.433 71.3782 318.585 71.433C318.741 71.4894 318.852 71.3277 318.852 71.0435C318.852 70.7593 318.963 70.5976 319.119 70.654C319.274 70.7098 319.386 70.5582 319.386 70.2927C319.386 70.0411 319.567 69.7481 319.787 69.6413C320.007 69.5346 320.188 69.2766 320.188 69.0679C320.188 68.8544 320.304 68.7304 320.455 68.7845C320.616 68.8429 320.722 68.6217 320.722 68.2223C320.722 67.8603 320.803 67.6115 320.902 67.6693C321.097 67.7828 321.753 66.872 321.978 66.1764C322.054 65.9416 322.223 65.788 322.354 65.8351C322.484 65.8821 322.593 65.6185 322.595 65.2493C322.598 64.7583 322.669 64.6407 322.858 64.8116C323.051 64.986 323.118 64.8997 323.121 64.4722C323.123 64.157 323.31 63.7915 323.535 63.6598C323.761 63.5283 323.941 63.383 323.936 63.3372C323.93 63.2912 323.928 63.0608 323.93 62.8252C323.933 62.4913 323.992 62.4483 324.193 62.6305C324.38 62.7987 324.454 62.6462 324.46 62.0852C324.466 61.5242 324.541 61.3716 324.727 61.5399C324.915 61.7091 324.987 61.572 324.99 61.0427C324.992 60.6408 325.104 60.2723 325.238 60.224C325.372 60.1756 325.563 59.8557 325.662 59.5131C325.762 59.1704 325.952 58.9295 326.086 58.9778C326.221 59.0263 326.33 58.7084 326.33 58.2682C326.33 57.7763 326.432 57.5077 326.597 57.5671C326.757 57.6247 326.865 57.4254 326.868 57.0699C326.87 56.7435 327.045 56.1961 327.256 55.8533C327.468 55.5105 327.647 54.9981 327.653 54.7146C327.66 54.412 327.775 54.2388 327.932 54.2953C328.101 54.3562 328.199 53.9563 328.199 53.2048C328.199 52.552 328.301 52.0547 328.425 52.0995C328.674 52.1893 328.997 49.1177 328.999 46.6468C329.001 44.2425 328.679 41.2874 328.425 41.3788C328.301 41.4237 328.199 41.0315 328.199 40.5073C328.199 39.9115 328.099 39.5903 327.932 39.6504C327.771 39.7084 327.665 39.5026 327.665 39.1333C327.665 38.7783 327.496 38.4385 327.264 38.3261C327.028 38.2118 326.862 37.8681 326.86 37.4892C326.856 37.0165 326.787 36.9081 326.597 37.0798C326.404 37.2536 326.337 37.1637 326.334 36.7292C326.331 36.408 326.219 36.145 326.084 36.145C325.948 36.145 325.759 35.9354 325.663 35.6793C325.566 35.4233 325.376 35.1737 325.241 35.1248C325.105 35.076 324.994 34.8607 324.994 34.6465C324.994 34.4265 324.878 34.2989 324.727 34.3533C324.571 34.4097 324.46 34.248 324.46 33.9638C324.46 33.6966 324.357 33.5153 324.23 33.5609C324.104 33.6064 323.779 33.3302 323.508 32.9469C323.237 32.5637 322.92 32.25 322.803 32.25C322.687 32.25 322.591 32.1157 322.591 31.9514C322.591 31.7872 322.501 31.6295 322.391 31.6008C321.955 31.4879 321.255 30.4796 321.237 29.9394C321.222 29.4779 321.174 29.4278 320.989 29.6794C320.805 29.9293 320.755 29.8754 320.74 29.4067C320.73 29.0855 320.628 28.8225 320.514 28.8225C320.4 28.8225 320.07 28.5076 319.78 28.1228C319.49 27.7382 319.163 27.4227 319.053 27.4217C318.943 27.421 318.852 27.3152 318.852 27.1866C318.852 27.0581 318.732 26.9529 318.585 26.9529C318.438 26.9529 318.318 26.8576 318.318 26.7411C318.318 26.6245 318.018 26.3975 317.651 26.2367C317.283 26.0758 316.983 25.8525 316.983 25.7407C316.983 25.6288 316.683 25.3481 316.315 25.1172C315.948 24.8861 315.648 24.6445 315.648 24.5805C315.648 24.4468 315.041 23.9972 313.979 23.3434C313.575 23.0948 313.244 22.8196 313.244 22.7319C313.244 22.6441 313.124 22.6155 312.977 22.6685C312.83 22.7215 312.71 22.673 312.709 22.5609C312.708 22.4487 312.168 22.0093 311.507 21.5845C310.847 21.1596 310.307 20.7597 310.307 20.6957C310.307 20.6318 310.006 20.4042 309.639 20.1899C309.272 19.9757 308.972 19.7271 308.972 19.6375C308.972 19.5479 308.843 19.4747 308.686 19.4747C308.391 19.4747 307.636 19.0945 307.636 18.9457C307.636 18.8308 306.272 17.9493 303.965 16.5725C302.9 15.9373 302.028 15.3489 302.028 15.265C302.028 15.1811 301.917 15.1124 301.78 15.1124C301.643 15.1124 300.771 14.6894 299.843 14.1723C296.056 12.0622 295.631 11.8406 295.364 11.8406C295.21 11.8406 295.085 11.7752 295.085 11.6953C295.085 11.6153 294.859 11.5082 294.582 11.4569C294.306 11.4056 293.706 11.1556 293.25 10.9012C292.793 10.6466 292.35 10.4384 292.265 10.4384C292.179 10.4384 291.942 10.3509 291.737 10.2437C290.854 9.78129 290.552 9.65946 290.29 9.65946C290.137 9.65946 290.011 9.58935 290.011 9.50366C290.011 9.41798 289.771 9.34787 289.477 9.34787C289.181 9.34787 288.943 9.24395 288.943 9.11417C288.943 8.98564 288.763 8.88048 288.543 8.88048C288.322 8.88048 288.142 8.81037 288.142 8.72468C288.142 8.63899 287.902 8.56888 287.608 8.56888C287.314 8.56888 287.074 8.49877 287.074 8.41308C287.074 8.3274 286.908 8.25729 286.706 8.25729C286.504 8.25729 286.189 8.15212 286.006 8.02359C285.823 7.89506 285.448 7.7899 285.172 7.7899C284.896 7.7899 284.67 7.71979 284.67 7.6341C284.67 7.54841 284.363 7.4783 283.987 7.4783C283.6 7.4783 283.375 7.41084 283.469 7.3225C283.56 7.23682 283.504 7.16671 283.346 7.16671C283.187 7.16671 282.582 6.99144 282 6.77722C281.418 6.56299 280.76 6.38772 280.537 6.38772C280.313 6.38772 280.131 6.31761 280.131 6.23193C280.131 6.14624 279.898 6.07613 279.612 6.07613C279.327 6.07613 279.025 6.01147 278.942 5.93233C278.858 5.85318 278.429 5.74241 277.989 5.68601C277.549 5.62946 277.257 5.519 277.34 5.44032C277.424 5.36149 277.117 5.29714 276.659 5.29714C276.172 5.29714 275.895 5.23249 275.991 5.14135C276.088 5.05052 275.816 4.98555 275.34 4.98555C274.89 4.98555 274.523 4.92105 274.523 4.84206C274.523 4.76323 274.161 4.65245 273.719 4.59574C273.277 4.53919 272.984 4.42842 273.067 4.34974C273.151 4.27091 272.724 4.20656 272.119 4.20656C271.454 4.20656 271.085 4.14502 271.185 4.05077C271.278 3.96305 271.064 3.89497 270.697 3.89497C270.338 3.89497 269.7 3.79027 269.279 3.66221C268.858 3.5343 268.237 3.42914 267.898 3.42851C267.555 3.42805 267.354 3.3584 267.446 3.27178C267.547 3.17628 267.114 3.11505 266.327 3.11365C265.399 3.11193 265.154 3.06924 265.443 2.96019C265.737 2.84941 265.545 2.8086 264.725 2.80673C264.109 2.80548 263.535 2.73833 263.45 2.65763C263.364 2.57693 262.755 2.46366 262.096 2.40586C261.436 2.34822 260.831 2.239 260.751 2.16328C260.671 2.08741 260.004 2.0254 259.27 2.0254C258.535 2.0254 258.001 1.96199 258.083 1.88456C258.166 1.80729 257.662 1.7096 256.964 1.66769C253.304 1.44786 250.222 1.16992 250.222 1.05946C250.222 0.990911 248.93 0.929839 247.351 0.923918C245.498 0.916752 244.669 0.865495 245.014 0.779027C245.342 0.696922 243.778 0.640835 240.975 0.634136C238.46 0.628216 236.056 0.601886 235.634 0.575868C235.212 0.54985 232.433 0.551252 229.459 0.579139Z" fill="#C77D86"/>
</g>
<defs>
<clipPath id="clip0_63_17">
<rect width="329" height="86" fill="white"/>
</clipPath>
</defs>
</svg>
