<svg width="300" height="181" viewBox="0 0 300 181" fill="none" xmlns="http://www.w3.org/2000/svg">
<path fill-rule="evenodd" clip-rule="evenodd" d="M62.6083 0.073045C60.2776 0.218163 57.5517 0.620127 53.0071 1.48941C48.7346 2.30647 46.6376 2.49226 42.9261 2.38275C40.0363 2.29761 30.8429 1.54464 28.0803 1.16689C26.4041 0.937583 18.43 1.10391 16.3284 1.41187C12.6921 1.94471 9.07552 3.59877 6.48473 5.9137C5.29365 6.97827 2.78221 10.0754 2.06041 11.3706C1.20067 12.9132 0.856978 14.8688 1.17491 16.4106C1.45265 17.7582 1.97501 18.6803 4.01375 21.4225C6.60744 24.9111 7.40753 27.266 7.1009 30.5085C6.88675 32.7705 6.31183 34.3555 4.22554 38.4348C1.71068 43.352 1.3331 44.4223 1.32285 46.6639C1.30866 49.7833 2.10744 51.7897 5.35829 56.8021C7.73572 60.4677 8.4922 62.1033 8.68322 63.9893C8.86584 65.7923 8.37133 67.1084 6.5294 69.7213C3.71473 73.7138 3.14796 75.1334 3.16189 78.1563C3.17293 80.53 3.51819 81.7822 5.34383 86.069C7.01445 89.9915 7.29928 91.1443 7.11535 93.2333C6.93326 95.2986 6.42718 96.405 4.20399 99.5997C1.3352 103.722 1.05536 104.43 1.04695 107.591C1.03907 110.58 1.04616 110.605 3.50794 115.821C5.23531 119.481 5.87723 121.739 5.87723 124.154C5.87723 127.173 5.29706 128.962 2.85735 133.466C-0.863299 140.335 -0.906917 142.032 2.47268 148.442C3.04365 149.525 3.64458 150.925 3.80801 151.552C4.20084 153.06 3.952 155.847 3.14113 159.024C2.78588 160.416 2.4238 162.09 2.33657 162.743C2.24959 163.396 1.98132 164.693 1.74063 165.626C1.36778 167.071 1.35044 167.521 1.62318 168.657C2.01574 170.293 3.41309 172.61 4.72583 173.802C7.53918 176.356 12.4622 178.262 18.9957 179.327C21.2189 179.689 22.0001 179.736 25.7155 179.732C30.4215 179.727 32.1367 179.524 36.3162 178.48C42.2542 176.995 46.0482 176.547 51.1804 176.723C54.9363 176.852 57.5678 177.199 64.3409 178.455C72.5053 179.97 74.2823 180.197 78.0043 180.203C83.1835 180.212 86.515 179.731 94.8374 177.773C100.924 176.341 103.639 175.885 106.771 175.77C109.764 175.66 111.949 175.958 116.288 177.067C122.917 178.763 125.274 179.104 130.293 179.096C134.234 179.089 136.313 178.881 143.431 177.782C149.944 176.775 151.858 176.604 155.326 176.715C158.756 176.824 160.593 177.129 165.897 178.468C172.742 180.196 173.917 180.364 179.166 180.369C184.129 180.374 184.169 180.37 192.83 178.887C198.907 177.847 202.656 177.46 206.666 177.46C211.679 177.46 214.65 177.81 222.127 179.279C233.532 181.52 236.35 181.546 246.993 179.511C251.265 178.694 253.362 178.508 257.074 178.617C259.964 178.703 269.157 179.456 271.92 179.833C273.596 180.063 281.57 179.896 283.672 179.588C287.308 179.055 290.924 177.401 293.515 175.086C294.706 174.022 297.218 170.925 297.94 169.63C298.799 168.087 299.143 166.131 298.825 164.59C298.547 163.242 298.025 162.32 295.986 159.578C293.393 156.089 292.592 153.734 292.899 150.492C293.113 148.23 293.688 146.645 295.774 142.565C298.289 137.648 298.667 136.578 298.677 134.336C298.691 131.217 297.893 129.21 294.642 124.198C292.264 120.532 291.508 118.897 291.317 117.011C291.134 115.208 291.629 113.892 293.471 111.279C296.285 107.286 296.852 105.867 296.838 102.844C296.827 100.47 296.482 99.2179 294.656 94.9312C292.986 91.0087 292.701 89.8558 292.885 87.7669C293.067 85.7015 293.573 84.5952 295.796 81.4005C298.665 77.278 298.945 76.5702 298.953 73.4087C298.961 70.4198 298.954 70.3956 296.492 65.1796C294.765 61.5193 294.123 59.2612 294.123 56.8463C294.123 53.8271 294.703 52.0377 297.143 47.5343C300.863 40.6656 300.907 38.9681 297.527 32.5582C296.956 31.4751 296.355 30.0753 296.192 29.4477C295.799 27.9373 296.048 25.1484 296.861 21.9764C297.218 20.5838 297.58 18.8746 297.665 18.1783C297.75 17.482 297.952 16.2638 298.115 15.4712C298.417 13.9957 298.386 13.8056 297.24 10.0884C296.722 8.40888 294.512 6.30585 291.72 4.83599C289.195 3.50714 285.42 2.39288 281.004 1.6733C278.781 1.31106 278 1.26406 274.285 1.26802C269.579 1.27324 267.863 1.47596 263.684 2.52043C257.746 4.00469 253.952 4.45302 248.82 4.27689C245.064 4.14791 242.432 3.80165 235.659 2.54512C227.495 1.03048 225.718 0.803067 221.996 0.796896C216.816 0.78835 213.485 1.26944 205.163 3.22735C199.076 4.65923 196.361 5.11484 193.229 5.22989C190.236 5.33987 188.051 5.04204 183.712 3.93268C177.083 2.23748 174.726 1.89612 169.707 1.90451C165.766 1.91116 163.687 2.1191 156.569 3.21865C150.056 4.22482 148.142 4.39637 144.674 4.28559C141.244 4.17592 139.407 3.87112 134.103 2.53214C127.258 0.804333 126.083 0.635794 120.834 0.63073C115.871 0.625982 115.831 0.630255 107.17 2.11293C101.093 3.15329 97.3438 3.5399 93.3341 3.5399C88.5685 3.5399 84.5811 3.0884 78.6612 1.8784C70.5885 0.22845 66.8563 -0.191238 62.6083 0.073045Z" fill="#FAF4ED"/>
</svg>
